<ttFont>
<head>
    <!-- Most of this table will be recalculated by the compiler -->
    <tableVersion value="1.0"/>
    <fontRevision value="1.0"/>
    <checkSumAdjustment value="0x1e17793d"/>
    <magicNumber value="0x5f0f3cf5"/>
    <flags value="00000000 00000000"/>
    <unitsPerEm value="1000"/>
    <created value="Thu Apr  9 22:51:27 1992"/>
    <modified value="Thu Apr  9 22:51:27 1992"/>
    <xMin value="-23"/>
    <yMin value="-153"/>
    <xMax value="1500"/>
    <yMax value="847"/>
    <macStyle value="00000000 00000000"/>
    <lowestRecPPEM value="3"/>
    <fontDirectionHint value="2"/>
    <indexToLocFormat value="1"/>
    <glyphDataFormat value="0"/>
  </head>
    <TTGlyph name=".notdef" xMin="52" yMin="0" xMax="795" yMax="847">
      <contour>
        <pt x="52" y="0" on="1"/>
        <pt x="52" y="847" on="1"/>
        <pt x="795" y="847" on="1"/>
        <pt x="795" y="0" on="1"/>
      </contour>
      <contour>
        <pt x="743" y="52" on="1"/>
        <pt x="743" y="795" on="1"/>
        <pt x="104" y="795" on="1"/>
        <pt x="104" y="52" on="1"/>
      </contour>
    </TTGlyph>
    <TTGlyph name="A" xMin="51" yMin="-6" xMax="1274" yMax="608">
      <contour>
        <pt x="267" y="238" on="1"/>
        <pt x="631" y="602" on="1"/>
        <pt x="637" y="608" on="0"/>
        <pt x="646" y="608" on="1"/>
        <pt x="680" y="608" on="1"/>
        <pt x="689" y="608" on="0"/>
        <pt x="694" y="602" on="1"/>
        <pt x="1268" y="29" on="1"/>
        <pt x="1274" y="23" on="0"/>
        <pt x="1274" y="15" on="1"/>
        <pt x="1274" y="6" on="0"/>
        <pt x="1262" y="-6" on="0"/>
        <pt x="1253" y="-6" on="1"/>
        <pt x="1245" y="-6" on="0"/>
        <pt x="1239" y="0" on="1"/>
        <pt x="1041" y="198" on="1"/>
        <pt x="285" y="198" on="1"/>
        <pt x="86" y="0" on="1"/>
        <pt x="80" y="-6" on="0"/>
        <pt x="72" y="-6" on="1"/>
        <pt x="65" y="-6" on="0"/>
        <pt x="51" y="6" on="0"/>
        <pt x="51" y="14" on="1"/>
        <pt x="51" y="22" on="0"/>
        <pt x="58" y="29" on="1"/>
        <pt x="227" y="198" on="1"/>
        <pt x="170" y="198" on="1"/>
        <pt x="158" y="198" on="0"/>
        <pt x="150" y="213" on="0"/>
        <pt x="150" y="218" on="1"/>
        <pt x="150" y="238" on="0"/>
        <pt x="170" y="238" on="1"/>
      </contour>
      <contour>
        <pt x="1001" y="238" on="1"/>
        <pt x="671" y="568" on="1"/>
        <pt x="654" y="568" on="1"/>
        <pt x="325" y="238" on="1"/>
      </contour>
    </TTGlyph>
    <TTGlyph name="AE" xMin="51" yMin="-6" xMax="1335" yMax="608">
      <contour>
        <pt x="673" y="198" on="1"/>
        <pt x="673" y="34" on="1"/>
        <pt x="1308" y="34" on="1"/>
        <pt x="1319" y="34" on="0"/>
        <pt x="1327" y="19" on="0"/>
        <pt x="1327" y="14" on="1"/>
        <pt x="1327" y="-6" on="0"/>
        <pt x="1308" y="-6" on="1"/>
        <pt x="653" y="-6" on="1"/>
        <pt x="633" y="-6" on="0"/>
        <pt x="633" y="14" on="1"/>
        <pt x="633" y="198" on="1"/>
        <pt x="285" y="198" on="1"/>
        <pt x="86" y="0" on="1"/>
        <pt x="80" y="-6" on="0"/>
        <pt x="72" y="-6" on="1"/>
        <pt x="65" y="-6" on="0"/>
        <pt x="51" y="6" on="0"/>
        <pt x="51" y="14" on="1"/>
        <pt x="51" y="22" on="0"/>
        <pt x="58" y="29" on="1"/>
        <pt x="227" y="198" on="1"/>
        <pt x="139" y="198" on="1"/>
        <pt x="128" y="198" on="0"/>
        <pt x="120" y="213" on="0"/>
        <pt x="120" y="218" on="1"/>
        <pt x="120" y="238" on="0"/>
        <pt x="139" y="238" on="1"/>
        <pt x="267" y="238" on="1"/>
        <pt x="631" y="602" on="1"/>
        <pt x="636" y="607" on="0"/>
        <pt x="648" y="607" on="1"/>
        <pt x="653" y="608" on="1"/>
        <pt x="1315" y="608" on="1"/>
        <pt x="1327" y="608" on="0"/>
        <pt x="1335" y="593" on="0"/>
        <pt x="1335" y="588" on="1"/>
        <pt x="1335" y="568" on="0"/>
        <pt x="1315" y="568" on="1"/>
        <pt x="673" y="568" on="1"/>
        <pt x="673" y="238" on="1"/>
        <pt x="1183" y="238" on="1"/>
        <pt x="1195" y="238" on="0"/>
        <pt x="1203" y="223" on="0"/>
        <pt x="1203" y="218" on="1"/>
        <pt x="1203" y="198" on="0"/>
        <pt x="1183" y="198" on="1"/>
      </contour>
      <contour>
        <pt x="633" y="238" on="1"/>
        <pt x="633" y="546" on="1"/>
        <pt x="325" y="238" on="1"/>
      </contour>
    </TTGlyph>
    <TTGlyph name="Aacute" xMin="51" yMin="-6" xMax="1274" yMax="770">
      <component glyphName="A" x="0" y="0" flags="0x4"/>
      <component glyphName="acute" x="582" y="189" flags="0x4"/>
    </TTGlyph>
    <TTGlyph name="Acircumflex" xMin="34" yMin="-6" xMax="1256" yMax="763">
      <contour>
        <pt x="557" y="683" on="1"/>
        <pt x="630" y="757" on="1"/>
        <pt x="636" y="763" on="0"/>
        <pt x="645" y="763" on="1"/>
        <pt x="653" y="763" on="0"/>
        <pt x="659" y="757" on="1"/>
        <pt x="733" y="683" on="1"/>
        <pt x="739" y="677" on="0"/>
        <pt x="739" y="669" on="1"/>
        <pt x="739" y="661" on="0"/>
        <pt x="726" y="648" on="0"/>
        <pt x="717" y="648" on="1"/>
        <pt x="710" y="648" on="0"/>
        <pt x="704" y="654" on="1"/>
        <pt x="645" y="714" on="1"/>
        <pt x="586" y="654" on="1"/>
        <pt x="580" y="648" on="0"/>
        <pt x="572" y="648" on="1"/>
        <pt x="564" y="648" on="0"/>
        <pt x="551" y="661" on="0"/>
        <pt x="551" y="670" on="1"/>
        <pt x="551" y="677" on="0"/>
      </contour>
      <contour>
        <pt x="250" y="238" on="1"/>
        <pt x="614" y="602" on="1"/>
        <pt x="619" y="608" on="0"/>
        <pt x="628" y="608" on="1"/>
        <pt x="662" y="608" on="1"/>
        <pt x="671" y="608" on="0"/>
        <pt x="677" y="602" on="1"/>
        <pt x="1250" y="29" on="1"/>
        <pt x="1256" y="23" on="0"/>
        <pt x="1256" y="15" on="1"/>
        <pt x="1256" y="6" on="0"/>
        <pt x="1244" y="-6" on="0"/>
        <pt x="1235" y="-6" on="1"/>
        <pt x="1228" y="-6" on="0"/>
        <pt x="1222" y="0" on="1"/>
        <pt x="1023" y="198" on="1"/>
        <pt x="267" y="198" on="1"/>
        <pt x="69" y="0" on="1"/>
        <pt x="63" y="-6" on="0"/>
        <pt x="55" y="-6" on="1"/>
        <pt x="46" y="-6" on="0"/>
        <pt x="34" y="6" on="0"/>
        <pt x="34" y="15" on="1"/>
        <pt x="34" y="23" on="0"/>
        <pt x="40" y="29" on="1"/>
        <pt x="210" y="198" on="1"/>
        <pt x="152" y="198" on="1"/>
        <pt x="141" y="198" on="0"/>
        <pt x="133" y="213" on="0"/>
        <pt x="133" y="218" on="1"/>
        <pt x="133" y="238" on="0"/>
        <pt x="152" y="238" on="1"/>
      </contour>
      <contour>
        <pt x="983" y="238" on="1"/>
        <pt x="654" y="568" on="1"/>
        <pt x="637" y="568" on="1"/>
        <pt x="307" y="238" on="1"/>
      </contour>
    </TTGlyph>
    <TTGlyph name="Adieresis" xMin="51" yMin="-6" xMax="1274" yMax="790">
      <component glyphName="A" x="0" y="0" flags="0x4"/>
      <component glyphName="dieresis" x="544" y="192" flags="0x4"/>
    </TTGlyph>
    <TTGlyph name="Agrave" xMin="51" yMin="-6" xMax="1274" yMax="767">
      <component glyphName="A" x="0" y="0" flags="0x4"/>
      <component glyphName="grave" x="589" y="186" flags="0x4"/>
    </TTGlyph>
    <TTGlyph name="Atilde" xMin="18" yMin="-6" xMax="1240" yMax="750">
      <contour>
        <pt x="524" y="672" on="1"/>
        <pt x="597" y="746" on="1"/>
        <pt x="601" y="750" on="0"/>
        <pt x="607" y="750" on="1"/>
        <pt x="612" y="750" on="0"/>
        <pt x="616" y="746" on="1"/>
        <pt x="680" y="682" on="1"/>
        <pt x="745" y="746" on="1"/>
        <pt x="750" y="749" on="0"/>
        <pt x="754" y="749" on="1"/>
        <pt x="768" y="749" on="0"/>
        <pt x="768" y="735" on="1"/>
        <pt x="768" y="730" on="0"/>
        <pt x="764" y="726" on="1"/>
        <pt x="690" y="653" on="1"/>
        <pt x="686" y="649" on="0"/>
        <pt x="679" y="649" on="1"/>
        <pt x="674" y="649" on="0"/>
        <pt x="670" y="653" on="1"/>
        <pt x="606" y="717" on="1"/>
        <pt x="543" y="653" on="1"/>
        <pt x="539" y="649" on="0"/>
        <pt x="534" y="649" on="1"/>
        <pt x="521" y="649" on="0"/>
        <pt x="521" y="664" on="1"/>
        <pt x="521" y="669" on="0"/>
      </contour>
      <contour>
        <pt x="234" y="238" on="1"/>
        <pt x="598" y="602" on="1"/>
        <pt x="603" y="608" on="0"/>
        <pt x="612" y="608" on="1"/>
        <pt x="646" y="608" on="1"/>
        <pt x="655" y="608" on="0"/>
        <pt x="661" y="602" on="1"/>
        <pt x="1234" y="29" on="1"/>
        <pt x="1240" y="23" on="0"/>
        <pt x="1240" y="15" on="1"/>
        <pt x="1240" y="6" on="0"/>
        <pt x="1228" y="-6" on="0"/>
        <pt x="1219" y="-6" on="1"/>
        <pt x="1212" y="-6" on="0"/>
        <pt x="1206" y="0" on="1"/>
        <pt x="1007" y="198" on="1"/>
        <pt x="251" y="198" on="1"/>
        <pt x="53" y="0" on="1"/>
        <pt x="47" y="-6" on="0"/>
        <pt x="39" y="-6" on="1"/>
        <pt x="30" y="-6" on="0"/>
        <pt x="18" y="6" on="0"/>
        <pt x="18" y="15" on="1"/>
        <pt x="18" y="23" on="0"/>
        <pt x="24" y="29" on="1"/>
        <pt x="194" y="198" on="1"/>
        <pt x="136" y="198" on="1"/>
        <pt x="125" y="198" on="0"/>
        <pt x="117" y="213" on="0"/>
        <pt x="117" y="218" on="1"/>
        <pt x="117" y="238" on="0"/>
        <pt x="136" y="238" on="1"/>
      </contour>
      <contour>
        <pt x="967" y="238" on="1"/>
        <pt x="638" y="568" on="1"/>
        <pt x="621" y="568" on="1"/>
        <pt x="291" y="238" on="1"/>
      </contour>
    </TTGlyph>
    <TTGlyph name="B" xMin="41" yMin="-6" xMax="873" yMax="608">
      <contour>
        <pt x="98" y="521" on="1"/>
        <pt x="98" y="529" on="0"/>
        <pt x="104" y="535" on="1"/>
        <pt x="171" y="602" on="1"/>
        <pt x="177" y="608" on="0"/>
        <pt x="186" y="608" on="1"/>
        <pt x="719" y="608" on="1"/>
        <pt x="729" y="608" on="0"/>
        <pt x="734" y="602" on="1"/>
        <pt x="836" y="499" on="1"/>
        <pt x="842" y="491" on="0"/>
        <pt x="842" y="485" on="1"/>
        <pt x="842" y="252" on="1"/>
        <pt x="842" y="243" on="0"/>
        <pt x="836" y="238" on="1"/>
        <pt x="802" y="204" on="1"/>
        <pt x="797" y="198" on="0"/>
        <pt x="788" y="198" on="1"/>
        <pt x="139" y="198" on="1"/>
        <pt x="138" y="34" on="1"/>
        <pt x="774" y="34" on="1"/>
        <pt x="833" y="93" on="1"/>
        <pt x="833" y="145" on="1"/>
        <pt x="804" y="172" on="1"/>
        <pt x="798" y="178" on="0"/>
        <pt x="798" y="186" on="1"/>
        <pt x="798" y="195" on="0"/>
        <pt x="810" y="207" on="0"/>
        <pt x="819" y="207" on="1"/>
        <pt x="827" y="207" on="0"/>
        <pt x="833" y="201" on="1"/>
        <pt x="867" y="168" on="1"/>
        <pt x="873" y="162" on="0"/>
        <pt x="873" y="154" on="1"/>
        <pt x="873" y="84" on="1"/>
        <pt x="873" y="75" on="0"/>
        <pt x="867" y="70" on="1"/>
        <pt x="798" y="0" on="1"/>
        <pt x="792" y="-6" on="0"/>
        <pt x="783" y="-6" on="1"/>
        <pt x="118" y="-6" on="1"/>
        <pt x="98" y="-6" on="0"/>
        <pt x="98" y="14" on="1"/>
        <pt x="99" y="198" on="1"/>
        <pt x="61" y="198" on="1"/>
        <pt x="49" y="198" on="0"/>
        <pt x="41" y="213" on="0"/>
        <pt x="41" y="218" on="1"/>
        <pt x="41" y="238" on="0"/>
        <pt x="61" y="238" on="1"/>
        <pt x="99" y="238" on="1"/>
      </contour>
      <contour>
        <pt x="139" y="238" on="1"/>
        <pt x="779" y="238" on="1"/>
        <pt x="802" y="261" on="1"/>
        <pt x="802" y="476" on="1"/>
        <pt x="710" y="568" on="1"/>
        <pt x="194" y="568" on="1"/>
        <pt x="138" y="512" on="1"/>
      </contour>
    </TTGlyph>
    <TTGlyph name="C" xMin="59" yMin="-6" xMax="937" yMax="608">
      <contour>
        <pt x="937" y="127" on="1"/>
        <pt x="937" y="79" on="1"/>
        <pt x="937" y="71" on="0"/>
        <pt x="930" y="65" on="1"/>
        <pt x="863" y="0" on="1"/>
        <pt x="855" y="-6" on="0"/>
        <pt x="850" y="-6" on="1"/>
        <pt x="185" y="-6" on="1"/>
        <pt x="176" y="-6" on="0"/>
        <pt x="170" y="1" on="1"/>
        <pt x="65" y="109" on="1"/>
        <pt x="59" y="117" on="0"/>
        <pt x="59" y="122" on="1"/>
        <pt x="59" y="483" on="1"/>
        <pt x="59" y="493" on="0"/>
        <pt x="65" y="498" on="1"/>
        <pt x="170" y="602" on="1"/>
        <pt x="178" y="608" on="0"/>
        <pt x="185" y="608" on="1"/>
        <pt x="785" y="608" on="1"/>
        <pt x="793" y="608" on="0"/>
        <pt x="799" y="602" on="1"/>
        <pt x="864" y="534" on="1"/>
        <pt x="870" y="528" on="0"/>
        <pt x="870" y="521" on="1"/>
        <pt x="870" y="482" on="1"/>
        <pt x="870" y="471" on="0"/>
        <pt x="855" y="463" on="0"/>
        <pt x="850" y="463" on="1"/>
        <pt x="830" y="463" on="0"/>
        <pt x="830" y="482" on="1"/>
        <pt x="830" y="513" on="1"/>
        <pt x="777" y="568" on="1"/>
        <pt x="194" y="568" on="1"/>
        <pt x="99" y="474" on="1"/>
        <pt x="99" y="130" on="1"/>
        <pt x="193" y="34" on="1"/>
        <pt x="842" y="34" on="1"/>
        <pt x="897" y="87" on="1"/>
        <pt x="897" y="127" on="1"/>
        <pt x="897" y="139" on="0"/>
        <pt x="912" y="147" on="0"/>
        <pt x="917" y="147" on="1"/>
        <pt x="937" y="147" on="0"/>
      </contour>
    </TTGlyph>
    <TTGlyph name="Ccedilla" xMin="47" yMin="-150" xMax="925" yMax="608">
      <contour>
        <pt x="460" y="-6" on="1"/>
        <pt x="455" y="-6" on="1"/>
        <pt x="173" y="-6" on="1"/>
        <pt x="164" y="-6" on="0"/>
        <pt x="158" y="1" on="1"/>
        <pt x="53" y="109" on="1"/>
        <pt x="47" y="117" on="0"/>
        <pt x="47" y="122" on="1"/>
        <pt x="47" y="483" on="1"/>
        <pt x="47" y="493" on="0"/>
        <pt x="53" y="498" on="1"/>
        <pt x="158" y="602" on="1"/>
        <pt x="166" y="608" on="0"/>
        <pt x="173" y="608" on="1"/>
        <pt x="773" y="608" on="1"/>
        <pt x="781" y="608" on="0"/>
        <pt x="787" y="602" on="1"/>
        <pt x="852" y="534" on="1"/>
        <pt x="858" y="528" on="0"/>
        <pt x="858" y="521" on="1"/>
        <pt x="858" y="482" on="1"/>
        <pt x="858" y="471" on="0"/>
        <pt x="843" y="463" on="0"/>
        <pt x="838" y="463" on="1"/>
        <pt x="818" y="463" on="0"/>
        <pt x="818" y="482" on="1"/>
        <pt x="818" y="513" on="1"/>
        <pt x="765" y="568" on="1"/>
        <pt x="182" y="568" on="1"/>
        <pt x="87" y="474" on="1"/>
        <pt x="87" y="130" on="1"/>
        <pt x="181" y="34" on="1"/>
        <pt x="830" y="34" on="1"/>
        <pt x="885" y="87" on="1"/>
        <pt x="885" y="127" on="1"/>
        <pt x="885" y="139" on="0"/>
        <pt x="900" y="147" on="0"/>
        <pt x="905" y="147" on="1"/>
        <pt x="925" y="147" on="0"/>
        <pt x="925" y="127" on="1"/>
        <pt x="925" y="79" on="1"/>
        <pt x="925" y="71" on="0"/>
        <pt x="918" y="65" on="1"/>
        <pt x="851" y="0" on="1"/>
        <pt x="843" y="-6" on="0"/>
        <pt x="838" y="-6" on="1"/>
        <pt x="536" y="-6" on="1"/>
        <pt x="552" y="-30" on="0"/>
        <pt x="552" y="-58" on="1"/>
        <pt x="552" y="-96" on="0"/>
        <pt x="498" y="-150" on="0"/>
        <pt x="460" y="-150" on="1"/>
        <pt x="422" y="-150" on="0"/>
        <pt x="368" y="-96" on="0"/>
        <pt x="368" y="-58" on="1"/>
        <pt x="368" y="-46" on="0"/>
        <pt x="383" y="-38" on="0"/>
        <pt x="388" y="-38" on="1"/>
        <pt x="408" y="-38" on="0"/>
        <pt x="408" y="-58" on="1"/>
        <pt x="408" y="-79" on="0"/>
        <pt x="439" y="-110" on="0"/>
        <pt x="460" y="-110" on="1"/>
        <pt x="482" y="-110" on="0"/>
        <pt x="512" y="-80" on="0"/>
        <pt x="512" y="-58" on="1"/>
        <pt x="512" y="-36" on="0"/>
        <pt x="482" y="-6" on="0"/>
      </contour>
    </TTGlyph>
    <TTGlyph name="D" xMin="54" yMin="-6" xMax="793" yMax="608">
      <contour>
        <pt x="54" y="14" on="1"/>
        <pt x="54" y="516" on="1"/>
        <pt x="54" y="522" on="0"/>
        <pt x="60" y="530" on="1"/>
        <pt x="130" y="602" on="1"/>
        <pt x="136" y="608" on="0"/>
        <pt x="144" y="608" on="1"/>
        <pt x="666" y="608" on="1"/>
        <pt x="675" y="608" on="0"/>
        <pt x="681" y="602" on="1"/>
        <pt x="787" y="491" on="1"/>
        <pt x="793" y="483" on="0"/>
        <pt x="793" y="478" on="1"/>
        <pt x="793" y="120" on="1"/>
        <pt x="793" y="114" on="0"/>
        <pt x="787" y="106" on="1"/>
        <pt x="684" y="1" on="1"/>
        <pt x="678" y="-6" on="0"/>
        <pt x="670" y="-6" on="1"/>
        <pt x="74" y="-6" on="1"/>
        <pt x="54" y="-6" on="0"/>
      </contour>
      <contour>
        <pt x="662" y="34" on="1"/>
        <pt x="753" y="128" on="1"/>
        <pt x="753" y="470" on="1"/>
        <pt x="658" y="568" on="1"/>
        <pt x="152" y="568" on="1"/>
        <pt x="94" y="508" on="1"/>
        <pt x="94" y="34" on="1"/>
      </contour>
    </TTGlyph>
    <TTGlyph name="E" xMin="25" yMin="-6" xMax="837" yMax="608">
      <contour>
        <pt x="137" y="198" on="1"/>
        <pt x="137" y="34" on="1"/>
        <pt x="810" y="34" on="1"/>
        <pt x="822" y="34" on="0"/>
        <pt x="830" y="19" on="0"/>
        <pt x="830" y="14" on="1"/>
        <pt x="830" y="-6" on="0"/>
        <pt x="810" y="-6" on="1"/>
        <pt x="117" y="-6" on="1"/>
        <pt x="97" y="-6" on="0"/>
        <pt x="97" y="14" on="1"/>
        <pt x="97" y="198" on="1"/>
        <pt x="45" y="198" on="1"/>
        <pt x="33" y="198" on="0"/>
        <pt x="25" y="213" on="0"/>
        <pt x="25" y="218" on="1"/>
        <pt x="25" y="238" on="0"/>
        <pt x="45" y="238" on="1"/>
        <pt x="97" y="238" on="1"/>
        <pt x="97" y="554" on="1"/>
        <pt x="97" y="564" on="0"/>
        <pt x="104" y="570" on="1"/>
        <pt x="142" y="603" on="1"/>
        <pt x="148" y="608" on="0"/>
        <pt x="155" y="608" on="1"/>
        <pt x="818" y="608" on="1"/>
        <pt x="829" y="608" on="0"/>
        <pt x="837" y="593" on="0"/>
        <pt x="837" y="588" on="1"/>
        <pt x="837" y="568" on="0"/>
        <pt x="818" y="568" on="1"/>
        <pt x="162" y="568" on="1"/>
        <pt x="137" y="546" on="1"/>
        <pt x="137" y="238" on="1"/>
        <pt x="686" y="238" on="1"/>
        <pt x="697" y="238" on="0"/>
        <pt x="705" y="223" on="0"/>
        <pt x="705" y="218" on="1"/>
        <pt x="705" y="198" on="0"/>
        <pt x="686" y="198" on="1"/>
      </contour>
    </TTGlyph>
    <TTGlyph name="Eacute" xMin="25" yMin="-6" xMax="837" yMax="770">
      <component glyphName="E" x="0" y="0" flags="0x4"/>
      <component glyphName="acute" x="410" y="189" flags="0x4"/>
    </TTGlyph>
    <TTGlyph name="Ecircumflex" xMin="14" yMin="-6" xMax="826" yMax="763">
      <contour>
        <pt x="378" y="683" on="1"/>
        <pt x="451" y="757" on="1"/>
        <pt x="457" y="763" on="0"/>
        <pt x="466" y="763" on="1"/>
        <pt x="472" y="763" on="0"/>
        <pt x="480" y="757" on="1"/>
        <pt x="554" y="683" on="1"/>
        <pt x="560" y="677" on="0"/>
        <pt x="560" y="669" on="1"/>
        <pt x="560" y="661" on="0"/>
        <pt x="547" y="648" on="0"/>
        <pt x="538" y="648" on="1"/>
        <pt x="531" y="648" on="0"/>
        <pt x="525" y="654" on="1"/>
        <pt x="466" y="714" on="1"/>
        <pt x="406" y="654" on="1"/>
        <pt x="400" y="648" on="0"/>
        <pt x="392" y="648" on="1"/>
        <pt x="384" y="648" on="0"/>
        <pt x="371" y="661" on="0"/>
        <pt x="371" y="669" on="1"/>
        <pt x="371" y="677" on="0"/>
      </contour>
      <contour>
        <pt x="126" y="198" on="1"/>
        <pt x="126" y="34" on="1"/>
        <pt x="799" y="34" on="1"/>
        <pt x="811" y="34" on="0"/>
        <pt x="819" y="19" on="0"/>
        <pt x="819" y="14" on="1"/>
        <pt x="819" y="-6" on="0"/>
        <pt x="799" y="-6" on="1"/>
        <pt x="106" y="-6" on="1"/>
        <pt x="86" y="-6" on="0"/>
        <pt x="86" y="14" on="1"/>
        <pt x="86" y="198" on="1"/>
        <pt x="34" y="198" on="1"/>
        <pt x="22" y="198" on="0"/>
        <pt x="14" y="213" on="0"/>
        <pt x="14" y="218" on="1"/>
        <pt x="14" y="238" on="0"/>
        <pt x="34" y="238" on="1"/>
        <pt x="86" y="238" on="1"/>
        <pt x="86" y="554" on="1"/>
        <pt x="86" y="564" on="0"/>
        <pt x="93" y="570" on="1"/>
        <pt x="131" y="603" on="1"/>
        <pt x="137" y="608" on="0"/>
        <pt x="144" y="608" on="1"/>
        <pt x="806" y="608" on="1"/>
        <pt x="818" y="608" on="0"/>
        <pt x="826" y="593" on="0"/>
        <pt x="826" y="588" on="1"/>
        <pt x="826" y="568" on="0"/>
        <pt x="806" y="568" on="1"/>
        <pt x="151" y="568" on="1"/>
        <pt x="126" y="546" on="1"/>
        <pt x="126" y="238" on="1"/>
        <pt x="674" y="238" on="1"/>
        <pt x="686" y="238" on="0"/>
        <pt x="694" y="223" on="0"/>
        <pt x="694" y="218" on="1"/>
        <pt x="694" y="198" on="0"/>
        <pt x="674" y="198" on="1"/>
      </contour>
    </TTGlyph>
    <TTGlyph name="Edieresis" xMin="25" yMin="-6" xMax="837" yMax="790">
      <component glyphName="E" x="0" y="0" flags="0x4"/>
      <component glyphName="dieresis" x="394" y="192" flags="0x4"/>
    </TTGlyph>
    <TTGlyph name="Egrave" xMin="25" yMin="-6" xMax="837" yMax="767">
      <component glyphName="E" x="0" y="0" flags="0x4"/>
      <component glyphName="grave" x="422" y="186" flags="0x4"/>
    </TTGlyph>
    <TTGlyph name="F" xMin="43" yMin="-5" xMax="850" yMax="608">
      <contour>
        <pt x="107" y="238" on="1"/>
        <pt x="107" y="550" on="1"/>
        <pt x="107" y="555" on="0"/>
        <pt x="113" y="563" on="1"/>
        <pt x="149" y="602" on="1"/>
        <pt x="155" y="608" on="0"/>
        <pt x="163" y="608" on="1"/>
        <pt x="830" y="608" on="1"/>
        <pt x="842" y="608" on="0"/>
        <pt x="850" y="593" on="0"/>
        <pt x="850" y="588" on="1"/>
        <pt x="850" y="568" on="0"/>
        <pt x="830" y="568" on="1"/>
        <pt x="172" y="568" on="1"/>
        <pt x="147" y="542" on="1"/>
        <pt x="147" y="238" on="1"/>
        <pt x="739" y="238" on="1"/>
        <pt x="751" y="238" on="0"/>
        <pt x="759" y="223" on="0"/>
        <pt x="759" y="218" on="1"/>
        <pt x="759" y="198" on="0"/>
        <pt x="739" y="198" on="1"/>
        <pt x="147" y="198" on="1"/>
        <pt x="147" y="14" on="1"/>
        <pt x="147" y="3" on="0"/>
        <pt x="132" y="-5" on="0"/>
        <pt x="127" y="-5" on="1"/>
        <pt x="107" y="-5" on="0"/>
        <pt x="107" y="14" on="1"/>
        <pt x="107" y="198" on="1"/>
        <pt x="62" y="198" on="1"/>
        <pt x="51" y="198" on="0"/>
        <pt x="43" y="213" on="0"/>
        <pt x="43" y="218" on="1"/>
        <pt x="43" y="238" on="0"/>
        <pt x="62" y="238" on="1"/>
      </contour>
    </TTGlyph>
    <TTGlyph name="G" xMin="47" yMin="-106" xMax="922" yMax="603">
      <contour>
        <pt x="922" y="89" on="1"/>
        <pt x="922" y="82" on="1"/>
        <pt x="922" y="-86" on="1"/>
        <pt x="922" y="-98" on="0"/>
        <pt x="907" y="-106" on="0"/>
        <pt x="902" y="-106" on="1"/>
        <pt x="882" y="-106" on="0"/>
        <pt x="882" y="-86" on="1"/>
        <pt x="882" y="38" on="1"/>
        <pt x="847" y="2" on="1"/>
        <pt x="841" y="-3" on="0"/>
        <pt x="833" y="-3" on="1"/>
        <pt x="168" y="-3" on="1"/>
        <pt x="159" y="-3" on="0"/>
        <pt x="154" y="2" on="1"/>
        <pt x="53" y="103" on="1"/>
        <pt x="47" y="109" on="0"/>
        <pt x="47" y="118" on="1"/>
        <pt x="47" y="483" on="1"/>
        <pt x="47" y="493" on="0"/>
        <pt x="53" y="498" on="1"/>
        <pt x="154" y="598" on="1"/>
        <pt x="159" y="603" on="0"/>
        <pt x="168" y="603" on="1"/>
        <pt x="770" y="603" on="1"/>
        <pt x="778" y="603" on="0"/>
        <pt x="784" y="598" on="1"/>
        <pt x="849" y="535" on="1"/>
        <pt x="855" y="530" on="0"/>
        <pt x="855" y="521" on="1"/>
        <pt x="855" y="482" on="1"/>
        <pt x="855" y="471" on="0"/>
        <pt x="840" y="463" on="0"/>
        <pt x="835" y="463" on="1"/>
        <pt x="815" y="463" on="0"/>
        <pt x="815" y="482" on="1"/>
        <pt x="815" y="513" on="1"/>
        <pt x="762" y="563" on="1"/>
        <pt x="177" y="563" on="1"/>
        <pt x="87" y="474" on="1"/>
        <pt x="87" y="126" on="1"/>
        <pt x="177" y="37" on="1"/>
        <pt x="824" y="37" on="1"/>
        <pt x="882" y="95" on="1"/>
        <pt x="882" y="176" on="1"/>
        <pt x="860" y="198" on="1"/>
        <pt x="418" y="198" on="1"/>
        <pt x="418" y="175" on="1"/>
        <pt x="418" y="164" on="0"/>
        <pt x="403" y="156" on="0"/>
        <pt x="398" y="156" on="1"/>
        <pt x="378" y="156" on="0"/>
        <pt x="378" y="175" on="1"/>
        <pt x="378" y="257" on="1"/>
        <pt x="378" y="268" on="0"/>
        <pt x="393" y="276" on="0"/>
        <pt x="398" y="276" on="1"/>
        <pt x="418" y="276" on="0"/>
        <pt x="418" y="257" on="1"/>
        <pt x="418" y="238" on="1"/>
        <pt x="869" y="238" on="1"/>
        <pt x="878" y="238" on="0"/>
        <pt x="883" y="233" on="1"/>
        <pt x="917" y="199" on="1"/>
        <pt x="922" y="194" on="0"/>
        <pt x="922" y="185" on="1"/>
      </contour>
    </TTGlyph>
    <TTGlyph name="H" xMin="36" yMin="-5" xMax="766" yMax="607">
      <contour>
        <pt x="152" y="238" on="1"/>
        <pt x="726" y="238" on="1"/>
        <pt x="726" y="588" on="1"/>
        <pt x="726" y="599" on="0"/>
        <pt x="741" y="607" on="0"/>
        <pt x="746" y="607" on="1"/>
        <pt x="766" y="607" on="0"/>
        <pt x="766" y="588" on="1"/>
        <pt x="766" y="14" on="1"/>
        <pt x="766" y="3" on="0"/>
        <pt x="751" y="-5" on="0"/>
        <pt x="746" y="-5" on="1"/>
        <pt x="726" y="-5" on="0"/>
        <pt x="726" y="14" on="1"/>
        <pt x="726" y="198" on="1"/>
        <pt x="152" y="198" on="1"/>
        <pt x="152" y="14" on="1"/>
        <pt x="152" y="3" on="0"/>
        <pt x="137" y="-5" on="0"/>
        <pt x="132" y="-5" on="1"/>
        <pt x="112" y="-5" on="0"/>
        <pt x="112" y="14" on="1"/>
        <pt x="112" y="198" on="1"/>
        <pt x="55" y="198" on="1"/>
        <pt x="44" y="198" on="0"/>
        <pt x="36" y="213" on="0"/>
        <pt x="36" y="218" on="1"/>
        <pt x="36" y="238" on="0"/>
        <pt x="55" y="238" on="1"/>
        <pt x="112" y="238" on="1"/>
        <pt x="112" y="588" on="1"/>
        <pt x="112" y="599" on="0"/>
        <pt x="127" y="607" on="0"/>
        <pt x="132" y="607" on="1"/>
        <pt x="152" y="607" on="0"/>
        <pt x="152" y="588" on="1"/>
      </contour>
    </TTGlyph>
    <TTGlyph name="I" xMin="47" yMin="-6" xMax="746" yMax="608">
      <contour>
        <pt x="398" y="568" on="1"/>
        <pt x="398" y="34" on="1"/>
        <pt x="726" y="34" on="1"/>
        <pt x="738" y="34" on="0"/>
        <pt x="746" y="19" on="0"/>
        <pt x="746" y="14" on="1"/>
        <pt x="746" y="-6" on="0"/>
        <pt x="726" y="-6" on="1"/>
        <pt x="74" y="-6" on="1"/>
        <pt x="62" y="-6" on="0"/>
        <pt x="54" y="9" on="0"/>
        <pt x="54" y="14" on="1"/>
        <pt x="54" y="34" on="0"/>
        <pt x="74" y="34" on="1"/>
        <pt x="358" y="34" on="1"/>
        <pt x="358" y="568" on="1"/>
        <pt x="66" y="568" on="1"/>
        <pt x="55" y="568" on="0"/>
        <pt x="47" y="583" on="0"/>
        <pt x="47" y="588" on="1"/>
        <pt x="47" y="608" on="0"/>
        <pt x="66" y="608" on="1"/>
        <pt x="726" y="608" on="1"/>
        <pt x="738" y="608" on="0"/>
        <pt x="746" y="593" on="0"/>
        <pt x="746" y="588" on="1"/>
        <pt x="746" y="568" on="0"/>
        <pt x="726" y="568" on="1"/>
      </contour>
    </TTGlyph>
    <TTGlyph name="Iacute" xMin="47" yMin="-6" xMax="746" yMax="768">
      <component glyphName="I" x="0" y="0" flags="0x4"/>
      <component glyphName="acute" x="307" y="187" flags="0x4"/>
    </TTGlyph>
    <TTGlyph name="Icircumflex" xMin="36" yMin="-6" xMax="735" yMax="763">
      <contour>
        <pt x="282" y="683" on="1"/>
        <pt x="355" y="757" on="1"/>
        <pt x="361" y="763" on="0"/>
        <pt x="370" y="763" on="1"/>
        <pt x="376" y="763" on="0"/>
        <pt x="384" y="757" on="1"/>
        <pt x="458" y="683" on="1"/>
        <pt x="464" y="677" on="0"/>
        <pt x="464" y="669" on="1"/>
        <pt x="464" y="661" on="0"/>
        <pt x="451" y="648" on="0"/>
        <pt x="442" y="648" on="1"/>
        <pt x="435" y="648" on="0"/>
        <pt x="429" y="654" on="1"/>
        <pt x="370" y="714" on="1"/>
        <pt x="310" y="654" on="1"/>
        <pt x="304" y="648" on="0"/>
        <pt x="296" y="648" on="1"/>
        <pt x="288" y="648" on="0"/>
        <pt x="275" y="661" on="0"/>
        <pt x="275" y="669" on="1"/>
        <pt x="275" y="677" on="0"/>
      </contour>
      <contour>
        <pt x="387" y="568" on="1"/>
        <pt x="387" y="34" on="1"/>
        <pt x="715" y="34" on="1"/>
        <pt x="727" y="34" on="0"/>
        <pt x="735" y="19" on="0"/>
        <pt x="735" y="14" on="1"/>
        <pt x="735" y="-6" on="0"/>
        <pt x="715" y="-6" on="1"/>
        <pt x="62" y="-6" on="1"/>
        <pt x="51" y="-6" on="0"/>
        <pt x="43" y="9" on="0"/>
        <pt x="43" y="14" on="1"/>
        <pt x="43" y="34" on="0"/>
        <pt x="62" y="34" on="1"/>
        <pt x="347" y="34" on="1"/>
        <pt x="347" y="568" on="1"/>
        <pt x="55" y="568" on="1"/>
        <pt x="44" y="568" on="0"/>
        <pt x="36" y="583" on="0"/>
        <pt x="36" y="588" on="1"/>
        <pt x="36" y="608" on="0"/>
        <pt x="55" y="608" on="1"/>
        <pt x="715" y="608" on="1"/>
        <pt x="727" y="608" on="0"/>
        <pt x="735" y="593" on="0"/>
        <pt x="735" y="588" on="1"/>
        <pt x="735" y="568" on="0"/>
        <pt x="715" y="568" on="1"/>
      </contour>
    </TTGlyph>
    <TTGlyph name="Idieresis" xMin="47" yMin="-6" xMax="746" yMax="790">
      <component glyphName="I" x="0" y="0" flags="0x4"/>
      <component glyphName="dieresis" x="261" y="192" flags="0x4"/>
    </TTGlyph>
    <TTGlyph name="Igrave" xMin="47" yMin="-6" xMax="746" yMax="768">
      <component glyphName="I" x="0" y="0" flags="0x4"/>
      <component glyphName="grave" x="307" y="187" flags="0x4"/>
    </TTGlyph>
    <TTGlyph name="J" xMin="43" yMin="-6" xMax="650" yMax="607">
      <contour>
        <pt x="650" y="588" on="1"/>
        <pt x="650" y="120" on="1"/>
        <pt x="650" y="112" on="0"/>
        <pt x="644" y="106" on="1"/>
        <pt x="539" y="0" on="1"/>
        <pt x="534" y="-6" on="0"/>
        <pt x="525" y="-6" on="1"/>
        <pt x="169" y="-6" on="1"/>
        <pt x="160" y="-6" on="0"/>
        <pt x="154" y="0" on="1"/>
        <pt x="49" y="106" on="1"/>
        <pt x="43" y="111" on="0"/>
        <pt x="43" y="120" on="1"/>
        <pt x="43" y="317" on="1"/>
        <pt x="43" y="328" on="0"/>
        <pt x="58" y="336" on="0"/>
        <pt x="63" y="336" on="1"/>
        <pt x="83" y="336" on="0"/>
        <pt x="83" y="317" on="1"/>
        <pt x="83" y="129" on="1"/>
        <pt x="178" y="34" on="1"/>
        <pt x="516" y="34" on="1"/>
        <pt x="610" y="129" on="1"/>
        <pt x="610" y="588" on="1"/>
        <pt x="610" y="599" on="0"/>
        <pt x="625" y="607" on="0"/>
        <pt x="630" y="607" on="1"/>
        <pt x="650" y="607" on="0"/>
      </contour>
    </TTGlyph>
    <TTGlyph name="K" xMin="53" yMin="-6" xMax="666" yMax="608">
      <contour>
        <pt x="359" y="273" on="1"/>
        <pt x="87" y="0" on="1"/>
        <pt x="81" y="-6" on="0"/>
        <pt x="73" y="-6" on="1"/>
        <pt x="65" y="-6" on="0"/>
        <pt x="53" y="4" on="0"/>
        <pt x="53" y="14" on="1"/>
        <pt x="53" y="588" on="1"/>
        <pt x="53" y="599" on="0"/>
        <pt x="68" y="607" on="0"/>
        <pt x="73" y="607" on="1"/>
        <pt x="93" y="607" on="0"/>
        <pt x="93" y="588" on="1"/>
        <pt x="93" y="63" on="1"/>
        <pt x="631" y="602" on="1"/>
        <pt x="637" y="608" on="0"/>
        <pt x="645" y="608" on="1"/>
        <pt x="654" y="608" on="0"/>
        <pt x="666" y="596" on="0"/>
        <pt x="666" y="587" on="1"/>
        <pt x="666" y="580" on="0"/>
        <pt x="660" y="574" on="1"/>
        <pt x="388" y="302" on="1"/>
        <pt x="660" y="29" on="1"/>
        <pt x="666" y="23" on="0"/>
        <pt x="666" y="15" on="1"/>
        <pt x="666" y="7" on="0"/>
        <pt x="653" y="-6" on="0"/>
        <pt x="644" y="-6" on="1"/>
        <pt x="637" y="-6" on="0"/>
        <pt x="631" y="0" on="1"/>
      </contour>
    </TTGlyph>
    <TTGlyph name="L" xMin="52" yMin="-6" xMax="660" yMax="607">
      <contour>
        <pt x="92" y="588" on="1"/>
        <pt x="92" y="34" on="1"/>
        <pt x="641" y="34" on="1"/>
        <pt x="652" y="34" on="0"/>
        <pt x="660" y="19" on="0"/>
        <pt x="660" y="14" on="1"/>
        <pt x="660" y="-6" on="0"/>
        <pt x="641" y="-6" on="1"/>
        <pt x="72" y="-6" on="1"/>
        <pt x="52" y="-6" on="0"/>
        <pt x="52" y="14" on="1"/>
        <pt x="52" y="588" on="1"/>
        <pt x="52" y="599" on="0"/>
        <pt x="67" y="607" on="0"/>
        <pt x="72" y="607" on="1"/>
        <pt x="92" y="607" on="0"/>
      </contour>
    </TTGlyph>
    <TTGlyph name="M" xMin="62" yMin="-5" xMax="1069" yMax="608">
      <contour>
        <pt x="62" y="14" on="1"/>
        <pt x="62" y="588" on="1"/>
        <pt x="62" y="608" on="0"/>
        <pt x="82" y="608" on="1"/>
        <pt x="90" y="608" on="0"/>
        <pt x="96" y="602" on="1"/>
        <pt x="561" y="138" on="1"/>
        <pt x="569" y="138" on="1"/>
        <pt x="1034" y="602" on="1"/>
        <pt x="1040" y="608" on="0"/>
        <pt x="1048" y="608" on="1"/>
        <pt x="1057" y="608" on="0"/>
        <pt x="1069" y="598" on="0"/>
        <pt x="1069" y="588" on="1"/>
        <pt x="1069" y="14" on="1"/>
        <pt x="1069" y="3" on="0"/>
        <pt x="1054" y="-5" on="0"/>
        <pt x="1049" y="-5" on="1"/>
        <pt x="1029" y="-5" on="0"/>
        <pt x="1029" y="14" on="1"/>
        <pt x="1029" y="539" on="1"/>
        <pt x="592" y="103" on="1"/>
        <pt x="586" y="98" on="0"/>
        <pt x="578" y="98" on="1"/>
        <pt x="552" y="98" on="1"/>
        <pt x="542" y="98" on="0"/>
        <pt x="538" y="103" on="1"/>
        <pt x="102" y="539" on="1"/>
        <pt x="102" y="14" on="1"/>
        <pt x="102" y="3" on="0"/>
        <pt x="87" y="-5" on="0"/>
        <pt x="82" y="-5" on="1"/>
        <pt x="62" y="-5" on="0"/>
      </contour>
    </TTGlyph>
    <TTGlyph name="N" xMin="57" yMin="-5" xMax="663" yMax="608">
      <contour>
        <pt x="57" y="14" on="1"/>
        <pt x="57" y="588" on="1"/>
        <pt x="57" y="608" on="0"/>
        <pt x="77" y="608" on="1"/>
        <pt x="85" y="608" on="0"/>
        <pt x="91" y="602" on="1"/>
        <pt x="650" y="43" on="1"/>
        <pt x="656" y="37" on="0"/>
        <pt x="656" y="29" on="1"/>
        <pt x="656" y="20" on="0"/>
        <pt x="644" y="8" on="0"/>
        <pt x="635" y="8" on="1"/>
        <pt x="628" y="8" on="0"/>
        <pt x="622" y="14" on="1"/>
        <pt x="97" y="539" on="1"/>
        <pt x="97" y="14" on="1"/>
        <pt x="97" y="3" on="0"/>
        <pt x="82" y="-5" on="0"/>
        <pt x="77" y="-5" on="1"/>
        <pt x="57" y="-5" on="0"/>
      </contour>
      <contour>
        <pt x="663" y="588" on="1"/>
        <pt x="663" y="14" on="1"/>
        <pt x="663" y="3" on="0"/>
        <pt x="648" y="-5" on="0"/>
        <pt x="643" y="-5" on="1"/>
        <pt x="623" y="-5" on="0"/>
        <pt x="623" y="14" on="1"/>
        <pt x="623" y="588" on="1"/>
        <pt x="623" y="599" on="0"/>
        <pt x="638" y="607" on="0"/>
        <pt x="643" y="607" on="1"/>
        <pt x="663" y="607" on="0"/>
      </contour>
    </TTGlyph>
    <TTGlyph name="Ntilde" xMin="52" yMin="-5" xMax="658" yMax="750">
      <contour>
        <pt x="233" y="672" on="1"/>
        <pt x="306" y="746" on="1"/>
        <pt x="310" y="750" on="0"/>
        <pt x="316" y="750" on="1"/>
        <pt x="321" y="750" on="0"/>
        <pt x="325" y="746" on="1"/>
        <pt x="389" y="682" on="1"/>
        <pt x="454" y="746" on="1"/>
        <pt x="459" y="749" on="0"/>
        <pt x="463" y="749" on="1"/>
        <pt x="477" y="749" on="0"/>
        <pt x="477" y="735" on="1"/>
        <pt x="477" y="730" on="0"/>
        <pt x="473" y="726" on="1"/>
        <pt x="398" y="653" on="1"/>
        <pt x="394" y="649" on="0"/>
        <pt x="388" y="649" on="1"/>
        <pt x="383" y="649" on="0"/>
        <pt x="379" y="653" on="1"/>
        <pt x="315" y="717" on="1"/>
        <pt x="252" y="653" on="1"/>
        <pt x="248" y="649" on="0"/>
        <pt x="243" y="649" on="1"/>
        <pt x="230" y="649" on="0"/>
        <pt x="230" y="664" on="1"/>
        <pt x="230" y="669" on="0"/>
      </contour>
      <contour>
        <pt x="52" y="14" on="1"/>
        <pt x="52" y="588" on="1"/>
        <pt x="52" y="608" on="0"/>
        <pt x="72" y="608" on="1"/>
        <pt x="80" y="608" on="0"/>
        <pt x="86" y="602" on="1"/>
        <pt x="646" y="43" on="1"/>
        <pt x="652" y="37" on="0"/>
        <pt x="652" y="29" on="1"/>
        <pt x="652" y="21" on="0"/>
        <pt x="639" y="8" on="0"/>
        <pt x="630" y="8" on="1"/>
        <pt x="623" y="8" on="0"/>
        <pt x="617" y="14" on="1"/>
        <pt x="92" y="539" on="1"/>
        <pt x="92" y="14" on="1"/>
        <pt x="92" y="3" on="0"/>
        <pt x="77" y="-5" on="0"/>
        <pt x="72" y="-5" on="1"/>
        <pt x="52" y="-5" on="0"/>
      </contour>
      <contour>
        <pt x="658" y="588" on="1"/>
        <pt x="658" y="14" on="1"/>
        <pt x="658" y="3" on="0"/>
        <pt x="643" y="-5" on="0"/>
        <pt x="638" y="-5" on="1"/>
        <pt x="618" y="-5" on="0"/>
        <pt x="618" y="14" on="1"/>
        <pt x="618" y="588" on="1"/>
        <pt x="618" y="599" on="0"/>
        <pt x="633" y="607" on="0"/>
        <pt x="638" y="607" on="1"/>
        <pt x="658" y="607" on="0"/>
      </contour>
    </TTGlyph>
    <TTGlyph name="O" xMin="57" yMin="-6" xMax="934" yMax="608">
      <contour>
        <pt x="62" y="497" on="1"/>
        <pt x="168" y="602" on="1"/>
        <pt x="174" y="608" on="0"/>
        <pt x="182" y="608" on="1"/>
        <pt x="811" y="608" on="1"/>
        <pt x="820" y="608" on="0"/>
        <pt x="826" y="602" on="1"/>
        <pt x="929" y="496" on="1"/>
        <pt x="934" y="490" on="0"/>
        <pt x="934" y="482" on="1"/>
        <pt x="934" y="120" on="1"/>
        <pt x="934" y="111" on="0"/>
        <pt x="928" y="106" on="1"/>
        <pt x="818" y="0" on="1"/>
        <pt x="810" y="-6" on="0"/>
        <pt x="804" y="-6" on="1"/>
        <pt x="182" y="-6" on="1"/>
        <pt x="172" y="-6" on="0"/>
        <pt x="167" y="0" on="1"/>
        <pt x="62" y="106" on="1"/>
        <pt x="57" y="111" on="0"/>
        <pt x="57" y="120" on="1"/>
        <pt x="57" y="482" on="1"/>
        <pt x="57" y="491" on="0"/>
      </contour>
      <contour>
        <pt x="97" y="129" on="1"/>
        <pt x="190" y="34" on="1"/>
        <pt x="796" y="34" on="1"/>
        <pt x="894" y="128" on="1"/>
        <pt x="894" y="474" on="1"/>
        <pt x="803" y="568" on="1"/>
        <pt x="191" y="568" on="1"/>
        <pt x="97" y="474" on="1"/>
      </contour>
    </TTGlyph>
    <TTGlyph name="OE" xMin="74" yMin="-6" xMax="1491" yMax="608">
      <contour>
        <pt x="763" y="-6" on="1"/>
        <pt x="198" y="-6" on="1"/>
        <pt x="188" y="-6" on="0"/>
        <pt x="184" y="0" on="1"/>
        <pt x="79" y="106" on="1"/>
        <pt x="74" y="111" on="0"/>
        <pt x="74" y="120" on="1"/>
        <pt x="74" y="482" on="1"/>
        <pt x="74" y="492" on="0"/>
        <pt x="79" y="497" on="1"/>
        <pt x="185" y="602" on="1"/>
        <pt x="191" y="608" on="0"/>
        <pt x="199" y="608" on="1"/>
        <pt x="770" y="608" on="1"/>
        <pt x="1471" y="608" on="1"/>
        <pt x="1483" y="608" on="0"/>
        <pt x="1491" y="593" on="0"/>
        <pt x="1491" y="588" on="1"/>
        <pt x="1491" y="568" on="0"/>
        <pt x="1471" y="568" on="1"/>
        <pt x="790" y="568" on="1"/>
        <pt x="790" y="238" on="1"/>
        <pt x="1339" y="238" on="1"/>
        <pt x="1351" y="238" on="0"/>
        <pt x="1359" y="223" on="0"/>
        <pt x="1359" y="218" on="1"/>
        <pt x="1359" y="198" on="0"/>
        <pt x="1339" y="198" on="1"/>
        <pt x="790" y="198" on="1"/>
        <pt x="790" y="34" on="1"/>
        <pt x="1464" y="34" on="1"/>
        <pt x="1475" y="34" on="0"/>
        <pt x="1483" y="19" on="0"/>
        <pt x="1483" y="14" on="1"/>
        <pt x="1483" y="-6" on="0"/>
        <pt x="1464" y="-6" on="1"/>
      </contour>
      <contour>
        <pt x="750" y="34" on="1"/>
        <pt x="750" y="568" on="1"/>
        <pt x="208" y="568" on="1"/>
        <pt x="114" y="474" on="1"/>
        <pt x="114" y="129" on="1"/>
        <pt x="207" y="34" on="1"/>
      </contour>
    </TTGlyph>
    <TTGlyph name="Oacute" xMin="57" yMin="-6" xMax="934" yMax="768">
      <component glyphName="O" x="0" y="0" flags="0x4"/>
      <component glyphName="acute" x="425" y="187" flags="0x4"/>
    </TTGlyph>
    <TTGlyph name="Ocircumflex" xMin="37" yMin="-6" xMax="914" yMax="763">
      <contour>
        <pt x="382" y="683" on="1"/>
        <pt x="455" y="757" on="1"/>
        <pt x="461" y="763" on="0"/>
        <pt x="470" y="763" on="1"/>
        <pt x="476" y="763" on="0"/>
        <pt x="484" y="757" on="1"/>
        <pt x="558" y="683" on="1"/>
        <pt x="564" y="677" on="0"/>
        <pt x="564" y="669" on="1"/>
        <pt x="564" y="661" on="0"/>
        <pt x="551" y="648" on="0"/>
        <pt x="542" y="648" on="1"/>
        <pt x="535" y="648" on="0"/>
        <pt x="529" y="654" on="1"/>
        <pt x="470" y="714" on="1"/>
        <pt x="410" y="654" on="1"/>
        <pt x="404" y="648" on="0"/>
        <pt x="396" y="648" on="1"/>
        <pt x="388" y="648" on="0"/>
        <pt x="375" y="661" on="0"/>
        <pt x="375" y="669" on="1"/>
        <pt x="375" y="677" on="0"/>
      </contour>
      <contour>
        <pt x="42" y="497" on="1"/>
        <pt x="148" y="602" on="1"/>
        <pt x="154" y="608" on="0"/>
        <pt x="162" y="608" on="1"/>
        <pt x="791" y="608" on="1"/>
        <pt x="800" y="608" on="0"/>
        <pt x="806" y="602" on="1"/>
        <pt x="909" y="496" on="1"/>
        <pt x="914" y="490" on="0"/>
        <pt x="914" y="482" on="1"/>
        <pt x="914" y="120" on="1"/>
        <pt x="914" y="111" on="0"/>
        <pt x="908" y="106" on="1"/>
        <pt x="798" y="0" on="1"/>
        <pt x="790" y="-6" on="0"/>
        <pt x="784" y="-6" on="1"/>
        <pt x="162" y="-6" on="1"/>
        <pt x="152" y="-6" on="0"/>
        <pt x="147" y="0" on="1"/>
        <pt x="42" y="106" on="1"/>
        <pt x="37" y="111" on="0"/>
        <pt x="37" y="120" on="1"/>
        <pt x="37" y="482" on="1"/>
        <pt x="37" y="491" on="0"/>
      </contour>
      <contour>
        <pt x="77" y="129" on="1"/>
        <pt x="170" y="34" on="1"/>
        <pt x="776" y="34" on="1"/>
        <pt x="874" y="128" on="1"/>
        <pt x="874" y="474" on="1"/>
        <pt x="783" y="568" on="1"/>
        <pt x="171" y="568" on="1"/>
        <pt x="77" y="474" on="1"/>
      </contour>
    </TTGlyph>
    <TTGlyph name="Odieresis" xMin="57" yMin="-6" xMax="934" yMax="790">
      <component glyphName="O" x="0" y="0" flags="0x4"/>
      <component glyphName="dieresis" x="372" y="192" flags="0x4"/>
    </TTGlyph>
    <TTGlyph name="Ograve" xMin="57" yMin="-6" xMax="934" yMax="770">
      <component glyphName="O" x="0" y="0" flags="0x4"/>
      <component glyphName="grave" x="432" y="189" flags="0x4"/>
    </TTGlyph>
    <TTGlyph name="Otilde" xMin="45" yMin="-6" xMax="922" yMax="750">
      <contour>
        <pt x="386" y="672" on="1"/>
        <pt x="458" y="746" on="1"/>
        <pt x="462" y="750" on="0"/>
        <pt x="469" y="750" on="1"/>
        <pt x="474" y="750" on="0"/>
        <pt x="478" y="746" on="1"/>
        <pt x="542" y="682" on="1"/>
        <pt x="606" y="746" on="1"/>
        <pt x="611" y="749" on="0"/>
        <pt x="615" y="749" on="1"/>
        <pt x="629" y="749" on="0"/>
        <pt x="629" y="734" on="1"/>
        <pt x="629" y="729" on="0"/>
        <pt x="626" y="726" on="1"/>
        <pt x="551" y="653" on="1"/>
        <pt x="547" y="649" on="0"/>
        <pt x="541" y="649" on="1"/>
        <pt x="536" y="649" on="0"/>
        <pt x="532" y="653" on="1"/>
        <pt x="468" y="717" on="1"/>
        <pt x="405" y="653" on="1"/>
        <pt x="401" y="649" on="0"/>
        <pt x="396" y="649" on="1"/>
        <pt x="382" y="649" on="0"/>
        <pt x="382" y="663" on="1"/>
        <pt x="382" y="668" on="0"/>
      </contour>
      <contour>
        <pt x="50" y="497" on="1"/>
        <pt x="156" y="602" on="1"/>
        <pt x="162" y="608" on="0"/>
        <pt x="170" y="608" on="1"/>
        <pt x="799" y="608" on="1"/>
        <pt x="808" y="608" on="0"/>
        <pt x="814" y="602" on="1"/>
        <pt x="917" y="496" on="1"/>
        <pt x="922" y="490" on="0"/>
        <pt x="922" y="482" on="1"/>
        <pt x="922" y="120" on="1"/>
        <pt x="922" y="111" on="0"/>
        <pt x="916" y="106" on="1"/>
        <pt x="806" y="0" on="1"/>
        <pt x="798" y="-6" on="0"/>
        <pt x="792" y="-6" on="1"/>
        <pt x="170" y="-6" on="1"/>
        <pt x="160" y="-6" on="0"/>
        <pt x="155" y="0" on="1"/>
        <pt x="50" y="106" on="1"/>
        <pt x="45" y="111" on="0"/>
        <pt x="45" y="120" on="1"/>
        <pt x="45" y="482" on="1"/>
        <pt x="45" y="491" on="0"/>
      </contour>
      <contour>
        <pt x="85" y="129" on="1"/>
        <pt x="178" y="34" on="1"/>
        <pt x="784" y="34" on="1"/>
        <pt x="882" y="128" on="1"/>
        <pt x="882" y="474" on="1"/>
        <pt x="791" y="568" on="1"/>
        <pt x="179" y="568" on="1"/>
        <pt x="85" y="474" on="1"/>
      </contour>
    </TTGlyph>
    <TTGlyph name="P" xMin="61" yMin="-5" xMax="844" yMax="608">
      <contour>
        <pt x="80" y="196" on="1"/>
        <pt x="69" y="196" on="0"/>
        <pt x="61" y="211" on="0"/>
        <pt x="61" y="216" on="1"/>
        <pt x="61" y="236" on="0"/>
        <pt x="80" y="236" on="1"/>
        <pt x="137" y="236" on="1"/>
        <pt x="137" y="552" on="1"/>
        <pt x="137" y="561" on="0"/>
        <pt x="142" y="566" on="1"/>
        <pt x="178" y="602" on="1"/>
        <pt x="184" y="608" on="0"/>
        <pt x="193" y="608" on="1"/>
        <pt x="718" y="608" on="1"/>
        <pt x="727" y="608" on="0"/>
        <pt x="733" y="602" on="1"/>
        <pt x="838" y="497" on="1"/>
        <pt x="844" y="491" on="0"/>
        <pt x="844" y="482" on="1"/>
        <pt x="844" y="322" on="1"/>
        <pt x="844" y="313" on="0"/>
        <pt x="838" y="307" on="1"/>
        <pt x="733" y="202" on="1"/>
        <pt x="727" y="196" on="0"/>
        <pt x="718" y="196" on="1"/>
        <pt x="177" y="196" on="1"/>
        <pt x="177" y="14" on="1"/>
        <pt x="177" y="3" on="0"/>
        <pt x="162" y="-5" on="0"/>
        <pt x="157" y="-5" on="1"/>
        <pt x="137" y="-5" on="0"/>
        <pt x="137" y="14" on="1"/>
        <pt x="137" y="196" on="1"/>
      </contour>
      <contour>
        <pt x="177" y="236" on="1"/>
        <pt x="710" y="236" on="1"/>
        <pt x="804" y="330" on="1"/>
        <pt x="804" y="474" on="1"/>
        <pt x="710" y="568" on="1"/>
        <pt x="202" y="568" on="1"/>
        <pt x="177" y="543" on="1"/>
      </contour>
    </TTGlyph>
    <TTGlyph name="Q" xMin="66" yMin="-68" xMax="977" yMax="608">
      <contour>
        <pt x="883" y="54" on="1"/>
        <pt x="971" y="-34" on="1"/>
        <pt x="977" y="-40" on="0"/>
        <pt x="977" y="-47" on="1"/>
        <pt x="977" y="-56" on="0"/>
        <pt x="965" y="-68" on="0"/>
        <pt x="956" y="-68" on="1"/>
        <pt x="948" y="-68" on="0"/>
        <pt x="942" y="-62" on="1"/>
        <pt x="854" y="25" on="1"/>
        <pt x="830" y="0" on="1"/>
        <pt x="824" y="-6" on="0"/>
        <pt x="815" y="-6" on="1"/>
        <pt x="191" y="-6" on="1"/>
        <pt x="184" y="-6" on="0"/>
        <pt x="178" y="0" on="1"/>
        <pt x="72" y="103" on="1"/>
        <pt x="66" y="108" on="0"/>
        <pt x="66" y="118" on="1"/>
        <pt x="66" y="482" on="1"/>
        <pt x="66" y="492" on="0"/>
        <pt x="71" y="497" on="1"/>
        <pt x="177" y="602" on="1"/>
        <pt x="183" y="608" on="0"/>
        <pt x="191" y="608" on="1"/>
        <pt x="788" y="608" on="1"/>
        <pt x="796" y="608" on="0"/>
        <pt x="802" y="602" on="1"/>
        <pt x="938" y="468" on="1"/>
        <pt x="943" y="463" on="0"/>
        <pt x="943" y="454" on="1"/>
        <pt x="943" y="122" on="1"/>
        <pt x="943" y="114" on="0"/>
        <pt x="938" y="108" on="1"/>
      </contour>
      <contour>
        <pt x="826" y="53" on="1"/>
        <pt x="746" y="131" on="1"/>
        <pt x="618" y="131" on="1"/>
        <pt x="607" y="131" on="0"/>
        <pt x="599" y="146" on="0"/>
        <pt x="599" y="151" on="1"/>
        <pt x="599" y="171" on="0"/>
        <pt x="618" y="171" on="1"/>
        <pt x="755" y="171" on="1"/>
        <pt x="764" y="171" on="0"/>
        <pt x="770" y="166" on="1"/>
        <pt x="854" y="82" on="1"/>
        <pt x="903" y="131" on="1"/>
        <pt x="903" y="445" on="1"/>
        <pt x="779" y="568" on="1"/>
        <pt x="200" y="568" on="1"/>
        <pt x="106" y="474" on="1"/>
        <pt x="106" y="126" on="1"/>
        <pt x="199" y="34" on="1"/>
        <pt x="806" y="34" on="1"/>
      </contour>
    </TTGlyph>
    <TTGlyph name="R" xMin="47" yMin="-6" xMax="855" yMax="608">
      <contour>
        <pt x="114" y="517" on="1"/>
        <pt x="114" y="527" on="0"/>
        <pt x="119" y="531" on="1"/>
        <pt x="191" y="602" on="1"/>
        <pt x="199" y="608" on="0"/>
        <pt x="206" y="608" on="1"/>
        <pt x="730" y="608" on="1"/>
        <pt x="739" y="608" on="0"/>
        <pt x="744" y="602" on="1"/>
        <pt x="849" y="497" on="1"/>
        <pt x="854" y="491" on="0"/>
        <pt x="854" y="482" on="1"/>
        <pt x="854" y="282" on="1"/>
        <pt x="854" y="272" on="0"/>
        <pt x="849" y="268" on="1"/>
        <pt x="745" y="165" on="1"/>
        <pt x="737" y="159" on="0"/>
        <pt x="730" y="159" on="1"/>
        <pt x="718" y="159" on="1"/>
        <pt x="849" y="29" on="1"/>
        <pt x="855" y="23" on="0"/>
        <pt x="855" y="15" on="1"/>
        <pt x="855" y="7" on="0"/>
        <pt x="842" y="-6" on="0"/>
        <pt x="833" y="-6" on="1"/>
        <pt x="826" y="-6" on="0"/>
        <pt x="820" y="0" on="1"/>
        <pt x="661" y="159" on="1"/>
        <pt x="154" y="159" on="1"/>
        <pt x="154" y="14" on="1"/>
        <pt x="154" y="3" on="0"/>
        <pt x="139" y="-5" on="0"/>
        <pt x="134" y="-5" on="1"/>
        <pt x="114" y="-5" on="0"/>
        <pt x="114" y="14" on="1"/>
        <pt x="114" y="159" on="1"/>
        <pt x="66" y="159" on="1"/>
        <pt x="55" y="159" on="0"/>
        <pt x="47" y="174" on="0"/>
        <pt x="47" y="179" on="1"/>
        <pt x="47" y="199" on="0"/>
        <pt x="66" y="199" on="1"/>
        <pt x="114" y="199" on="1"/>
      </contour>
      <contour>
        <pt x="154" y="199" on="1"/>
        <pt x="667" y="199" on="1"/>
        <pt x="674" y="199" on="1"/>
        <pt x="722" y="199" on="1"/>
        <pt x="814" y="291" on="1"/>
        <pt x="814" y="474" on="1"/>
        <pt x="721" y="568" on="1"/>
        <pt x="214" y="568" on="1"/>
        <pt x="154" y="508" on="1"/>
      </contour>
    </TTGlyph>
    <TTGlyph name="S" xMin="58" yMin="-6" xMax="801" yMax="608">
      <contour>
        <pt x="98" y="192" on="1"/>
        <pt x="98" y="93" on="1"/>
        <pt x="156" y="34" on="1"/>
        <pt x="698" y="34" on="1"/>
        <pt x="758" y="95" on="1"/>
        <pt x="758" y="243" on="1"/>
        <pt x="702" y="299" on="1"/>
        <pt x="114" y="299" on="1"/>
        <pt x="108" y="299" on="0"/>
        <pt x="100" y="305" on="1"/>
        <pt x="64" y="340" on="1"/>
        <pt x="58" y="345" on="0"/>
        <pt x="58" y="354" on="1"/>
        <pt x="58" y="518" on="1"/>
        <pt x="58" y="528" on="0"/>
        <pt x="63" y="533" on="1"/>
        <pt x="133" y="602" on="1"/>
        <pt x="139" y="608" on="0"/>
        <pt x="147" y="608" on="1"/>
        <pt x="709" y="608" on="1"/>
        <pt x="717" y="608" on="0"/>
        <pt x="723" y="602" on="1"/>
        <pt x="795" y="530" on="1"/>
        <pt x="801" y="525" on="0"/>
        <pt x="801" y="516" on="1"/>
        <pt x="801" y="420" on="1"/>
        <pt x="801" y="409" on="0"/>
        <pt x="786" y="401" on="0"/>
        <pt x="781" y="401" on="1"/>
        <pt x="761" y="401" on="0"/>
        <pt x="761" y="420" on="1"/>
        <pt x="761" y="507" on="1"/>
        <pt x="700" y="568" on="1"/>
        <pt x="156" y="568" on="1"/>
        <pt x="98" y="510" on="1"/>
        <pt x="98" y="362" on="1"/>
        <pt x="122" y="339" on="1"/>
        <pt x="710" y="339" on="1"/>
        <pt x="719" y="339" on="0"/>
        <pt x="725" y="334" on="1"/>
        <pt x="793" y="266" on="1"/>
        <pt x="798" y="262" on="0"/>
        <pt x="798" y="252" on="1"/>
        <pt x="798" y="86" on="1"/>
        <pt x="798" y="78" on="0"/>
        <pt x="793" y="72" on="1"/>
        <pt x="722" y="0" on="1"/>
        <pt x="717" y="-6" on="0"/>
        <pt x="707" y="-6" on="1"/>
        <pt x="147" y="-6" on="1"/>
        <pt x="139" y="-6" on="0"/>
        <pt x="133" y="0" on="1"/>
        <pt x="63" y="70" on="1"/>
        <pt x="58" y="74" on="0"/>
        <pt x="58" y="84" on="1"/>
        <pt x="58" y="192" on="1"/>
        <pt x="58" y="203" on="0"/>
        <pt x="73" y="211" on="0"/>
        <pt x="78" y="211" on="1"/>
        <pt x="98" y="211" on="0"/>
      </contour>
    </TTGlyph>
    <TTGlyph name="T" xMin="65" yMin="-5" xMax="775" yMax="608">
      <contour>
        <pt x="400" y="568" on="1"/>
        <pt x="84" y="568" on="1"/>
        <pt x="73" y="568" on="0"/>
        <pt x="65" y="583" on="0"/>
        <pt x="65" y="588" on="1"/>
        <pt x="65" y="608" on="0"/>
        <pt x="84" y="608" on="1"/>
        <pt x="756" y="608" on="1"/>
        <pt x="767" y="608" on="0"/>
        <pt x="775" y="593" on="0"/>
        <pt x="775" y="588" on="1"/>
        <pt x="775" y="568" on="0"/>
        <pt x="756" y="568" on="1"/>
        <pt x="440" y="568" on="1"/>
        <pt x="440" y="14" on="1"/>
        <pt x="440" y="3" on="0"/>
        <pt x="425" y="-5" on="0"/>
        <pt x="420" y="-5" on="1"/>
        <pt x="400" y="-5" on="0"/>
        <pt x="400" y="14" on="1"/>
      </contour>
    </TTGlyph>
    <TTGlyph name="U" xMin="57" yMin="-6" xMax="730" yMax="607">
      <contour>
        <pt x="730" y="588" on="1"/>
        <pt x="730" y="118" on="1"/>
        <pt x="730" y="107" on="0"/>
        <pt x="725" y="103" on="1"/>
        <pt x="621" y="0" on="1"/>
        <pt x="613" y="-6" on="0"/>
        <pt x="606" y="-6" on="1"/>
        <pt x="181" y="-6" on="1"/>
        <pt x="174" y="-6" on="0"/>
        <pt x="166" y="0" on="1"/>
        <pt x="62" y="103" on="1"/>
        <pt x="57" y="108" on="0"/>
        <pt x="57" y="118" on="1"/>
        <pt x="57" y="588" on="1"/>
        <pt x="57" y="599" on="0"/>
        <pt x="72" y="607" on="0"/>
        <pt x="77" y="607" on="1"/>
        <pt x="97" y="607" on="0"/>
        <pt x="97" y="588" on="1"/>
        <pt x="97" y="126" on="1"/>
        <pt x="190" y="34" on="1"/>
        <pt x="598" y="34" on="1"/>
        <pt x="690" y="126" on="1"/>
        <pt x="690" y="588" on="1"/>
        <pt x="690" y="599" on="0"/>
        <pt x="705" y="607" on="0"/>
        <pt x="710" y="607" on="1"/>
        <pt x="730" y="607" on="0"/>
      </contour>
    </TTGlyph>
    <TTGlyph name="Uacute" xMin="57" yMin="-6" xMax="730" yMax="768">
      <component glyphName="U" x="0" y="0" flags="0x4"/>
      <component glyphName="acute" x="309" y="187" flags="0x4"/>
    </TTGlyph>
    <TTGlyph name="Ucircumflex" xMin="32" yMin="-6" xMax="706" yMax="763">
      <contour>
        <pt x="274" y="683" on="1"/>
        <pt x="348" y="757" on="1"/>
        <pt x="354" y="763" on="0"/>
        <pt x="363" y="763" on="1"/>
        <pt x="369" y="763" on="0"/>
        <pt x="377" y="757" on="1"/>
        <pt x="450" y="683" on="1"/>
        <pt x="456" y="677" on="0"/>
        <pt x="456" y="669" on="1"/>
        <pt x="456" y="660" on="0"/>
        <pt x="444" y="648" on="0"/>
        <pt x="435" y="648" on="1"/>
        <pt x="428" y="648" on="0"/>
        <pt x="422" y="654" on="1"/>
        <pt x="362" y="714" on="1"/>
        <pt x="303" y="654" on="1"/>
        <pt x="297" y="648" on="0"/>
        <pt x="289" y="648" on="1"/>
        <pt x="281" y="648" on="0"/>
        <pt x="268" y="661" on="0"/>
        <pt x="268" y="670" on="1"/>
        <pt x="268" y="677" on="0"/>
      </contour>
      <contour>
        <pt x="706" y="588" on="1"/>
        <pt x="706" y="118" on="1"/>
        <pt x="706" y="108" on="0"/>
        <pt x="700" y="103" on="1"/>
        <pt x="596" y="0" on="1"/>
        <pt x="588" y="-6" on="0"/>
        <pt x="582" y="-6" on="1"/>
        <pt x="156" y="-6" on="1"/>
        <pt x="148" y="-6" on="0"/>
        <pt x="142" y="0" on="1"/>
        <pt x="38" y="103" on="1"/>
        <pt x="32" y="108" on="0"/>
        <pt x="32" y="118" on="1"/>
        <pt x="32" y="588" on="1"/>
        <pt x="32" y="599" on="0"/>
        <pt x="47" y="607" on="0"/>
        <pt x="52" y="607" on="1"/>
        <pt x="72" y="607" on="0"/>
        <pt x="72" y="588" on="1"/>
        <pt x="72" y="126" on="1"/>
        <pt x="165" y="34" on="1"/>
        <pt x="573" y="34" on="1"/>
        <pt x="666" y="126" on="1"/>
        <pt x="666" y="588" on="1"/>
        <pt x="666" y="599" on="0"/>
        <pt x="681" y="607" on="0"/>
        <pt x="686" y="607" on="1"/>
        <pt x="706" y="607" on="0"/>
      </contour>
    </TTGlyph>
    <TTGlyph name="Udieresis" xMin="-2" yMin="-6" xMax="671" yMax="771">
      <contour>
        <pt x="671" y="588" on="1"/>
        <pt x="671" y="118" on="1"/>
        <pt x="671" y="108" on="0"/>
        <pt x="666" y="103" on="1"/>
        <pt x="562" y="0" on="1"/>
        <pt x="554" y="-6" on="0"/>
        <pt x="547" y="-6" on="1"/>
        <pt x="122" y="-6" on="1"/>
        <pt x="115" y="-6" on="0"/>
        <pt x="107" y="0" on="1"/>
        <pt x="3" y="103" on="1"/>
        <pt x="-2" y="107" on="0"/>
        <pt x="-2" y="118" on="1"/>
        <pt x="-2" y="588" on="1"/>
        <pt x="-2" y="599" on="0"/>
        <pt x="13" y="607" on="0"/>
        <pt x="18" y="607" on="1"/>
        <pt x="38" y="607" on="0"/>
        <pt x="38" y="588" on="1"/>
        <pt x="38" y="126" on="1"/>
        <pt x="130" y="34" on="1"/>
        <pt x="538" y="34" on="1"/>
        <pt x="631" y="126" on="1"/>
        <pt x="631" y="588" on="1"/>
        <pt x="631" y="599" on="0"/>
        <pt x="646" y="607" on="0"/>
        <pt x="651" y="607" on="1"/>
        <pt x="671" y="607" on="0"/>
      </contour>
      <contour>
        <pt x="278" y="751" on="1"/>
        <pt x="278" y="646" on="1"/>
        <pt x="278" y="634" on="0"/>
        <pt x="263" y="626" on="0"/>
        <pt x="258" y="626" on="1"/>
        <pt x="238" y="626" on="0"/>
        <pt x="238" y="646" on="1"/>
        <pt x="238" y="751" on="1"/>
        <pt x="238" y="763" on="0"/>
        <pt x="253" y="771" on="0"/>
        <pt x="258" y="771" on="1"/>
        <pt x="278" y="771" on="0"/>
      </contour>
      <contour>
        <pt x="423" y="751" on="1"/>
        <pt x="423" y="646" on="1"/>
        <pt x="423" y="634" on="0"/>
        <pt x="408" y="626" on="0"/>
        <pt x="403" y="626" on="1"/>
        <pt x="383" y="626" on="0"/>
        <pt x="383" y="646" on="1"/>
        <pt x="383" y="751" on="1"/>
        <pt x="383" y="763" on="0"/>
        <pt x="398" y="771" on="0"/>
        <pt x="403" y="771" on="1"/>
        <pt x="423" y="771" on="0"/>
      </contour>
    </TTGlyph>
    <TTGlyph name="Ugrave" xMin="57" yMin="-6" xMax="730" yMax="770">
      <component glyphName="U" x="0" y="0" flags="0x4"/>
      <component glyphName="grave" x="301" y="189" flags="0x4"/>
    </TTGlyph>
    <TTGlyph name="V" xMin="66" yMin="-6" xMax="1286" yMax="609">
      <contour>
        <pt x="101" y="602" on="1"/>
        <pt x="669" y="34" on="1"/>
        <pt x="685" y="34" on="1"/>
        <pt x="1252" y="602" on="1"/>
        <pt x="1258" y="608" on="0"/>
        <pt x="1265" y="608" on="1"/>
        <pt x="1286" y="608" on="0"/>
        <pt x="1286" y="586" on="1"/>
        <pt x="1286" y="579" on="0"/>
        <pt x="1281" y="574" on="1"/>
        <pt x="708" y="0" on="1"/>
        <pt x="703" y="-6" on="0"/>
        <pt x="694" y="-6" on="1"/>
        <pt x="660" y="-6" on="1"/>
        <pt x="651" y="-6" on="0"/>
        <pt x="646" y="0" on="1"/>
        <pt x="72" y="574" on="1"/>
        <pt x="66" y="580" on="0"/>
        <pt x="66" y="588" on="1"/>
        <pt x="66" y="595" on="0"/>
        <pt x="78" y="609" on="0"/>
        <pt x="86" y="609" on="1"/>
        <pt x="94" y="609" on="0"/>
      </contour>
    </TTGlyph>
    <TTGlyph name="W" xMin="30" yMin="-6" xMax="1037" yMax="607">
      <contour>
        <pt x="70" y="588" on="1"/>
        <pt x="70" y="63" on="1"/>
        <pt x="508" y="502" on="1"/>
        <pt x="514" y="507" on="0"/>
        <pt x="522" y="507" on="1"/>
        <pt x="545" y="507" on="1"/>
        <pt x="554" y="507" on="0"/>
        <pt x="559" y="502" on="1"/>
        <pt x="997" y="63" on="1"/>
        <pt x="997" y="588" on="1"/>
        <pt x="997" y="599" on="0"/>
        <pt x="1012" y="607" on="0"/>
        <pt x="1017" y="607" on="1"/>
        <pt x="1037" y="607" on="0"/>
        <pt x="1037" y="588" on="1"/>
        <pt x="1037" y="14" on="1"/>
        <pt x="1037" y="-6" on="0"/>
        <pt x="1016" y="-6" on="1"/>
        <pt x="1008" y="-6" on="0"/>
        <pt x="1002" y="0" on="1"/>
        <pt x="536" y="467" on="1"/>
        <pt x="531" y="467" on="1"/>
        <pt x="64" y="0" on="1"/>
        <pt x="58" y="-6" on="0"/>
        <pt x="50" y="-6" on="1"/>
        <pt x="30" y="-6" on="0"/>
        <pt x="30" y="14" on="1"/>
        <pt x="30" y="588" on="1"/>
        <pt x="30" y="599" on="0"/>
        <pt x="45" y="607" on="0"/>
        <pt x="50" y="607" on="1"/>
        <pt x="70" y="607" on="0"/>
      </contour>
    </TTGlyph>
    <TTGlyph name="X" xMin="62" yMin="-6" xMax="683" yMax="609">
      <contour>
        <pt x="343" y="298" on="1"/>
        <pt x="68" y="574" on="1"/>
        <pt x="62" y="580" on="0"/>
        <pt x="62" y="588" on="1"/>
        <pt x="62" y="596" on="0"/>
        <pt x="75" y="609" on="0"/>
        <pt x="83" y="609" on="1"/>
        <pt x="91" y="609" on="0"/>
        <pt x="97" y="602" on="1"/>
        <pt x="372" y="326" on="1"/>
        <pt x="648" y="602" on="1"/>
        <pt x="654" y="608" on="0"/>
        <pt x="662" y="608" on="1"/>
        <pt x="671" y="608" on="0"/>
        <pt x="683" y="596" on="0"/>
        <pt x="683" y="587" on="1"/>
        <pt x="683" y="580" on="0"/>
        <pt x="677" y="574" on="1"/>
        <pt x="401" y="298" on="1"/>
        <pt x="670" y="29" on="1"/>
        <pt x="676" y="23" on="0"/>
        <pt x="676" y="16" on="1"/>
        <pt x="676" y="8" on="0"/>
        <pt x="662" y="-6" on="0"/>
        <pt x="654" y="-6" on="1"/>
        <pt x="647" y="-6" on="0"/>
        <pt x="641" y="0" on="1"/>
        <pt x="372" y="269" on="1"/>
        <pt x="103" y="0" on="1"/>
        <pt x="97" y="-6" on="0"/>
        <pt x="89" y="-6" on="1"/>
        <pt x="80" y="-6" on="0"/>
        <pt x="68" y="6" on="0"/>
        <pt x="68" y="15" on="1"/>
        <pt x="68" y="23" on="0"/>
        <pt x="74" y="29" on="1"/>
      </contour>
    </TTGlyph>
    <TTGlyph name="Y" xMin="60" yMin="-5" xMax="804" yMax="609">
      <contour>
        <pt x="412" y="230" on="1"/>
        <pt x="403" y="235" on="1"/>
        <pt x="66" y="574" on="1"/>
        <pt x="60" y="580" on="0"/>
        <pt x="60" y="588" on="1"/>
        <pt x="60" y="595" on="0"/>
        <pt x="72" y="609" on="0"/>
        <pt x="80" y="609" on="1"/>
        <pt x="88" y="609" on="0"/>
        <pt x="94" y="602" on="1"/>
        <pt x="426" y="270" on="1"/>
        <pt x="438" y="270" on="1"/>
        <pt x="770" y="602" on="1"/>
        <pt x="776" y="608" on="0"/>
        <pt x="783" y="608" on="1"/>
        <pt x="792" y="608" on="0"/>
        <pt x="804" y="596" on="0"/>
        <pt x="804" y="587" on="1"/>
        <pt x="804" y="580" on="0"/>
        <pt x="798" y="574" on="1"/>
        <pt x="461" y="235" on="1"/>
        <pt x="452" y="230" on="1"/>
        <pt x="452" y="14" on="1"/>
        <pt x="452" y="3" on="0"/>
        <pt x="437" y="-5" on="0"/>
        <pt x="432" y="-5" on="1"/>
        <pt x="412" y="-5" on="0"/>
        <pt x="412" y="14" on="1"/>
      </contour>
    </TTGlyph>
    <TTGlyph name="Z" xMin="68" yMin="-6" xMax="683" yMax="608">
      <contour>
        <pt x="96" y="608" on="1"/>
        <pt x="662" y="608" on="1"/>
        <pt x="683" y="608" on="0"/>
        <pt x="683" y="588" on="1"/>
        <pt x="683" y="580" on="0"/>
        <pt x="677" y="574" on="1"/>
        <pt x="137" y="34" on="1"/>
        <pt x="662" y="34" on="1"/>
        <pt x="674" y="34" on="0"/>
        <pt x="682" y="19" on="0"/>
        <pt x="682" y="14" on="1"/>
        <pt x="682" y="-6" on="0"/>
        <pt x="662" y="-6" on="1"/>
        <pt x="88" y="-6" on="1"/>
        <pt x="68" y="-6" on="0"/>
        <pt x="68" y="15" on="1"/>
        <pt x="68" y="23" on="0"/>
        <pt x="74" y="29" on="1"/>
        <pt x="614" y="568" on="1"/>
        <pt x="96" y="568" on="1"/>
        <pt x="85" y="568" on="0"/>
        <pt x="77" y="583" on="0"/>
        <pt x="77" y="588" on="1"/>
        <pt x="77" y="608" on="0"/>
      </contour>
    </TTGlyph>
    <TTGlyph name="a" xMin="31" yMin="-6" xMax="977" yMax="471">
      <contour>
        <pt x="215" y="207" on="1"/>
        <pt x="473" y="466" on="1"/>
        <pt x="478" y="471" on="0"/>
        <pt x="487" y="471" on="1"/>
        <pt x="521" y="471" on="1"/>
        <pt x="530" y="471" on="0"/>
        <pt x="535" y="466" on="1"/>
        <pt x="971" y="29" on="1"/>
        <pt x="977" y="23" on="0"/>
        <pt x="977" y="15" on="1"/>
        <pt x="977" y="7" on="0"/>
        <pt x="964" y="-6" on="0"/>
        <pt x="955" y="-6" on="1"/>
        <pt x="948" y="-6" on="0"/>
        <pt x="942" y="0" on="1"/>
        <pt x="775" y="167" on="1"/>
        <pt x="233" y="167" on="1"/>
        <pt x="66" y="0" on="1"/>
        <pt x="60" y="-6" on="0"/>
        <pt x="52" y="-6" on="1"/>
        <pt x="43" y="-6" on="0"/>
        <pt x="31" y="6" on="0"/>
        <pt x="31" y="15" on="1"/>
        <pt x="31" y="23" on="0"/>
        <pt x="37" y="29" on="1"/>
        <pt x="175" y="167" on="1"/>
        <pt x="120" y="167" on="1"/>
        <pt x="109" y="167" on="0"/>
        <pt x="101" y="182" on="0"/>
        <pt x="101" y="187" on="1"/>
        <pt x="101" y="207" on="0"/>
        <pt x="120" y="207" on="1"/>
      </contour>
      <contour>
        <pt x="735" y="207" on="1"/>
        <pt x="512" y="431" on="1"/>
        <pt x="496" y="431" on="1"/>
        <pt x="273" y="207" on="1"/>
      </contour>
    </TTGlyph>
    <TTGlyph name="aacute" xMin="31" yMin="-6" xMax="977" yMax="648">
      <component glyphName="a" x="0" y="0" flags="0x4"/>
      <component glyphName="acute" x="422" y="67" flags="0x4"/>
    </TTGlyph>
    <TTGlyph name="acircumflex" xMin="26" yMin="-6" xMax="972" yMax="642">
      <contour>
        <pt x="409" y="562" on="1"/>
        <pt x="482" y="635" on="1"/>
        <pt x="489" y="642" on="0"/>
        <pt x="497" y="642" on="1"/>
        <pt x="505" y="642" on="0"/>
        <pt x="511" y="635" on="1"/>
        <pt x="585" y="562" on="1"/>
        <pt x="591" y="556" on="0"/>
        <pt x="591" y="548" on="1"/>
        <pt x="591" y="540" on="0"/>
        <pt x="578" y="527" on="0"/>
        <pt x="569" y="527" on="1"/>
        <pt x="562" y="527" on="0"/>
        <pt x="556" y="533" on="1"/>
        <pt x="497" y="592" on="1"/>
        <pt x="438" y="533" on="1"/>
        <pt x="432" y="527" on="0"/>
        <pt x="424" y="527" on="1"/>
        <pt x="415" y="527" on="0"/>
        <pt x="403" y="539" on="0"/>
        <pt x="403" y="548" on="1"/>
        <pt x="403" y="556" on="0"/>
      </contour>
      <contour>
        <pt x="210" y="207" on="1"/>
        <pt x="467" y="466" on="1"/>
        <pt x="472" y="471" on="0"/>
        <pt x="482" y="471" on="1"/>
        <pt x="515" y="471" on="1"/>
        <pt x="525" y="471" on="0"/>
        <pt x="530" y="466" on="1"/>
        <pt x="966" y="29" on="1"/>
        <pt x="972" y="23" on="0"/>
        <pt x="972" y="16" on="1"/>
        <pt x="972" y="8" on="0"/>
        <pt x="958" y="-6" on="0"/>
        <pt x="950" y="-6" on="1"/>
        <pt x="943" y="-6" on="0"/>
        <pt x="937" y="0" on="1"/>
        <pt x="770" y="167" on="1"/>
        <pt x="227" y="167" on="1"/>
        <pt x="60" y="0" on="1"/>
        <pt x="54" y="-6" on="0"/>
        <pt x="47" y="-6" on="1"/>
        <pt x="26" y="-6" on="0"/>
        <pt x="26" y="16" on="1"/>
        <pt x="26" y="24" on="0"/>
        <pt x="31" y="29" on="1"/>
        <pt x="170" y="167" on="1"/>
        <pt x="114" y="167" on="1"/>
        <pt x="103" y="167" on="0"/>
        <pt x="95" y="182" on="0"/>
        <pt x="95" y="187" on="1"/>
        <pt x="95" y="207" on="0"/>
        <pt x="114" y="207" on="1"/>
      </contour>
      <contour>
        <pt x="730" y="207" on="1"/>
        <pt x="506" y="431" on="1"/>
        <pt x="490" y="431" on="1"/>
        <pt x="267" y="207" on="1"/>
      </contour>
    </TTGlyph>
    <TTGlyph name="acute" xMin="9" yMin="457" xMax="133" yMax="581">
      <contour>
        <pt x="127" y="546" on="1"/>
        <pt x="44" y="463" on="1"/>
        <pt x="38" y="457" on="0"/>
        <pt x="30" y="457" on="1"/>
        <pt x="22" y="457" on="0"/>
        <pt x="9" y="470" on="0"/>
        <pt x="9" y="479" on="1"/>
        <pt x="9" y="486" on="0"/>
        <pt x="15" y="492" on="1"/>
        <pt x="98" y="575" on="1"/>
        <pt x="104" y="581" on="0"/>
        <pt x="112" y="581" on="1"/>
        <pt x="121" y="581" on="0"/>
        <pt x="133" y="569" on="0"/>
        <pt x="133" y="560" on="1"/>
        <pt x="133" y="552" on="0"/>
      </contour>
    </TTGlyph>
    <TTGlyph name="adieresis" xMin="31" yMin="-6" xMax="977" yMax="662">
      <component glyphName="a" x="0" y="0" flags="0x4"/>
      <component glyphName="dieresis" x="378" y="64" flags="0x4"/>
    </TTGlyph>
    <TTGlyph name="ae" xMin="37" yMin="-6" xMax="1023" yMax="471">
      <contour>
        <pt x="498" y="471" on="1"/>
        <pt x="515" y="467" on="0"/>
        <pt x="515" y="450" on="1"/>
        <pt x="515" y="443" on="0"/>
        <pt x="509" y="437" on="1"/>
        <pt x="480" y="408" on="1"/>
        <pt x="480" y="451" on="1"/>
        <pt x="480" y="471" on="0"/>
        <pt x="498" y="471" on="1"/>
        <pt x="1004" y="471" on="1"/>
        <pt x="1015" y="471" on="0"/>
        <pt x="1023" y="456" on="0"/>
        <pt x="1023" y="451" on="1"/>
        <pt x="1023" y="431" on="0"/>
        <pt x="1004" y="431" on="1"/>
        <pt x="520" y="431" on="1"/>
        <pt x="520" y="190" on="1"/>
        <pt x="904" y="190" on="1"/>
        <pt x="915" y="190" on="0"/>
        <pt x="923" y="175" on="0"/>
        <pt x="923" y="170" on="1"/>
        <pt x="923" y="150" on="0"/>
        <pt x="904" y="150" on="1"/>
        <pt x="520" y="150" on="1"/>
        <pt x="520" y="34" on="1"/>
        <pt x="998" y="34" on="1"/>
        <pt x="1010" y="34" on="0"/>
        <pt x="1018" y="19" on="0"/>
        <pt x="1018" y="14" on="1"/>
        <pt x="1018" y="-6" on="0"/>
        <pt x="998" y="-6" on="1"/>
        <pt x="500" y="-6" on="1"/>
        <pt x="480" y="-6" on="0"/>
        <pt x="480" y="14" on="1"/>
        <pt x="480" y="150" on="1"/>
        <pt x="222" y="150" on="1"/>
        <pt x="72" y="0" on="1"/>
        <pt x="66" y="-6" on="0"/>
        <pt x="58" y="-6" on="1"/>
        <pt x="49" y="-6" on="0"/>
        <pt x="37" y="6" on="0"/>
        <pt x="37" y="15" on="1"/>
        <pt x="37" y="23" on="0"/>
        <pt x="43" y="29" on="1"/>
        <pt x="164" y="150" on="1"/>
        <pt x="109" y="150" on="1"/>
        <pt x="97" y="150" on="0"/>
        <pt x="89" y="165" on="0"/>
        <pt x="89" y="170" on="1"/>
        <pt x="89" y="190" on="0"/>
        <pt x="109" y="190" on="1"/>
        <pt x="204" y="190" on="1"/>
        <pt x="480" y="466" on="1"/>
        <pt x="486" y="471" on="0"/>
      </contour>
      <contour>
        <pt x="480" y="190" on="1"/>
        <pt x="480" y="408" on="1"/>
        <pt x="262" y="190" on="1"/>
      </contour>
    </TTGlyph>
    <TTGlyph name="agrave" xMin="31" yMin="-6" xMax="977" yMax="648">
      <component glyphName="a" x="0" y="0" flags="0x4"/>
      <component glyphName="grave" x="429" y="67" flags="0x4"/>
    </TTGlyph>
    <TTGlyph name="ampersand" xMin="62" yMin="-6" xMax="939" yMax="606">
      <contour>
        <pt x="800" y="95" on="1"/>
        <pt x="860" y="34" on="1"/>
        <pt x="919" y="34" on="1"/>
        <pt x="931" y="34" on="0"/>
        <pt x="939" y="19" on="0"/>
        <pt x="939" y="14" on="1"/>
        <pt x="939" y="-6" on="0"/>
        <pt x="919" y="-6" on="1"/>
        <pt x="851" y="-6" on="1"/>
        <pt x="842" y="-6" on="0"/>
        <pt x="837" y="0" on="1"/>
        <pt x="780" y="58" on="1"/>
        <pt x="723" y="0" on="1"/>
        <pt x="718" y="-6" on="0"/>
        <pt x="709" y="-6" on="1"/>
        <pt x="151" y="-6" on="1"/>
        <pt x="143" y="-6" on="0"/>
        <pt x="137" y="0" on="1"/>
        <pt x="67" y="70" on="1"/>
        <pt x="62" y="74" on="0"/>
        <pt x="62" y="84" on="1"/>
        <pt x="62" y="216" on="1"/>
        <pt x="62" y="226" on="0"/>
        <pt x="67" y="230" on="1"/>
        <pt x="120" y="283" on="1"/>
        <pt x="67" y="336" on="1"/>
        <pt x="62" y="341" on="0"/>
        <pt x="62" y="350" on="1"/>
        <pt x="62" y="516" on="1"/>
        <pt x="62" y="526" on="0"/>
        <pt x="67" y="530" on="1"/>
        <pt x="137" y="600" on="1"/>
        <pt x="143" y="606" on="0"/>
        <pt x="151" y="606" on="1"/>
        <pt x="713" y="606" on="1"/>
        <pt x="721" y="606" on="0"/>
        <pt x="727" y="600" on="1"/>
        <pt x="797" y="530" on="1"/>
        <pt x="802" y="526" on="0"/>
        <pt x="802" y="516" on="1"/>
        <pt x="802" y="420" on="1"/>
        <pt x="802" y="409" on="0"/>
        <pt x="787" y="401" on="0"/>
        <pt x="782" y="401" on="1"/>
        <pt x="762" y="401" on="0"/>
        <pt x="762" y="420" on="1"/>
        <pt x="762" y="507" on="1"/>
        <pt x="704" y="566" on="1"/>
        <pt x="160" y="566" on="1"/>
        <pt x="102" y="507" on="1"/>
        <pt x="102" y="359" on="1"/>
        <pt x="158" y="303" on="1"/>
        <pt x="569" y="303" on="1"/>
        <pt x="580" y="303" on="0"/>
        <pt x="588" y="288" on="0"/>
        <pt x="588" y="283" on="1"/>
        <pt x="588" y="263" on="0"/>
        <pt x="569" y="263" on="1"/>
        <pt x="158" y="263" on="1"/>
        <pt x="102" y="207" on="1"/>
        <pt x="102" y="93" on="1"/>
        <pt x="160" y="34" on="1"/>
        <pt x="700" y="34" on="1"/>
        <pt x="760" y="95" on="1"/>
        <pt x="760" y="263" on="1"/>
        <pt x="687" y="263" on="1"/>
        <pt x="676" y="263" on="0"/>
        <pt x="668" y="278" on="0"/>
        <pt x="668" y="283" on="1"/>
        <pt x="668" y="303" on="0"/>
        <pt x="687" y="303" on="1"/>
        <pt x="870" y="303" on="1"/>
        <pt x="882" y="303" on="0"/>
        <pt x="890" y="288" on="0"/>
        <pt x="890" y="283" on="1"/>
        <pt x="890" y="263" on="0"/>
        <pt x="870" y="263" on="1"/>
        <pt x="800" y="263" on="1"/>
      </contour>
    </TTGlyph>
    <TTGlyph name="asciicircum" xMin="18" yMin="431" xMax="206" yMax="546">
      <contour>
        <pt x="24" y="466" on="1"/>
        <pt x="98" y="539" on="1"/>
        <pt x="105" y="546" on="0"/>
        <pt x="113" y="546" on="1"/>
        <pt x="120" y="546" on="0"/>
        <pt x="126" y="539" on="1"/>
        <pt x="200" y="466" on="1"/>
        <pt x="206" y="460" on="0"/>
        <pt x="206" y="452" on="1"/>
        <pt x="206" y="443" on="0"/>
        <pt x="194" y="431" on="0"/>
        <pt x="185" y="431" on="1"/>
        <pt x="177" y="431" on="0"/>
        <pt x="171" y="437" on="1"/>
        <pt x="112" y="496" on="1"/>
        <pt x="53" y="437" on="1"/>
        <pt x="47" y="431" on="0"/>
        <pt x="39" y="431" on="1"/>
        <pt x="30" y="431" on="0"/>
        <pt x="18" y="443" on="0"/>
        <pt x="18" y="452" on="1"/>
        <pt x="18" y="460" on="0"/>
      </contour>
    </TTGlyph>
    <TTGlyph name="asciitilde" xMin="10" yMin="438" xMax="257" yMax="539">
      <contour>
        <pt x="14" y="461" on="1"/>
        <pt x="86" y="534" on="1"/>
        <pt x="90" y="539" on="0"/>
        <pt x="97" y="539" on="1"/>
        <pt x="101" y="539" on="0"/>
        <pt x="106" y="534" on="1"/>
        <pt x="170" y="470" on="1"/>
        <pt x="234" y="534" on="1"/>
        <pt x="238" y="538" on="0"/>
        <pt x="243" y="538" on="1"/>
        <pt x="257" y="538" on="0"/>
        <pt x="257" y="523" on="1"/>
        <pt x="257" y="518" on="0"/>
        <pt x="254" y="515" on="1"/>
        <pt x="179" y="442" on="1"/>
        <pt x="175" y="438" on="0"/>
        <pt x="169" y="438" on="1"/>
        <pt x="164" y="438" on="0"/>
        <pt x="160" y="442" on="1"/>
        <pt x="96" y="506" on="1"/>
        <pt x="33" y="442" on="1"/>
        <pt x="29" y="438" on="0"/>
        <pt x="24" y="438" on="1"/>
        <pt x="10" y="438" on="0"/>
        <pt x="10" y="452" on="1"/>
        <pt x="10" y="457" on="0"/>
      </contour>
    </TTGlyph>
    <TTGlyph name="asterisk" xMin="5" yMin="394" xMax="374" yMax="669">
      <contour>
        <pt x="141" y="551" on="1"/>
        <pt x="58" y="634" on="1"/>
        <pt x="52" y="640" on="0"/>
        <pt x="52" y="648" on="1"/>
        <pt x="52" y="656" on="0"/>
        <pt x="65" y="669" on="0"/>
        <pt x="73" y="669" on="1"/>
        <pt x="81" y="669" on="0"/>
        <pt x="87" y="662" on="1"/>
        <pt x="190" y="560" on="1"/>
        <pt x="292" y="662" on="1"/>
        <pt x="298" y="668" on="0"/>
        <pt x="306" y="668" on="1"/>
        <pt x="315" y="668" on="0"/>
        <pt x="327" y="656" on="0"/>
        <pt x="327" y="647" on="1"/>
        <pt x="327" y="640" on="0"/>
        <pt x="321" y="634" on="1"/>
        <pt x="238" y="551" on="1"/>
        <pt x="354" y="551" on="1"/>
        <pt x="366" y="551" on="0"/>
        <pt x="374" y="536" on="0"/>
        <pt x="374" y="531" on="1"/>
        <pt x="374" y="511" on="0"/>
        <pt x="354" y="511" on="1"/>
        <pt x="238" y="511" on="1"/>
        <pt x="321" y="429" on="1"/>
        <pt x="327" y="423" on="0"/>
        <pt x="327" y="415" on="1"/>
        <pt x="327" y="407" on="0"/>
        <pt x="314" y="394" on="0"/>
        <pt x="305" y="394" on="1"/>
        <pt x="298" y="394" on="0"/>
        <pt x="292" y="400" on="1"/>
        <pt x="190" y="502" on="1"/>
        <pt x="87" y="400" on="1"/>
        <pt x="81" y="394" on="0"/>
        <pt x="73" y="394" on="1"/>
        <pt x="64" y="394" on="0"/>
        <pt x="52" y="406" on="0"/>
        <pt x="52" y="415" on="1"/>
        <pt x="52" y="423" on="0"/>
        <pt x="58" y="429" on="1"/>
        <pt x="141" y="511" on="1"/>
        <pt x="25" y="511" on="1"/>
        <pt x="13" y="511" on="0"/>
        <pt x="5" y="526" on="0"/>
        <pt x="5" y="531" on="1"/>
        <pt x="5" y="551" on="0"/>
        <pt x="25" y="551" on="1"/>
      </contour>
    </TTGlyph>
    <TTGlyph name="at" xMin="35" yMin="-70" xMax="910" yMax="603">
      <contour>
        <pt x="284" y="274" on="1"/>
        <pt x="444" y="434" on="1"/>
        <pt x="450" y="440" on="0"/>
        <pt x="458" y="440" on="1"/>
        <pt x="490" y="440" on="1"/>
        <pt x="498" y="440" on="0"/>
        <pt x="504" y="434" on="1"/>
        <pt x="767" y="171" on="1"/>
        <pt x="815" y="171" on="1"/>
        <pt x="870" y="229" on="1"/>
        <pt x="870" y="442" on="1"/>
        <pt x="711" y="563" on="1"/>
        <pt x="230" y="563" on="1"/>
        <pt x="75" y="442" on="1"/>
        <pt x="75" y="94" on="1"/>
        <pt x="235" y="-30" on="1"/>
        <pt x="783" y="-30" on="1"/>
        <pt x="870" y="26" on="1"/>
        <pt x="870" y="55" on="1"/>
        <pt x="870" y="67" on="0"/>
        <pt x="885" y="75" on="0"/>
        <pt x="890" y="75" on="1"/>
        <pt x="910" y="75" on="0"/>
        <pt x="910" y="55" on="1"/>
        <pt x="910" y="14" on="1"/>
        <pt x="910" y="3" on="0"/>
        <pt x="902" y="-2" on="1"/>
        <pt x="801" y="-67" on="1"/>
        <pt x="795" y="-70" on="0"/>
        <pt x="790" y="-70" on="1"/>
        <pt x="228" y="-70" on="1"/>
        <pt x="221" y="-70" on="0"/>
        <pt x="216" y="-66" on="1"/>
        <pt x="43" y="68" on="1"/>
        <pt x="35" y="74" on="0"/>
        <pt x="35" y="84" on="1"/>
        <pt x="35" y="451" on="1"/>
        <pt x="35" y="461" on="0"/>
        <pt x="43" y="467" on="1"/>
        <pt x="211" y="599" on="1"/>
        <pt x="218" y="603" on="0"/>
        <pt x="223" y="603" on="1"/>
        <pt x="718" y="603" on="1"/>
        <pt x="723" y="603" on="0"/>
        <pt x="730" y="599" on="1"/>
        <pt x="902" y="467" on="1"/>
        <pt x="910" y="461" on="0"/>
        <pt x="910" y="451" on="1"/>
        <pt x="910" y="221" on="1"/>
        <pt x="910" y="213" on="0"/>
        <pt x="905" y="207" on="1"/>
        <pt x="838" y="138" on="1"/>
        <pt x="832" y="131" on="0"/>
        <pt x="823" y="131" on="1"/>
        <pt x="758" y="131" on="1"/>
        <pt x="750" y="131" on="0"/>
        <pt x="744" y="137" on="1"/>
        <pt x="646" y="234" on="1"/>
        <pt x="302" y="234" on="1"/>
        <pt x="204" y="137" on="1"/>
        <pt x="198" y="131" on="0"/>
        <pt x="190" y="131" on="1"/>
        <pt x="181" y="131" on="0"/>
        <pt x="169" y="143" on="0"/>
        <pt x="169" y="152" on="1"/>
        <pt x="169" y="160" on="0"/>
        <pt x="175" y="166" on="1"/>
        <pt x="244" y="234" on="1"/>
        <pt x="214" y="234" on="1"/>
        <pt x="202" y="234" on="0"/>
        <pt x="194" y="249" on="0"/>
        <pt x="194" y="254" on="1"/>
        <pt x="194" y="274" on="0"/>
        <pt x="214" y="274" on="1"/>
      </contour>
      <contour>
        <pt x="606" y="274" on="1"/>
        <pt x="481" y="400" on="1"/>
        <pt x="467" y="400" on="1"/>
        <pt x="342" y="274" on="1"/>
      </contour>
    </TTGlyph>
    <TTGlyph name="atilde" xMin="31" yMin="-6" xMax="977" yMax="629">
      <component glyphName="a" x="0" y="0" flags="0x4"/>
      <component glyphName="asciitilde" x="384" y="90" flags="0x4"/>
    </TTGlyph>
    <TTGlyph name="b" xMin="41" yMin="-6" xMax="747" yMax="471">
      <contour>
        <pt x="110" y="167" on="1"/>
        <pt x="60" y="167" on="1"/>
        <pt x="49" y="167" on="0"/>
        <pt x="41" y="182" on="0"/>
        <pt x="41" y="187" on="1"/>
        <pt x="41" y="207" on="0"/>
        <pt x="60" y="207" on="1"/>
        <pt x="110" y="207" on="1"/>
        <pt x="110" y="384" on="1"/>
        <pt x="110" y="393" on="0"/>
        <pt x="115" y="398" on="1"/>
        <pt x="182" y="466" on="1"/>
        <pt x="187" y="471" on="0"/>
        <pt x="196" y="471" on="1"/>
        <pt x="596" y="471" on="1"/>
        <pt x="605" y="471" on="0"/>
        <pt x="610" y="466" on="1"/>
        <pt x="708" y="369" on="1"/>
        <pt x="714" y="364" on="0"/>
        <pt x="714" y="354" on="1"/>
        <pt x="714" y="198" on="1"/>
        <pt x="742" y="169" on="1"/>
        <pt x="747" y="163" on="0"/>
        <pt x="747" y="155" on="1"/>
        <pt x="747" y="84" on="1"/>
        <pt x="747" y="75" on="0"/>
        <pt x="742" y="70" on="1"/>
        <pt x="671" y="0" on="1"/>
        <pt x="663" y="-6" on="0"/>
        <pt x="657" y="-6" on="1"/>
        <pt x="130" y="-6" on="1"/>
        <pt x="110" y="-6" on="0"/>
        <pt x="110" y="14" on="1"/>
      </contour>
      <contour>
        <pt x="150" y="207" on="1"/>
        <pt x="674" y="207" on="1"/>
        <pt x="674" y="346" on="1"/>
        <pt x="587" y="431" on="1"/>
        <pt x="205" y="431" on="1"/>
        <pt x="150" y="375" on="1"/>
      </contour>
      <contour>
        <pt x="688" y="167" on="1"/>
        <pt x="150" y="167" on="1"/>
        <pt x="150" y="34" on="1"/>
        <pt x="648" y="34" on="1"/>
        <pt x="707" y="93" on="1"/>
        <pt x="707" y="147" on="1"/>
      </contour>
    </TTGlyph>
    <TTGlyph name="backslash" xMin="61" yMin="-136" xMax="868" yMax="671">
      <contour>
        <pt x="96" y="665" on="1"/>
        <pt x="862" y="-101" on="1"/>
        <pt x="868" y="-107" on="0"/>
        <pt x="868" y="-115" on="1"/>
        <pt x="868" y="-123" on="0"/>
        <pt x="855" y="-136" on="0"/>
        <pt x="846" y="-136" on="1"/>
        <pt x="839" y="-136" on="0"/>
        <pt x="833" y="-130" on="1"/>
        <pt x="67" y="636" on="1"/>
        <pt x="61" y="642" on="0"/>
        <pt x="61" y="650" on="1"/>
        <pt x="61" y="658" on="0"/>
        <pt x="74" y="671" on="0"/>
        <pt x="83" y="671" on="1"/>
        <pt x="90" y="671" on="0"/>
      </contour>
    </TTGlyph>
    <TTGlyph name="bar" xMin="57" yMin="-128" xMax="97" yMax="672">
      <contour>
        <pt x="97" y="653" on="1"/>
        <pt x="97" y="-109" on="1"/>
        <pt x="97" y="-120" on="0"/>
        <pt x="82" y="-128" on="0"/>
        <pt x="77" y="-128" on="1"/>
        <pt x="57" y="-128" on="0"/>
        <pt x="57" y="-109" on="1"/>
        <pt x="57" y="653" on="1"/>
        <pt x="57" y="664" on="0"/>
        <pt x="72" y="672" on="0"/>
        <pt x="77" y="672" on="1"/>
        <pt x="97" y="672" on="0"/>
      </contour>
    </TTGlyph>
    <TTGlyph name="braceleft" xMin="21" yMin="-135" xMax="231" yMax="673">
      <contour>
        <pt x="212" y="633" on="1"/>
        <pt x="185" y="633" on="1"/>
        <pt x="129" y="577" on="1"/>
        <pt x="129" y="353" on="1"/>
        <pt x="129" y="347" on="0"/>
        <pt x="123" y="339" on="1"/>
        <pt x="70" y="284" on="1"/>
        <pt x="122" y="233" on="1"/>
        <pt x="129" y="227" on="0"/>
        <pt x="129" y="218" on="1"/>
        <pt x="129" y="-38" on="1"/>
        <pt x="184" y="-95" on="1"/>
        <pt x="212" y="-95" on="1"/>
        <pt x="223" y="-95" on="0"/>
        <pt x="231" y="-110" on="0"/>
        <pt x="231" y="-115" on="1"/>
        <pt x="231" y="-135" on="0"/>
        <pt x="212" y="-135" on="1"/>
        <pt x="176" y="-135" on="1"/>
        <pt x="167" y="-135" on="0"/>
        <pt x="162" y="-129" on="1"/>
        <pt x="94" y="-59" on="1"/>
        <pt x="89" y="-53" on="0"/>
        <pt x="89" y="-46" on="1"/>
        <pt x="89" y="210" on="1"/>
        <pt x="28" y="269" on="1"/>
        <pt x="21" y="276" on="0"/>
        <pt x="21" y="284" on="1"/>
        <pt x="21" y="289" on="0"/>
        <pt x="27" y="297" on="1"/>
        <pt x="89" y="361" on="1"/>
        <pt x="89" y="586" on="1"/>
        <pt x="89" y="594" on="0"/>
        <pt x="94" y="600" on="1"/>
        <pt x="162" y="667" on="1"/>
        <pt x="167" y="673" on="0"/>
        <pt x="176" y="673" on="1"/>
        <pt x="212" y="673" on="1"/>
        <pt x="223" y="673" on="0"/>
        <pt x="231" y="658" on="0"/>
        <pt x="231" y="653" on="1"/>
        <pt x="231" y="633" on="0"/>
      </contour>
    </TTGlyph>
    <TTGlyph name="braceright" xMin="21" yMin="-135" xMax="231" yMax="673">
      <contour>
        <pt x="40" y="673" on="1"/>
        <pt x="76" y="673" on="1"/>
        <pt x="85" y="673" on="0"/>
        <pt x="90" y="667" on="1"/>
        <pt x="158" y="600" on="1"/>
        <pt x="163" y="594" on="0"/>
        <pt x="163" y="586" on="1"/>
        <pt x="163" y="361" on="1"/>
        <pt x="225" y="297" on="1"/>
        <pt x="231" y="291" on="0"/>
        <pt x="231" y="282" on="1"/>
        <pt x="231" y="275" on="0"/>
        <pt x="224" y="269" on="1"/>
        <pt x="163" y="210" on="1"/>
        <pt x="163" y="-46" on="1"/>
        <pt x="163" y="-53" on="0"/>
        <pt x="158" y="-59" on="1"/>
        <pt x="90" y="-129" on="1"/>
        <pt x="85" y="-135" on="0"/>
        <pt x="76" y="-135" on="1"/>
        <pt x="40" y="-135" on="1"/>
        <pt x="29" y="-135" on="0"/>
        <pt x="21" y="-120" on="0"/>
        <pt x="21" y="-115" on="1"/>
        <pt x="21" y="-95" on="0"/>
        <pt x="40" y="-95" on="1"/>
        <pt x="68" y="-95" on="1"/>
        <pt x="123" y="-38" on="1"/>
        <pt x="123" y="218" on="1"/>
        <pt x="123" y="227" on="0"/>
        <pt x="130" y="233" on="1"/>
        <pt x="182" y="284" on="1"/>
        <pt x="129" y="339" on="1"/>
        <pt x="123" y="347" on="0"/>
        <pt x="123" y="353" on="1"/>
        <pt x="123" y="577" on="1"/>
        <pt x="67" y="633" on="1"/>
        <pt x="40" y="633" on="1"/>
        <pt x="29" y="633" on="0"/>
        <pt x="21" y="648" on="0"/>
        <pt x="21" y="653" on="1"/>
        <pt x="21" y="673" on="0"/>
      </contour>
    </TTGlyph>
    <TTGlyph name="bracketleft" xMin="64" yMin="-134" xMax="339" yMax="670">
      <contour>
        <pt x="319" y="630" on="1"/>
        <pt x="104" y="630" on="1"/>
        <pt x="104" y="-94" on="1"/>
        <pt x="317" y="-94" on="1"/>
        <pt x="328" y="-94" on="0"/>
        <pt x="336" y="-109" on="0"/>
        <pt x="336" y="-114" on="1"/>
        <pt x="336" y="-134" on="0"/>
        <pt x="317" y="-134" on="1"/>
        <pt x="84" y="-134" on="1"/>
        <pt x="64" y="-134" on="0"/>
        <pt x="64" y="-114" on="1"/>
        <pt x="64" y="650" on="1"/>
        <pt x="64" y="670" on="0"/>
        <pt x="84" y="670" on="1"/>
        <pt x="319" y="670" on="1"/>
        <pt x="331" y="670" on="0"/>
        <pt x="339" y="655" on="0"/>
        <pt x="339" y="650" on="1"/>
        <pt x="339" y="630" on="0"/>
      </contour>
    </TTGlyph>
    <TTGlyph name="bracketright" xMin="31" yMin="-134" xMax="306" yMax="670">
      <contour>
        <pt x="50" y="670" on="1"/>
        <pt x="286" y="670" on="1"/>
        <pt x="306" y="670" on="0"/>
        <pt x="306" y="650" on="1"/>
        <pt x="306" y="-114" on="1"/>
        <pt x="306" y="-134" on="0"/>
        <pt x="286" y="-134" on="1"/>
        <pt x="53" y="-134" on="1"/>
        <pt x="41" y="-134" on="0"/>
        <pt x="33" y="-119" on="0"/>
        <pt x="33" y="-114" on="1"/>
        <pt x="33" y="-94" on="0"/>
        <pt x="53" y="-94" on="1"/>
        <pt x="266" y="-94" on="1"/>
        <pt x="266" y="630" on="1"/>
        <pt x="50" y="630" on="1"/>
        <pt x="39" y="630" on="0"/>
        <pt x="31" y="645" on="0"/>
        <pt x="31" y="650" on="1"/>
        <pt x="31" y="670" on="0"/>
      </contour>
    </TTGlyph>
    <TTGlyph name="bullet" xMin="19" yMin="262" xMax="163" yMax="406">
      <contour>
        <pt x="91" y="406" on="1"/>
        <pt x="121" y="406" on="0"/>
        <pt x="163" y="364" on="0"/>
        <pt x="163" y="334" on="1"/>
        <pt x="163" y="304" on="0"/>
        <pt x="121" y="262" on="0"/>
        <pt x="91" y="262" on="1"/>
        <pt x="61" y="262" on="0"/>
        <pt x="19" y="304" on="0"/>
        <pt x="19" y="334" on="1"/>
        <pt x="19" y="364" on="0"/>
        <pt x="61" y="406" on="0"/>
      </contour>
    </TTGlyph>
    <TTGlyph name="c" xMin="60" yMin="-6" xMax="801" yMax="471">
      <contour>
        <pt x="694" y="350" on="1"/>
        <pt x="694" y="378" on="1"/>
        <pt x="639" y="431" on="1"/>
        <pt x="190" y="431" on="1"/>
        <pt x="100" y="342" on="1"/>
        <pt x="100" y="126" on="1"/>
        <pt x="192" y="34" on="1"/>
        <pt x="670" y="34" on="1"/>
        <pt x="761" y="126" on="1"/>
        <pt x="761" y="156" on="1"/>
        <pt x="761" y="167" on="0"/>
        <pt x="776" y="175" on="0"/>
        <pt x="781" y="175" on="1"/>
        <pt x="801" y="175" on="0"/>
        <pt x="801" y="156" on="1"/>
        <pt x="801" y="118" on="1"/>
        <pt x="801" y="111" on="0"/>
        <pt x="795" y="103" on="1"/>
        <pt x="693" y="0" on="1"/>
        <pt x="688" y="-6" on="0"/>
        <pt x="678" y="-6" on="1"/>
        <pt x="183" y="-6" on="1"/>
        <pt x="175" y="-6" on="0"/>
        <pt x="169" y="0" on="1"/>
        <pt x="66" y="103" on="1"/>
        <pt x="60" y="109" on="0"/>
        <pt x="60" y="118" on="1"/>
        <pt x="60" y="350" on="1"/>
        <pt x="60" y="359" on="0"/>
        <pt x="66" y="365" on="1"/>
        <pt x="166" y="466" on="1"/>
        <pt x="172" y="471" on="0"/>
        <pt x="181" y="471" on="1"/>
        <pt x="648" y="471" on="1"/>
        <pt x="657" y="471" on="0"/>
        <pt x="662" y="466" on="1"/>
        <pt x="728" y="401" on="1"/>
        <pt x="734" y="396" on="0"/>
        <pt x="734" y="386" on="1"/>
        <pt x="734" y="350" on="1"/>
        <pt x="734" y="339" on="0"/>
        <pt x="719" y="331" on="0"/>
        <pt x="714" y="331" on="1"/>
        <pt x="694" y="331" on="0"/>
      </contour>
    </TTGlyph>
    <TTGlyph name="ccedilla" xMin="35" yMin="-150" xMax="776" yMax="471">
      <contour>
        <pt x="410" y="-6" on="1"/>
        <pt x="362" y="-6" on="1"/>
        <pt x="158" y="-6" on="1"/>
        <pt x="150" y="-6" on="0"/>
        <pt x="144" y="0" on="1"/>
        <pt x="41" y="103" on="1"/>
        <pt x="35" y="109" on="0"/>
        <pt x="35" y="118" on="1"/>
        <pt x="35" y="350" on="1"/>
        <pt x="35" y="359" on="0"/>
        <pt x="41" y="365" on="1"/>
        <pt x="142" y="466" on="1"/>
        <pt x="147" y="471" on="0"/>
        <pt x="156" y="471" on="1"/>
        <pt x="623" y="471" on="1"/>
        <pt x="632" y="471" on="0"/>
        <pt x="638" y="466" on="1"/>
        <pt x="703" y="401" on="1"/>
        <pt x="709" y="396" on="0"/>
        <pt x="709" y="386" on="1"/>
        <pt x="709" y="350" on="1"/>
        <pt x="709" y="339" on="0"/>
        <pt x="694" y="331" on="0"/>
        <pt x="689" y="331" on="1"/>
        <pt x="669" y="331" on="0"/>
        <pt x="669" y="350" on="1"/>
        <pt x="669" y="378" on="1"/>
        <pt x="614" y="431" on="1"/>
        <pt x="165" y="431" on="1"/>
        <pt x="75" y="342" on="1"/>
        <pt x="75" y="126" on="1"/>
        <pt x="167" y="34" on="1"/>
        <pt x="645" y="34" on="1"/>
        <pt x="736" y="126" on="1"/>
        <pt x="736" y="156" on="1"/>
        <pt x="736" y="167" on="0"/>
        <pt x="751" y="175" on="0"/>
        <pt x="756" y="175" on="1"/>
        <pt x="776" y="175" on="0"/>
        <pt x="776" y="156" on="1"/>
        <pt x="776" y="118" on="1"/>
        <pt x="776" y="111" on="0"/>
        <pt x="770" y="103" on="1"/>
        <pt x="668" y="0" on="1"/>
        <pt x="663" y="-6" on="0"/>
        <pt x="654" y="-6" on="1"/>
        <pt x="471" y="-6" on="1"/>
        <pt x="488" y="-28" on="0"/>
        <pt x="488" y="-58" on="1"/>
        <pt x="488" y="-96" on="0"/>
        <pt x="434" y="-150" on="0"/>
        <pt x="396" y="-150" on="1"/>
        <pt x="358" y="-150" on="0"/>
        <pt x="304" y="-96" on="0"/>
        <pt x="304" y="-58" on="1"/>
        <pt x="304" y="-46" on="0"/>
        <pt x="319" y="-38" on="0"/>
        <pt x="324" y="-38" on="1"/>
        <pt x="344" y="-38" on="0"/>
        <pt x="344" y="-58" on="1"/>
        <pt x="344" y="-79" on="0"/>
        <pt x="375" y="-110" on="0"/>
        <pt x="396" y="-110" on="1"/>
        <pt x="418" y="-110" on="0"/>
        <pt x="448" y="-80" on="0"/>
        <pt x="448" y="-58" on="1"/>
        <pt x="448" y="-18" on="0"/>
      </contour>
    </TTGlyph>
    <TTGlyph name="cedilla" xMin="-23" yMin="-150" xMax="161" yMax="34">
      <contour>
        <pt x="69" y="34" on="1"/>
        <pt x="108" y="34" on="0"/>
        <pt x="161" y="-19" on="0"/>
        <pt x="161" y="-58" on="1"/>
        <pt x="161" y="-96" on="0"/>
        <pt x="107" y="-150" on="0"/>
        <pt x="69" y="-150" on="1"/>
        <pt x="31" y="-150" on="0"/>
        <pt x="-23" y="-96" on="0"/>
        <pt x="-23" y="-58" on="1"/>
        <pt x="-23" y="-46" on="0"/>
        <pt x="-8" y="-38" on="0"/>
        <pt x="-3" y="-38" on="1"/>
        <pt x="17" y="-38" on="0"/>
        <pt x="17" y="-58" on="1"/>
        <pt x="17" y="-79" on="0"/>
        <pt x="48" y="-110" on="0"/>
        <pt x="69" y="-110" on="1"/>
        <pt x="91" y="-110" on="0"/>
        <pt x="121" y="-80" on="0"/>
        <pt x="121" y="-58" on="1"/>
        <pt x="121" y="-36" on="0"/>
        <pt x="91" y="-6" on="0"/>
        <pt x="69" y="-6" on="1"/>
        <pt x="57" y="-6" on="0"/>
        <pt x="49" y="9" on="0"/>
        <pt x="49" y="14" on="1"/>
        <pt x="49" y="34" on="0"/>
      </contour>
    </TTGlyph>
    <TTGlyph name="cent" xMin="19" yMin="-67" xMax="660" yMax="675">
      <contour>
        <pt x="350" y="608" on="1"/>
        <pt x="508" y="608" on="1"/>
        <pt x="517" y="608" on="0"/>
        <pt x="522" y="602" on="1"/>
        <pt x="587" y="538" on="1"/>
        <pt x="593" y="532" on="0"/>
        <pt x="593" y="523" on="1"/>
        <pt x="593" y="482" on="1"/>
        <pt x="593" y="471" on="0"/>
        <pt x="578" y="463" on="0"/>
        <pt x="573" y="463" on="1"/>
        <pt x="553" y="463" on="0"/>
        <pt x="553" y="482" on="1"/>
        <pt x="553" y="514" on="1"/>
        <pt x="499" y="568" on="1"/>
        <pt x="350" y="568" on="1"/>
        <pt x="350" y="34" on="1"/>
        <pt x="564" y="34" on="1"/>
        <pt x="620" y="90" on="1"/>
        <pt x="620" y="127" on="1"/>
        <pt x="620" y="139" on="0"/>
        <pt x="635" y="147" on="0"/>
        <pt x="640" y="147" on="1"/>
        <pt x="660" y="147" on="0"/>
        <pt x="660" y="127" on="1"/>
        <pt x="660" y="82" on="1"/>
        <pt x="660" y="73" on="0"/>
        <pt x="654" y="67" on="1"/>
        <pt x="587" y="0" on="1"/>
        <pt x="581" y="-6" on="0"/>
        <pt x="573" y="-6" on="1"/>
        <pt x="350" y="-6" on="1"/>
        <pt x="350" y="-48" on="1"/>
        <pt x="350" y="-59" on="0"/>
        <pt x="335" y="-67" on="0"/>
        <pt x="330" y="-67" on="1"/>
        <pt x="310" y="-67" on="0"/>
        <pt x="310" y="-48" on="1"/>
        <pt x="310" y="-6" on="1"/>
        <pt x="147" y="-6" on="1"/>
        <pt x="139" y="-6" on="0"/>
        <pt x="133" y="0" on="1"/>
        <pt x="25" y="108" on="1"/>
        <pt x="19" y="114" on="0"/>
        <pt x="19" y="122" on="1"/>
        <pt x="19" y="482" on="1"/>
        <pt x="19" y="491" on="0"/>
        <pt x="25" y="497" on="1"/>
        <pt x="130" y="602" on="1"/>
        <pt x="136" y="608" on="0"/>
        <pt x="145" y="608" on="1"/>
        <pt x="310" y="608" on="1"/>
        <pt x="310" y="655" on="1"/>
        <pt x="310" y="667" on="0"/>
        <pt x="325" y="675" on="0"/>
        <pt x="330" y="675" on="1"/>
        <pt x="350" y="675" on="0"/>
        <pt x="350" y="655" on="1"/>
      </contour>
      <contour>
        <pt x="310" y="568" on="1"/>
        <pt x="154" y="568" on="1"/>
        <pt x="59" y="474" on="1"/>
        <pt x="59" y="131" on="1"/>
        <pt x="156" y="34" on="1"/>
        <pt x="310" y="34" on="1"/>
      </contour>
    </TTGlyph>
    <TTGlyph name="colon" xMin="31" yMin="24" xMax="71" yMax="540">
      <contour>
        <pt x="71" y="521" on="1"/>
        <pt x="71" y="449" on="1"/>
        <pt x="71" y="437" on="0"/>
        <pt x="56" y="429" on="0"/>
        <pt x="51" y="429" on="1"/>
        <pt x="31" y="429" on="0"/>
        <pt x="31" y="449" on="1"/>
        <pt x="31" y="521" on="1"/>
        <pt x="31" y="532" on="0"/>
        <pt x="46" y="540" on="0"/>
        <pt x="51" y="540" on="1"/>
        <pt x="71" y="540" on="0"/>
      </contour>
      <contour>
        <pt x="71" y="115" on="1"/>
        <pt x="71" y="43" on="1"/>
        <pt x="71" y="32" on="0"/>
        <pt x="56" y="24" on="0"/>
        <pt x="51" y="24" on="1"/>
        <pt x="31" y="24" on="0"/>
        <pt x="31" y="43" on="1"/>
        <pt x="31" y="115" on="1"/>
        <pt x="31" y="127" on="0"/>
        <pt x="46" y="135" on="0"/>
        <pt x="51" y="135" on="1"/>
        <pt x="71" y="135" on="0"/>
      </contour>
    </TTGlyph>
    <TTGlyph name="comma" xMin="7" yMin="-139" xMax="155" yMax="110">
      <contour>
        <pt x="68" y="110" on="1"/>
        <pt x="135" y="110" on="1"/>
        <pt x="155" y="110" on="0"/>
        <pt x="155" y="90" on="1"/>
        <pt x="155" y="-10" on="1"/>
        <pt x="155" y="-18" on="0"/>
        <pt x="150" y="-24" on="1"/>
        <pt x="42" y="-133" on="1"/>
        <pt x="36" y="-139" on="0"/>
        <pt x="28" y="-139" on="1"/>
        <pt x="20" y="-139" on="0"/>
        <pt x="7" y="-126" on="0"/>
        <pt x="7" y="-117" on="1"/>
        <pt x="7" y="-110" on="0"/>
        <pt x="13" y="-104" on="1"/>
        <pt x="115" y="-1" on="1"/>
        <pt x="115" y="70" on="1"/>
        <pt x="68" y="70" on="1"/>
        <pt x="57" y="70" on="0"/>
        <pt x="49" y="85" on="0"/>
        <pt x="49" y="90" on="1"/>
        <pt x="49" y="110" on="0"/>
      </contour>
    </TTGlyph>
    <TTGlyph name="copyright" xMin="54" yMin="-6" xMax="739" yMax="589">
      <contour>
        <pt x="59" y="478" on="1"/>
        <pt x="164" y="583" on="1"/>
        <pt x="169" y="589" on="0"/>
        <pt x="178" y="589" on="1"/>
        <pt x="614" y="589" on="1"/>
        <pt x="624" y="589" on="0"/>
        <pt x="629" y="583" on="1"/>
        <pt x="734" y="478" on="1"/>
        <pt x="739" y="472" on="0"/>
        <pt x="739" y="463" on="1"/>
        <pt x="739" y="120" on="1"/>
        <pt x="739" y="111" on="0"/>
        <pt x="734" y="106" on="1"/>
        <pt x="627" y="0" on="1"/>
        <pt x="619" y="-6" on="0"/>
        <pt x="613" y="-6" on="1"/>
        <pt x="178" y="-6" on="1"/>
        <pt x="169" y="-6" on="0"/>
        <pt x="164" y="0" on="1"/>
        <pt x="59" y="106" on="1"/>
        <pt x="54" y="111" on="0"/>
        <pt x="54" y="120" on="1"/>
        <pt x="54" y="463" on="1"/>
        <pt x="54" y="472" on="0"/>
      </contour>
      <contour>
        <pt x="94" y="129" on="1"/>
        <pt x="187" y="34" on="1"/>
        <pt x="604" y="34" on="1"/>
        <pt x="699" y="129" on="1"/>
        <pt x="699" y="454" on="1"/>
        <pt x="606" y="549" on="1"/>
        <pt x="187" y="549" on="1"/>
        <pt x="94" y="454" on="1"/>
      </contour>
      <contour>
        <pt x="507" y="374" on="1"/>
        <pt x="507" y="396" on="1"/>
        <pt x="466" y="436" on="1"/>
        <pt x="297" y="436" on="1"/>
        <pt x="226" y="366" on="1"/>
        <pt x="226" y="220" on="1"/>
        <pt x="298" y="148" on="1"/>
        <pt x="490" y="148" on="1"/>
        <pt x="562" y="220" on="1"/>
        <pt x="562" y="243" on="1"/>
        <pt x="562" y="255" on="0"/>
        <pt x="577" y="263" on="0"/>
        <pt x="582" y="263" on="1"/>
        <pt x="602" y="263" on="0"/>
        <pt x="602" y="243" on="1"/>
        <pt x="602" y="211" on="1"/>
        <pt x="602" y="203" on="0"/>
        <pt x="596" y="197" on="1"/>
        <pt x="513" y="114" on="1"/>
        <pt x="507" y="108" on="0"/>
        <pt x="498" y="108" on="1"/>
        <pt x="289" y="108" on="1"/>
        <pt x="280" y="108" on="0"/>
        <pt x="274" y="114" on="1"/>
        <pt x="191" y="197" on="1"/>
        <pt x="186" y="202" on="0"/>
        <pt x="186" y="211" on="1"/>
        <pt x="186" y="374" on="1"/>
        <pt x="186" y="385" on="0"/>
        <pt x="191" y="389" on="1"/>
        <pt x="274" y="470" on="1"/>
        <pt x="280" y="476" on="0"/>
        <pt x="288" y="476" on="1"/>
        <pt x="474" y="476" on="1"/>
        <pt x="479" y="476" on="0"/>
        <pt x="487" y="470" on="1"/>
        <pt x="541" y="418" on="1"/>
        <pt x="547" y="413" on="0"/>
        <pt x="547" y="404" on="1"/>
        <pt x="547" y="374" on="1"/>
        <pt x="547" y="363" on="0"/>
        <pt x="532" y="355" on="0"/>
        <pt x="527" y="355" on="1"/>
        <pt x="507" y="355" on="0"/>
      </contour>
    </TTGlyph>
    <TTGlyph name="d" xMin="42" yMin="-6" xMax="648" yMax="474">
      <contour>
        <pt x="42" y="14" on="1"/>
        <pt x="42" y="420" on="1"/>
        <pt x="42" y="430" on="0"/>
        <pt x="47" y="434" on="1"/>
        <pt x="81" y="468" on="1"/>
        <pt x="87" y="474" on="0"/>
        <pt x="95" y="474" on="1"/>
        <pt x="522" y="474" on="1"/>
        <pt x="528" y="474" on="0"/>
        <pt x="536" y="468" on="1"/>
        <pt x="642" y="365" on="1"/>
        <pt x="648" y="359" on="0"/>
        <pt x="648" y="350" on="1"/>
        <pt x="648" y="120" on="1"/>
        <pt x="648" y="111" on="0"/>
        <pt x="642" y="106" on="1"/>
        <pt x="536" y="0" on="1"/>
        <pt x="528" y="-6" on="0"/>
        <pt x="522" y="-6" on="1"/>
        <pt x="62" y="-6" on="1"/>
        <pt x="42" y="-6" on="0"/>
      </contour>
      <contour>
        <pt x="513" y="34" on="1"/>
        <pt x="608" y="129" on="1"/>
        <pt x="608" y="342" on="1"/>
        <pt x="514" y="434" on="1"/>
        <pt x="104" y="434" on="1"/>
        <pt x="82" y="411" on="1"/>
        <pt x="82" y="34" on="1"/>
      </contour>
    </TTGlyph>
    <TTGlyph name="dagger" xMin="47" yMin="224" xMax="316" yMax="659">
      <contour>
        <pt x="162" y="564" on="1"/>
        <pt x="162" y="640" on="1"/>
        <pt x="162" y="651" on="0"/>
        <pt x="177" y="659" on="0"/>
        <pt x="182" y="659" on="1"/>
        <pt x="202" y="659" on="0"/>
        <pt x="202" y="640" on="1"/>
        <pt x="202" y="564" on="1"/>
        <pt x="297" y="564" on="1"/>
        <pt x="308" y="564" on="0"/>
        <pt x="316" y="549" on="0"/>
        <pt x="316" y="544" on="1"/>
        <pt x="316" y="524" on="0"/>
        <pt x="297" y="524" on="1"/>
        <pt x="202" y="524" on="1"/>
        <pt x="202" y="243" on="1"/>
        <pt x="202" y="232" on="0"/>
        <pt x="187" y="224" on="0"/>
        <pt x="182" y="224" on="1"/>
        <pt x="162" y="224" on="0"/>
        <pt x="162" y="243" on="1"/>
        <pt x="162" y="524" on="1"/>
        <pt x="66" y="524" on="1"/>
        <pt x="55" y="524" on="0"/>
        <pt x="47" y="539" on="0"/>
        <pt x="47" y="544" on="1"/>
        <pt x="47" y="564" on="0"/>
        <pt x="66" y="564" on="1"/>
      </contour>
    </TTGlyph>
    <TTGlyph name="degree" xMin="-2" yMin="408" xMax="264" yMax="674">
      <contour>
        <pt x="218" y="642" on="1"/>
        <pt x="240" y="624" on="0"/>
        <pt x="264" y="569" on="0"/>
        <pt x="264" y="540" on="1"/>
        <pt x="264" y="491" on="0"/>
        <pt x="215" y="432" on="0"/>
        <pt x="160" y="408" on="0"/>
        <pt x="131" y="408" on="1"/>
        <pt x="82" y="408" on="0"/>
        <pt x="-2" y="478" on="0"/>
        <pt x="-2" y="541" on="1"/>
        <pt x="-2" y="589" on="0"/>
        <pt x="69" y="674" on="0"/>
        <pt x="132" y="674" on="1"/>
        <pt x="180" y="674" on="0"/>
      </contour>
      <contour>
        <pt x="70" y="470" on="1"/>
        <pt x="96" y="448" on="0"/>
        <pt x="132" y="448" on="1"/>
        <pt x="175" y="448" on="0"/>
        <pt x="224" y="505" on="0"/>
        <pt x="224" y="541" on="1"/>
        <pt x="224" y="585" on="0"/>
        <pt x="167" y="634" on="0"/>
        <pt x="131" y="634" on="1"/>
        <pt x="87" y="634" on="0"/>
        <pt x="38" y="576" on="0"/>
        <pt x="38" y="540" on="1"/>
        <pt x="38" y="497" on="0"/>
      </contour>
    </TTGlyph>
    <TTGlyph name="dieresis" xMin="26" yMin="453" xMax="212" yMax="598">
      <contour>
        <pt x="66" y="578" on="1"/>
        <pt x="66" y="473" on="1"/>
        <pt x="66" y="461" on="0"/>
        <pt x="51" y="453" on="0"/>
        <pt x="46" y="453" on="1"/>
        <pt x="26" y="453" on="0"/>
        <pt x="26" y="473" on="1"/>
        <pt x="26" y="578" on="1"/>
        <pt x="26" y="590" on="0"/>
        <pt x="41" y="598" on="0"/>
        <pt x="46" y="598" on="1"/>
        <pt x="66" y="598" on="0"/>
      </contour>
      <contour>
        <pt x="212" y="578" on="1"/>
        <pt x="212" y="473" on="1"/>
        <pt x="212" y="461" on="0"/>
        <pt x="197" y="453" on="0"/>
        <pt x="192" y="453" on="1"/>
        <pt x="172" y="453" on="0"/>
        <pt x="172" y="473" on="1"/>
        <pt x="172" y="578" on="1"/>
        <pt x="172" y="590" on="0"/>
        <pt x="187" y="598" on="0"/>
        <pt x="192" y="598" on="1"/>
        <pt x="212" y="598" on="0"/>
      </contour>
    </TTGlyph>
    <TTGlyph name="divide" xMin="33" yMin="38" xMax="576" yMax="439">
      <contour>
        <pt x="53" y="272" on="1"/>
        <pt x="557" y="272" on="1"/>
        <pt x="568" y="272" on="0"/>
        <pt x="576" y="257" on="0"/>
        <pt x="576" y="252" on="1"/>
        <pt x="576" y="232" on="0"/>
        <pt x="557" y="232" on="1"/>
        <pt x="53" y="232" on="1"/>
        <pt x="41" y="232" on="0"/>
        <pt x="33" y="247" on="0"/>
        <pt x="33" y="252" on="1"/>
        <pt x="33" y="272" on="0"/>
      </contour>
      <contour>
        <pt x="325" y="419" on="1"/>
        <pt x="325" y="359" on="1"/>
        <pt x="325" y="348" on="0"/>
        <pt x="310" y="340" on="0"/>
        <pt x="305" y="340" on="1"/>
        <pt x="285" y="340" on="0"/>
        <pt x="285" y="359" on="1"/>
        <pt x="285" y="419" on="1"/>
        <pt x="285" y="431" on="0"/>
        <pt x="300" y="439" on="0"/>
        <pt x="305" y="439" on="1"/>
        <pt x="325" y="439" on="0"/>
      </contour>
      <contour>
        <pt x="325" y="118" on="1"/>
        <pt x="325" y="58" on="1"/>
        <pt x="325" y="46" on="0"/>
        <pt x="310" y="38" on="0"/>
        <pt x="305" y="38" on="1"/>
        <pt x="285" y="38" on="0"/>
        <pt x="285" y="58" on="1"/>
        <pt x="285" y="118" on="1"/>
        <pt x="285" y="129" on="0"/>
        <pt x="300" y="137" on="0"/>
        <pt x="305" y="137" on="1"/>
        <pt x="325" y="137" on="0"/>
      </contour>
    </TTGlyph>
    <TTGlyph name="dollar" xMin="62" yMin="-67" xMax="735" yMax="675">
      <contour>
        <pt x="318" y="606" on="1"/>
        <pt x="474" y="606" on="1"/>
        <pt x="474" y="655" on="1"/>
        <pt x="474" y="667" on="0"/>
        <pt x="489" y="675" on="0"/>
        <pt x="494" y="675" on="1"/>
        <pt x="514" y="675" on="0"/>
        <pt x="514" y="655" on="1"/>
        <pt x="514" y="606" on="1"/>
        <pt x="646" y="606" on="1"/>
        <pt x="654" y="606" on="0"/>
        <pt x="660" y="600" on="1"/>
        <pt x="730" y="530" on="1"/>
        <pt x="735" y="525" on="0"/>
        <pt x="735" y="516" on="1"/>
        <pt x="735" y="418" on="1"/>
        <pt x="735" y="406" on="0"/>
        <pt x="720" y="398" on="0"/>
        <pt x="715" y="398" on="1"/>
        <pt x="695" y="398" on="0"/>
        <pt x="695" y="418" on="1"/>
        <pt x="695" y="507" on="1"/>
        <pt x="637" y="566" on="1"/>
        <pt x="514" y="566" on="1"/>
        <pt x="514" y="303" on="1"/>
        <pt x="682" y="303" on="1"/>
        <pt x="690" y="303" on="0"/>
        <pt x="696" y="298" on="1"/>
        <pt x="730" y="264" on="1"/>
        <pt x="735" y="258" on="0"/>
        <pt x="735" y="250" on="1"/>
        <pt x="735" y="86" on="1"/>
        <pt x="735" y="78" on="0"/>
        <pt x="730" y="72" on="1"/>
        <pt x="658" y="0" on="1"/>
        <pt x="652" y="-6" on="0"/>
        <pt x="643" y="-6" on="1"/>
        <pt x="514" y="-6" on="1"/>
        <pt x="514" y="-48" on="1"/>
        <pt x="514" y="-59" on="0"/>
        <pt x="499" y="-67" on="0"/>
        <pt x="494" y="-67" on="1"/>
        <pt x="474" y="-67" on="0"/>
        <pt x="474" y="-48" on="1"/>
        <pt x="474" y="-6" on="1"/>
        <pt x="318" y="-6" on="1"/>
        <pt x="318" y="-48" on="1"/>
        <pt x="318" y="-59" on="0"/>
        <pt x="303" y="-67" on="0"/>
        <pt x="298" y="-67" on="1"/>
        <pt x="278" y="-67" on="0"/>
        <pt x="278" y="-48" on="1"/>
        <pt x="278" y="-6" on="1"/>
        <pt x="154" y="-6" on="1"/>
        <pt x="145" y="-6" on="0"/>
        <pt x="139" y="0" on="1"/>
        <pt x="67" y="72" on="1"/>
        <pt x="62" y="77" on="0"/>
        <pt x="62" y="86" on="1"/>
        <pt x="62" y="187" on="1"/>
        <pt x="62" y="199" on="0"/>
        <pt x="77" y="207" on="0"/>
        <pt x="82" y="207" on="1"/>
        <pt x="102" y="207" on="0"/>
        <pt x="102" y="187" on="1"/>
        <pt x="102" y="95" on="1"/>
        <pt x="162" y="34" on="1"/>
        <pt x="278" y="34" on="1"/>
        <pt x="278" y="263" on="1"/>
        <pt x="151" y="263" on="1"/>
        <pt x="143" y="263" on="0"/>
        <pt x="137" y="269" on="1"/>
        <pt x="67" y="338" on="1"/>
        <pt x="62" y="343" on="0"/>
        <pt x="62" y="353" on="1"/>
        <pt x="62" y="518" on="1"/>
        <pt x="62" y="528" on="0"/>
        <pt x="67" y="533" on="1"/>
        <pt x="134" y="600" on="1"/>
        <pt x="140" y="606" on="0"/>
        <pt x="149" y="606" on="1"/>
        <pt x="278" y="606" on="1"/>
        <pt x="278" y="655" on="1"/>
        <pt x="278" y="667" on="0"/>
        <pt x="293" y="675" on="0"/>
        <pt x="298" y="675" on="1"/>
        <pt x="318" y="675" on="0"/>
        <pt x="318" y="655" on="1"/>
      </contour>
      <contour>
        <pt x="514" y="34" on="1"/>
        <pt x="634" y="34" on="1"/>
        <pt x="695" y="95" on="1"/>
        <pt x="695" y="241" on="1"/>
        <pt x="673" y="263" on="1"/>
        <pt x="514" y="263" on="1"/>
      </contour>
      <contour>
        <pt x="318" y="34" on="1"/>
        <pt x="474" y="34" on="1"/>
        <pt x="474" y="263" on="1"/>
        <pt x="318" y="263" on="1"/>
      </contour>
      <contour>
        <pt x="318" y="566" on="1"/>
        <pt x="318" y="303" on="1"/>
        <pt x="474" y="303" on="1"/>
        <pt x="474" y="566" on="1"/>
      </contour>
      <contour>
        <pt x="278" y="303" on="1"/>
        <pt x="278" y="566" on="1"/>
        <pt x="158" y="566" on="1"/>
        <pt x="102" y="510" on="1"/>
        <pt x="102" y="362" on="1"/>
        <pt x="160" y="303" on="1"/>
      </contour>
    </TTGlyph>
    <TTGlyph name="e" xMin="21" yMin="-6" xMax="700" yMax="471">
      <contour>
        <pt x="92" y="205" on="1"/>
        <pt x="92" y="418" on="1"/>
        <pt x="92" y="427" on="0"/>
        <pt x="98" y="433" on="1"/>
        <pt x="132" y="466" on="1"/>
        <pt x="138" y="471" on="0"/>
        <pt x="146" y="471" on="1"/>
        <pt x="681" y="471" on="1"/>
        <pt x="692" y="471" on="0"/>
        <pt x="700" y="456" on="0"/>
        <pt x="700" y="451" on="1"/>
        <pt x="700" y="431" on="0"/>
        <pt x="681" y="431" on="1"/>
        <pt x="154" y="431" on="1"/>
        <pt x="132" y="410" on="1"/>
        <pt x="132" y="205" on="1"/>
        <pt x="544" y="205" on="1"/>
        <pt x="555" y="205" on="0"/>
        <pt x="563" y="190" on="0"/>
        <pt x="563" y="185" on="1"/>
        <pt x="563" y="165" on="0"/>
        <pt x="544" y="165" on="1"/>
        <pt x="132" y="165" on="1"/>
        <pt x="132" y="34" on="1"/>
        <pt x="676" y="34" on="1"/>
        <pt x="687" y="34" on="0"/>
        <pt x="695" y="19" on="0"/>
        <pt x="695" y="14" on="1"/>
        <pt x="695" y="-6" on="0"/>
        <pt x="676" y="-6" on="1"/>
        <pt x="112" y="-6" on="1"/>
        <pt x="92" y="-6" on="0"/>
        <pt x="92" y="14" on="1"/>
        <pt x="92" y="165" on="1"/>
        <pt x="40" y="165" on="1"/>
        <pt x="29" y="165" on="0"/>
        <pt x="21" y="180" on="0"/>
        <pt x="21" y="185" on="1"/>
        <pt x="21" y="205" on="0"/>
        <pt x="40" y="205" on="1"/>
      </contour>
    </TTGlyph>
    <TTGlyph name="eacute" xMin="27" yMin="-6" xMax="707" yMax="648">
      <contour>
        <pt x="98" y="205" on="1"/>
        <pt x="98" y="418" on="1"/>
        <pt x="98" y="427" on="0"/>
        <pt x="105" y="433" on="1"/>
        <pt x="138" y="466" on="1"/>
        <pt x="144" y="471" on="0"/>
        <pt x="152" y="471" on="1"/>
        <pt x="687" y="471" on="1"/>
        <pt x="699" y="471" on="0"/>
        <pt x="707" y="456" on="0"/>
        <pt x="707" y="451" on="1"/>
        <pt x="707" y="431" on="0"/>
        <pt x="687" y="431" on="1"/>
        <pt x="160" y="431" on="1"/>
        <pt x="138" y="410" on="1"/>
        <pt x="138" y="205" on="1"/>
        <pt x="550" y="205" on="1"/>
        <pt x="562" y="205" on="0"/>
        <pt x="570" y="190" on="0"/>
        <pt x="570" y="185" on="1"/>
        <pt x="570" y="165" on="0"/>
        <pt x="550" y="165" on="1"/>
        <pt x="138" y="165" on="1"/>
        <pt x="138" y="34" on="1"/>
        <pt x="682" y="34" on="1"/>
        <pt x="694" y="34" on="0"/>
        <pt x="702" y="19" on="0"/>
        <pt x="702" y="14" on="1"/>
        <pt x="702" y="-6" on="0"/>
        <pt x="682" y="-6" on="1"/>
        <pt x="118" y="-6" on="1"/>
        <pt x="98" y="-6" on="0"/>
        <pt x="98" y="14" on="1"/>
        <pt x="98" y="165" on="1"/>
        <pt x="46" y="165" on="1"/>
        <pt x="35" y="165" on="0"/>
        <pt x="27" y="180" on="0"/>
        <pt x="27" y="185" on="1"/>
        <pt x="27" y="205" on="0"/>
        <pt x="46" y="205" on="1"/>
      </contour>
      <contour>
        <pt x="478" y="614" on="1"/>
        <pt x="394" y="530" on="1"/>
        <pt x="388" y="524" on="0"/>
        <pt x="380" y="524" on="1"/>
        <pt x="372" y="524" on="0"/>
        <pt x="359" y="537" on="0"/>
        <pt x="359" y="545" on="1"/>
        <pt x="359" y="553" on="0"/>
        <pt x="366" y="559" on="1"/>
        <pt x="449" y="642" on="1"/>
        <pt x="455" y="648" on="0"/>
        <pt x="463" y="648" on="1"/>
        <pt x="472" y="648" on="0"/>
        <pt x="484" y="636" on="0"/>
        <pt x="484" y="627" on="1"/>
        <pt x="484" y="620" on="0"/>
      </contour>
    </TTGlyph>
    <TTGlyph name="ecircumflex" xMin="9" yMin="-6" xMax="688" yMax="642">
      <contour>
        <pt x="319" y="562" on="1"/>
        <pt x="393" y="635" on="1"/>
        <pt x="400" y="642" on="0"/>
        <pt x="408" y="642" on="1"/>
        <pt x="415" y="642" on="0"/>
        <pt x="422" y="635" on="1"/>
        <pt x="495" y="562" on="1"/>
        <pt x="501" y="556" on="0"/>
        <pt x="501" y="548" on="1"/>
        <pt x="501" y="539" on="0"/>
        <pt x="489" y="527" on="0"/>
        <pt x="480" y="527" on="1"/>
        <pt x="472" y="527" on="0"/>
        <pt x="466" y="533" on="1"/>
        <pt x="407" y="592" on="1"/>
        <pt x="348" y="533" on="1"/>
        <pt x="342" y="527" on="0"/>
        <pt x="334" y="527" on="1"/>
        <pt x="325" y="527" on="0"/>
        <pt x="313" y="539" on="0"/>
        <pt x="313" y="548" on="1"/>
        <pt x="313" y="556" on="0"/>
      </contour>
      <contour>
        <pt x="80" y="205" on="1"/>
        <pt x="80" y="418" on="1"/>
        <pt x="80" y="427" on="0"/>
        <pt x="86" y="433" on="1"/>
        <pt x="120" y="466" on="1"/>
        <pt x="126" y="471" on="0"/>
        <pt x="134" y="471" on="1"/>
        <pt x="669" y="471" on="1"/>
        <pt x="680" y="471" on="0"/>
        <pt x="688" y="456" on="0"/>
        <pt x="688" y="451" on="1"/>
        <pt x="688" y="431" on="0"/>
        <pt x="669" y="431" on="1"/>
        <pt x="142" y="431" on="1"/>
        <pt x="120" y="410" on="1"/>
        <pt x="120" y="205" on="1"/>
        <pt x="532" y="205" on="1"/>
        <pt x="543" y="205" on="0"/>
        <pt x="551" y="190" on="0"/>
        <pt x="551" y="185" on="1"/>
        <pt x="551" y="165" on="0"/>
        <pt x="532" y="165" on="1"/>
        <pt x="120" y="165" on="1"/>
        <pt x="120" y="34" on="1"/>
        <pt x="664" y="34" on="1"/>
        <pt x="675" y="34" on="0"/>
        <pt x="683" y="19" on="0"/>
        <pt x="683" y="14" on="1"/>
        <pt x="683" y="-6" on="0"/>
        <pt x="664" y="-6" on="1"/>
        <pt x="100" y="-6" on="1"/>
        <pt x="80" y="-6" on="0"/>
        <pt x="80" y="14" on="1"/>
        <pt x="80" y="165" on="1"/>
        <pt x="28" y="165" on="1"/>
        <pt x="17" y="165" on="0"/>
        <pt x="9" y="180" on="0"/>
        <pt x="9" y="185" on="1"/>
        <pt x="9" y="205" on="0"/>
        <pt x="28" y="205" on="1"/>
      </contour>
    </TTGlyph>
    <TTGlyph name="edieresis" xMin="21" yMin="-6" xMax="700" yMax="656">
      <component glyphName="e" x="0" y="0" flags="0x4"/>
      <component glyphName="dieresis" x="256" y="58" flags="0x4"/>
    </TTGlyph>
    <TTGlyph name="egrave" xMin="21" yMin="-6" xMax="700" yMax="648">
      <component glyphName="e" x="0" y="0" flags="0x4"/>
      <component glyphName="grave" x="347" y="67" flags="0x4"/>
    </TTGlyph>
    <TTGlyph name="eight" xMin="22" yMin="-6" xMax="628" yMax="606">
      <contour>
        <pt x="146" y="371" on="1"/>
        <pt x="94" y="422" on="1"/>
        <pt x="89" y="427" on="0"/>
        <pt x="89" y="437" on="1"/>
        <pt x="89" y="521" on="1"/>
        <pt x="89" y="530" on="0"/>
        <pt x="94" y="535" on="1"/>
        <pt x="160" y="600" on="1"/>
        <pt x="168" y="606" on="0"/>
        <pt x="174" y="606" on="1"/>
        <pt x="475" y="606" on="1"/>
        <pt x="482" y="606" on="0"/>
        <pt x="490" y="600" on="1"/>
        <pt x="555" y="535" on="1"/>
        <pt x="561" y="530" on="0"/>
        <pt x="561" y="521" on="1"/>
        <pt x="561" y="437" on="1"/>
        <pt x="561" y="428" on="0"/>
        <pt x="555" y="422" on="1"/>
        <pt x="503" y="370" on="1"/>
        <pt x="620" y="285" on="1"/>
        <pt x="628" y="280" on="0"/>
        <pt x="628" y="269" on="1"/>
        <pt x="628" y="154" on="1"/>
        <pt x="628" y="147" on="0"/>
        <pt x="622" y="139" on="1"/>
        <pt x="484" y="0" on="1"/>
        <pt x="479" y="-6" on="0"/>
        <pt x="470" y="-6" on="1"/>
        <pt x="181" y="-6" on="1"/>
        <pt x="172" y="-6" on="0"/>
        <pt x="166" y="0" on="1"/>
        <pt x="27" y="139" on="1"/>
        <pt x="22" y="144" on="0"/>
        <pt x="22" y="154" on="1"/>
        <pt x="22" y="269" on="1"/>
        <pt x="22" y="280" on="0"/>
        <pt x="30" y="285" on="1"/>
      </contour>
      <contour>
        <pt x="185" y="350" on="1"/>
        <pt x="62" y="258" on="1"/>
        <pt x="62" y="162" on="1"/>
        <pt x="190" y="34" on="1"/>
        <pt x="461" y="34" on="1"/>
        <pt x="588" y="162" on="1"/>
        <pt x="588" y="258" on="1"/>
        <pt x="465" y="350" on="1"/>
      </contour>
      <contour>
        <pt x="465" y="390" on="1"/>
        <pt x="521" y="446" on="1"/>
        <pt x="521" y="512" on="1"/>
        <pt x="466" y="566" on="1"/>
        <pt x="183" y="566" on="1"/>
        <pt x="129" y="512" on="1"/>
        <pt x="129" y="446" on="1"/>
        <pt x="186" y="390" on="1"/>
      </contour>
    </TTGlyph>
    <TTGlyph name="ellipsis" xMin="6" yMin="-5" xMax="533" yMax="107">
      <contour>
        <pt x="46" y="88" on="1"/>
        <pt x="46" y="14" on="1"/>
        <pt x="46" y="3" on="0"/>
        <pt x="31" y="-5" on="0"/>
        <pt x="26" y="-5" on="1"/>
        <pt x="6" y="-5" on="0"/>
        <pt x="6" y="14" on="1"/>
        <pt x="6" y="88" on="1"/>
        <pt x="6" y="99" on="0"/>
        <pt x="21" y="107" on="0"/>
        <pt x="26" y="107" on="1"/>
        <pt x="46" y="107" on="0"/>
      </contour>
      <contour>
        <pt x="290" y="88" on="1"/>
        <pt x="290" y="14" on="1"/>
        <pt x="290" y="3" on="0"/>
        <pt x="275" y="-5" on="0"/>
        <pt x="270" y="-5" on="1"/>
        <pt x="250" y="-5" on="0"/>
        <pt x="250" y="14" on="1"/>
        <pt x="250" y="88" on="1"/>
        <pt x="250" y="99" on="0"/>
        <pt x="265" y="107" on="0"/>
        <pt x="270" y="107" on="1"/>
        <pt x="290" y="107" on="0"/>
      </contour>
      <contour>
        <pt x="533" y="88" on="1"/>
        <pt x="533" y="14" on="1"/>
        <pt x="533" y="3" on="0"/>
        <pt x="518" y="-5" on="0"/>
        <pt x="513" y="-5" on="1"/>
        <pt x="493" y="-5" on="0"/>
        <pt x="493" y="14" on="1"/>
        <pt x="493" y="88" on="1"/>
        <pt x="493" y="99" on="0"/>
        <pt x="508" y="107" on="0"/>
        <pt x="513" y="107" on="1"/>
        <pt x="533" y="107" on="0"/>
      </contour>
    </TTGlyph>
    <TTGlyph name="emdash" xMin="33" yMin="232" xMax="973" yMax="272">
      <contour>
        <pt x="53" y="272" on="1"/>
        <pt x="954" y="272" on="1"/>
        <pt x="965" y="272" on="0"/>
        <pt x="973" y="257" on="0"/>
        <pt x="973" y="252" on="1"/>
        <pt x="973" y="232" on="0"/>
        <pt x="954" y="232" on="1"/>
        <pt x="53" y="232" on="1"/>
        <pt x="41" y="232" on="0"/>
        <pt x="33" y="247" on="0"/>
        <pt x="33" y="252" on="1"/>
        <pt x="33" y="272" on="0"/>
      </contour>
    </TTGlyph>
    <TTGlyph name="endash" xMin="33" yMin="232" xMax="800" yMax="272">
      <contour>
        <pt x="53" y="272" on="1"/>
        <pt x="781" y="272" on="1"/>
        <pt x="792" y="272" on="0"/>
        <pt x="800" y="257" on="0"/>
        <pt x="800" y="252" on="1"/>
        <pt x="800" y="232" on="0"/>
        <pt x="781" y="232" on="1"/>
        <pt x="53" y="232" on="1"/>
        <pt x="41" y="232" on="0"/>
        <pt x="33" y="247" on="0"/>
        <pt x="33" y="252" on="1"/>
        <pt x="33" y="272" on="0"/>
      </contour>
    </TTGlyph>
    <TTGlyph name="equal" xMin="60" yMin="179" xMax="603" yMax="418">
      <contour>
        <pt x="79" y="418" on="1"/>
        <pt x="583" y="418" on="1"/>
        <pt x="595" y="418" on="0"/>
        <pt x="603" y="403" on="0"/>
        <pt x="603" y="398" on="1"/>
        <pt x="603" y="378" on="0"/>
        <pt x="583" y="378" on="1"/>
        <pt x="79" y="378" on="1"/>
        <pt x="68" y="378" on="0"/>
        <pt x="60" y="393" on="0"/>
        <pt x="60" y="398" on="1"/>
        <pt x="60" y="418" on="0"/>
      </contour>
      <contour>
        <pt x="79" y="219" on="1"/>
        <pt x="583" y="219" on="1"/>
        <pt x="595" y="219" on="0"/>
        <pt x="603" y="204" on="0"/>
        <pt x="603" y="199" on="1"/>
        <pt x="603" y="179" on="0"/>
        <pt x="583" y="179" on="1"/>
        <pt x="79" y="179" on="1"/>
        <pt x="68" y="179" on="0"/>
        <pt x="60" y="194" on="0"/>
        <pt x="60" y="199" on="1"/>
        <pt x="60" y="219" on="0"/>
      </contour>
    </TTGlyph>
    <TTGlyph name="exclam" xMin="35" yMin="-137" xMax="75" yMax="667">
      <contour>
        <pt x="75" y="648" on="1"/>
        <pt x="75" y="151" on="1"/>
        <pt x="75" y="140" on="0"/>
        <pt x="60" y="132" on="0"/>
        <pt x="55" y="132" on="1"/>
        <pt x="35" y="132" on="0"/>
        <pt x="35" y="151" on="1"/>
        <pt x="35" y="648" on="1"/>
        <pt x="35" y="659" on="0"/>
        <pt x="50" y="667" on="0"/>
        <pt x="55" y="667" on="1"/>
        <pt x="75" y="667" on="0"/>
      </contour>
      <contour>
        <pt x="75" y="-14" on="1"/>
        <pt x="75" y="-118" on="1"/>
        <pt x="75" y="-129" on="0"/>
        <pt x="60" y="-137" on="0"/>
        <pt x="55" y="-137" on="1"/>
        <pt x="35" y="-137" on="0"/>
        <pt x="35" y="-118" on="1"/>
        <pt x="35" y="-14" on="1"/>
        <pt x="35" y="-3" on="0"/>
        <pt x="50" y="5" on="0"/>
        <pt x="55" y="5" on="1"/>
        <pt x="75" y="5" on="0"/>
      </contour>
    </TTGlyph>
    <TTGlyph name="f" xMin="21" yMin="-5" xMax="701" yMax="471">
      <contour>
        <pt x="93" y="165" on="1"/>
        <pt x="41" y="165" on="1"/>
        <pt x="29" y="165" on="0"/>
        <pt x="21" y="180" on="0"/>
        <pt x="21" y="185" on="1"/>
        <pt x="21" y="205" on="0"/>
        <pt x="41" y="205" on="1"/>
        <pt x="93" y="205" on="1"/>
        <pt x="93" y="418" on="1"/>
        <pt x="93" y="428" on="0"/>
        <pt x="99" y="433" on="1"/>
        <pt x="133" y="466" on="1"/>
        <pt x="139" y="471" on="0"/>
        <pt x="146" y="471" on="1"/>
        <pt x="682" y="471" on="1"/>
        <pt x="693" y="471" on="0"/>
        <pt x="701" y="456" on="0"/>
        <pt x="701" y="451" on="1"/>
        <pt x="701" y="431" on="0"/>
        <pt x="682" y="431" on="1"/>
        <pt x="154" y="431" on="1"/>
        <pt x="133" y="410" on="1"/>
        <pt x="133" y="205" on="1"/>
        <pt x="545" y="205" on="1"/>
        <pt x="556" y="205" on="0"/>
        <pt x="564" y="190" on="0"/>
        <pt x="564" y="185" on="1"/>
        <pt x="564" y="165" on="0"/>
        <pt x="545" y="165" on="1"/>
        <pt x="133" y="165" on="1"/>
        <pt x="133" y="14" on="1"/>
        <pt x="133" y="3" on="0"/>
        <pt x="118" y="-5" on="0"/>
        <pt x="113" y="-5" on="1"/>
        <pt x="93" y="-5" on="0"/>
        <pt x="93" y="14" on="1"/>
      </contour>
    </TTGlyph>
    <TTGlyph name="five" xMin="19" yMin="-6" xMax="623" yMax="606">
      <contour>
        <pt x="534" y="566" on="1"/>
        <pt x="59" y="566" on="1"/>
        <pt x="59" y="440" on="1"/>
        <pt x="498" y="440" on="1"/>
        <pt x="508" y="440" on="0"/>
        <pt x="513" y="434" on="1"/>
        <pt x="618" y="329" on="1"/>
        <pt x="623" y="323" on="0"/>
        <pt x="623" y="314" on="1"/>
        <pt x="623" y="154" on="1"/>
        <pt x="623" y="145" on="0"/>
        <pt x="618" y="139" on="1"/>
        <pt x="479" y="0" on="1"/>
        <pt x="474" y="-6" on="0"/>
        <pt x="465" y="-6" on="1"/>
        <pt x="176" y="-6" on="1"/>
        <pt x="167" y="-6" on="0"/>
        <pt x="162" y="0" on="1"/>
        <pt x="25" y="138" on="1"/>
        <pt x="19" y="144" on="0"/>
        <pt x="19" y="152" on="1"/>
        <pt x="19" y="252" on="1"/>
        <pt x="19" y="263" on="0"/>
        <pt x="34" y="271" on="0"/>
        <pt x="39" y="271" on="1"/>
        <pt x="59" y="271" on="0"/>
        <pt x="59" y="252" on="1"/>
        <pt x="59" y="161" on="1"/>
        <pt x="185" y="34" on="1"/>
        <pt x="456" y="34" on="1"/>
        <pt x="583" y="162" on="1"/>
        <pt x="583" y="306" on="1"/>
        <pt x="490" y="400" on="1"/>
        <pt x="39" y="400" on="1"/>
        <pt x="19" y="400" on="0"/>
        <pt x="19" y="420" on="1"/>
        <pt x="19" y="586" on="1"/>
        <pt x="19" y="606" on="0"/>
        <pt x="39" y="606" on="1"/>
        <pt x="534" y="606" on="1"/>
        <pt x="545" y="606" on="0"/>
        <pt x="553" y="591" on="0"/>
        <pt x="553" y="586" on="1"/>
        <pt x="553" y="566" on="0"/>
      </contour>
    </TTGlyph>
    <TTGlyph name="florin" xMin="26" yMin="224" xMax="295" yMax="659">
      <contour>
        <pt x="141" y="564" on="1"/>
        <pt x="141" y="640" on="1"/>
        <pt x="141" y="651" on="0"/>
        <pt x="156" y="659" on="0"/>
        <pt x="161" y="659" on="1"/>
        <pt x="181" y="659" on="0"/>
        <pt x="181" y="640" on="1"/>
        <pt x="181" y="564" on="1"/>
        <pt x="276" y="564" on="1"/>
        <pt x="287" y="564" on="0"/>
        <pt x="295" y="549" on="0"/>
        <pt x="295" y="544" on="1"/>
        <pt x="295" y="524" on="0"/>
        <pt x="276" y="524" on="1"/>
        <pt x="181" y="524" on="1"/>
        <pt x="181" y="359" on="1"/>
        <pt x="276" y="359" on="1"/>
        <pt x="287" y="359" on="0"/>
        <pt x="295" y="344" on="0"/>
        <pt x="295" y="339" on="1"/>
        <pt x="295" y="319" on="0"/>
        <pt x="276" y="319" on="1"/>
        <pt x="181" y="319" on="1"/>
        <pt x="181" y="243" on="1"/>
        <pt x="181" y="232" on="0"/>
        <pt x="166" y="224" on="0"/>
        <pt x="161" y="224" on="1"/>
        <pt x="141" y="224" on="0"/>
        <pt x="141" y="243" on="1"/>
        <pt x="141" y="319" on="1"/>
        <pt x="46" y="319" on="1"/>
        <pt x="34" y="319" on="0"/>
        <pt x="26" y="334" on="0"/>
        <pt x="26" y="339" on="1"/>
        <pt x="26" y="359" on="0"/>
        <pt x="46" y="359" on="1"/>
        <pt x="141" y="359" on="1"/>
        <pt x="141" y="524" on="1"/>
        <pt x="46" y="524" on="1"/>
        <pt x="34" y="524" on="0"/>
        <pt x="26" y="539" on="0"/>
        <pt x="26" y="544" on="1"/>
        <pt x="26" y="564" on="0"/>
        <pt x="46" y="564" on="1"/>
      </contour>
    </TTGlyph>
    <TTGlyph name="four" xMin="16" yMin="-5" xMax="597" yMax="606">
      <contour>
        <pt x="488" y="14" on="1"/>
        <pt x="488" y="537" on="1"/>
        <pt x="86" y="135" on="1"/>
        <pt x="578" y="135" on="1"/>
        <pt x="589" y="135" on="0"/>
        <pt x="597" y="120" on="0"/>
        <pt x="597" y="115" on="1"/>
        <pt x="597" y="95" on="0"/>
        <pt x="578" y="95" on="1"/>
        <pt x="37" y="95" on="1"/>
        <pt x="16" y="95" on="0"/>
        <pt x="16" y="116" on="1"/>
        <pt x="16" y="124" on="0"/>
        <pt x="22" y="130" on="1"/>
        <pt x="494" y="600" on="1"/>
        <pt x="500" y="606" on="0"/>
        <pt x="508" y="606" on="1"/>
        <pt x="516" y="606" on="0"/>
        <pt x="528" y="596" on="0"/>
        <pt x="528" y="586" on="1"/>
        <pt x="528" y="14" on="1"/>
        <pt x="528" y="3" on="0"/>
        <pt x="513" y="-5" on="0"/>
        <pt x="508" y="-5" on="1"/>
        <pt x="488" y="-5" on="0"/>
      </contour>
    </TTGlyph>
    <TTGlyph name="g" xMin="48" yMin="-83" xMax="791" yMax="471">
      <contour>
        <pt x="791" y="89" on="1"/>
        <pt x="791" y="82" on="1"/>
        <pt x="791" y="-64" on="1"/>
        <pt x="791" y="-75" on="0"/>
        <pt x="776" y="-83" on="0"/>
        <pt x="771" y="-83" on="1"/>
        <pt x="751" y="-83" on="0"/>
        <pt x="751" y="-64" on="1"/>
        <pt x="751" y="38" on="1"/>
        <pt x="714" y="0" on="1"/>
        <pt x="708" y="-6" on="0"/>
        <pt x="699" y="-6" on="1"/>
        <pt x="175" y="-6" on="1"/>
        <pt x="166" y="-6" on="0"/>
        <pt x="161" y="0" on="1"/>
        <pt x="54" y="108" on="1"/>
        <pt x="48" y="116" on="0"/>
        <pt x="48" y="122" on="1"/>
        <pt x="48" y="344" on="1"/>
        <pt x="48" y="353" on="0"/>
        <pt x="54" y="358" on="1"/>
        <pt x="162" y="466" on="1"/>
        <pt x="167" y="471" on="0"/>
        <pt x="176" y="471" on="1"/>
        <pt x="638" y="471" on="1"/>
        <pt x="646" y="471" on="0"/>
        <pt x="652" y="466" on="1"/>
        <pt x="716" y="402" on="1"/>
        <pt x="722" y="397" on="0"/>
        <pt x="722" y="388" on="1"/>
        <pt x="722" y="350" on="1"/>
        <pt x="722" y="339" on="0"/>
        <pt x="707" y="331" on="0"/>
        <pt x="702" y="331" on="1"/>
        <pt x="682" y="331" on="0"/>
        <pt x="682" y="350" on="1"/>
        <pt x="682" y="379" on="1"/>
        <pt x="629" y="431" on="1"/>
        <pt x="185" y="431" on="1"/>
        <pt x="88" y="335" on="1"/>
        <pt x="88" y="131" on="1"/>
        <pt x="184" y="34" on="1"/>
        <pt x="690" y="34" on="1"/>
        <pt x="751" y="95" on="1"/>
        <pt x="751" y="144" on="1"/>
        <pt x="727" y="167" on="1"/>
        <pt x="288" y="167" on="1"/>
        <pt x="288" y="160" on="1"/>
        <pt x="288" y="149" on="0"/>
        <pt x="273" y="141" on="0"/>
        <pt x="268" y="141" on="1"/>
        <pt x="248" y="141" on="0"/>
        <pt x="248" y="160" on="1"/>
        <pt x="248" y="182" on="1"/>
        <pt x="248" y="192" on="1"/>
        <pt x="248" y="211" on="1"/>
        <pt x="248" y="223" on="0"/>
        <pt x="263" y="231" on="0"/>
        <pt x="268" y="231" on="1"/>
        <pt x="288" y="231" on="0"/>
        <pt x="288" y="211" on="1"/>
        <pt x="288" y="207" on="1"/>
        <pt x="735" y="207" on="1"/>
        <pt x="743" y="207" on="0"/>
        <pt x="749" y="202" on="1"/>
        <pt x="785" y="166" on="1"/>
        <pt x="791" y="161" on="0"/>
        <pt x="791" y="152" on="1"/>
      </contour>
    </TTGlyph>
    <TTGlyph name="grave" xMin="9" yMin="457" xMax="133" yMax="581">
      <contour>
        <pt x="44" y="575" on="1"/>
        <pt x="127" y="492" on="1"/>
        <pt x="133" y="486" on="0"/>
        <pt x="133" y="478" on="1"/>
        <pt x="133" y="469" on="0"/>
        <pt x="121" y="457" on="0"/>
        <pt x="112" y="457" on="1"/>
        <pt x="104" y="457" on="0"/>
        <pt x="98" y="463" on="1"/>
        <pt x="15" y="546" on="1"/>
        <pt x="9" y="552" on="0"/>
        <pt x="9" y="560" on="1"/>
        <pt x="9" y="568" on="0"/>
        <pt x="22" y="581" on="0"/>
        <pt x="31" y="581" on="1"/>
        <pt x="38" y="581" on="0"/>
      </contour>
    </TTGlyph>
    <TTGlyph name="greater" xMin="22" yMin="-3" xMax="329" yMax="591">
      <contour>
        <pt x="70" y="586" on="1"/>
        <pt x="322" y="333" on="1"/>
        <pt x="329" y="328" on="0"/>
        <pt x="329" y="318" on="1"/>
        <pt x="329" y="285" on="1"/>
        <pt x="329" y="278" on="0"/>
        <pt x="323" y="270" on="1"/>
        <pt x="57" y="3" on="1"/>
        <pt x="51" y="-3" on="0"/>
        <pt x="43" y="-3" on="1"/>
        <pt x="35" y="-3" on="0"/>
        <pt x="22" y="10" on="0"/>
        <pt x="22" y="19" on="1"/>
        <pt x="22" y="26" on="0"/>
        <pt x="28" y="32" on="1"/>
        <pt x="289" y="294" on="1"/>
        <pt x="289" y="310" on="1"/>
        <pt x="43" y="557" on="1"/>
        <pt x="37" y="563" on="0"/>
        <pt x="37" y="569" on="1"/>
        <pt x="37" y="577" on="0"/>
        <pt x="49" y="591" on="0"/>
        <pt x="58" y="591" on="1"/>
        <pt x="63" y="591" on="0"/>
      </contour>
    </TTGlyph>
    <TTGlyph name="guillemotleft" xMin="30" yMin="-3" xMax="503" yMax="572">
      <contour>
        <pt x="297" y="538" on="1"/>
        <pt x="70" y="310" on="1"/>
        <pt x="70" y="294" on="1"/>
        <pt x="330" y="32" on="1"/>
        <pt x="336" y="26" on="0"/>
        <pt x="336" y="18" on="1"/>
        <pt x="336" y="10" on="0"/>
        <pt x="323" y="-3" on="0"/>
        <pt x="314" y="-3" on="1"/>
        <pt x="308" y="-3" on="0"/>
        <pt x="302" y="3" on="1"/>
        <pt x="35" y="270" on="1"/>
        <pt x="30" y="276" on="0"/>
        <pt x="30" y="285" on="1"/>
        <pt x="30" y="318" on="1"/>
        <pt x="30" y="327" on="0"/>
        <pt x="35" y="333" on="1"/>
        <pt x="268" y="566" on="1"/>
        <pt x="274" y="572" on="0"/>
        <pt x="281" y="572" on="1"/>
        <pt x="302" y="572" on="0"/>
        <pt x="302" y="550" on="1"/>
        <pt x="302" y="543" on="0"/>
      </contour>
      <contour>
        <pt x="463" y="538" on="1"/>
        <pt x="236" y="310" on="1"/>
        <pt x="236" y="294" on="1"/>
        <pt x="497" y="32" on="1"/>
        <pt x="503" y="26" on="0"/>
        <pt x="503" y="20" on="1"/>
        <pt x="503" y="11" on="0"/>
        <pt x="489" y="-3" on="0"/>
        <pt x="480" y="-3" on="1"/>
        <pt x="474" y="-3" on="0"/>
        <pt x="468" y="3" on="1"/>
        <pt x="202" y="270" on="1"/>
        <pt x="196" y="278" on="0"/>
        <pt x="196" y="285" on="1"/>
        <pt x="196" y="318" on="1"/>
        <pt x="196" y="325" on="0"/>
        <pt x="202" y="333" on="1"/>
        <pt x="434" y="566" on="1"/>
        <pt x="440" y="572" on="0"/>
        <pt x="448" y="572" on="1"/>
        <pt x="457" y="572" on="0"/>
        <pt x="469" y="560" on="0"/>
        <pt x="469" y="551" on="1"/>
        <pt x="469" y="544" on="0"/>
      </contour>
    </TTGlyph>
    <TTGlyph name="guillemotright" xMin="13" yMin="-3" xMax="486" yMax="573">
      <contour>
        <pt x="247" y="566" on="1"/>
        <pt x="480" y="333" on="1"/>
        <pt x="486" y="325" on="0"/>
        <pt x="486" y="318" on="1"/>
        <pt x="486" y="285" on="1"/>
        <pt x="486" y="278" on="0"/>
        <pt x="480" y="270" on="1"/>
        <pt x="214" y="3" on="1"/>
        <pt x="208" y="-3" on="0"/>
        <pt x="200" y="-3" on="1"/>
        <pt x="192" y="-3" on="0"/>
        <pt x="179" y="10" on="0"/>
        <pt x="179" y="19" on="1"/>
        <pt x="179" y="26" on="0"/>
        <pt x="185" y="32" on="1"/>
        <pt x="446" y="294" on="1"/>
        <pt x="446" y="310" on="1"/>
        <pt x="218" y="538" on="1"/>
        <pt x="212" y="544" on="0"/>
        <pt x="212" y="550" on="1"/>
        <pt x="212" y="558" on="0"/>
        <pt x="226" y="572" on="0"/>
        <pt x="234" y="572" on="1"/>
        <pt x="241" y="572" on="0"/>
      </contour>
      <contour>
        <pt x="81" y="566" on="1"/>
        <pt x="314" y="333" on="1"/>
        <pt x="319" y="327" on="0"/>
        <pt x="319" y="318" on="1"/>
        <pt x="319" y="285" on="1"/>
        <pt x="319" y="276" on="0"/>
        <pt x="314" y="270" on="1"/>
        <pt x="47" y="3" on="1"/>
        <pt x="41" y="-3" on="0"/>
        <pt x="34" y="-3" on="1"/>
        <pt x="28" y="-3" on="0"/>
        <pt x="13" y="8" on="0"/>
        <pt x="13" y="20" on="1"/>
        <pt x="13" y="27" on="0"/>
        <pt x="18" y="32" on="1"/>
        <pt x="279" y="294" on="1"/>
        <pt x="279" y="310" on="1"/>
        <pt x="52" y="538" on="1"/>
        <pt x="46" y="544" on="0"/>
        <pt x="46" y="552" on="1"/>
        <pt x="46" y="560" on="0"/>
        <pt x="59" y="573" on="0"/>
        <pt x="67" y="573" on="1"/>
        <pt x="75" y="573" on="0"/>
      </contour>
    </TTGlyph>
    <TTGlyph name="h" xMin="53" yMin="-5" xMax="638" yMax="471">
      <contour>
        <pt x="138" y="207" on="1"/>
        <pt x="598" y="207" on="1"/>
        <pt x="598" y="451" on="1"/>
        <pt x="598" y="463" on="0"/>
        <pt x="613" y="471" on="0"/>
        <pt x="618" y="471" on="1"/>
        <pt x="638" y="471" on="0"/>
        <pt x="638" y="451" on="1"/>
        <pt x="638" y="14" on="1"/>
        <pt x="638" y="3" on="0"/>
        <pt x="623" y="-5" on="0"/>
        <pt x="618" y="-5" on="1"/>
        <pt x="598" y="-5" on="0"/>
        <pt x="598" y="14" on="1"/>
        <pt x="598" y="167" on="1"/>
        <pt x="138" y="167" on="1"/>
        <pt x="138" y="14" on="1"/>
        <pt x="138" y="3" on="0"/>
        <pt x="123" y="-5" on="0"/>
        <pt x="118" y="-5" on="1"/>
        <pt x="98" y="-5" on="0"/>
        <pt x="98" y="14" on="1"/>
        <pt x="98" y="167" on="1"/>
        <pt x="73" y="167" on="1"/>
        <pt x="61" y="167" on="0"/>
        <pt x="53" y="182" on="0"/>
        <pt x="53" y="187" on="1"/>
        <pt x="53" y="207" on="0"/>
        <pt x="73" y="207" on="1"/>
        <pt x="98" y="207" on="1"/>
        <pt x="98" y="451" on="1"/>
        <pt x="98" y="463" on="0"/>
        <pt x="113" y="471" on="0"/>
        <pt x="118" y="471" on="1"/>
        <pt x="138" y="471" on="0"/>
        <pt x="138" y="451" on="1"/>
      </contour>
    </TTGlyph>
    <TTGlyph name="hyphen" xMin="21" yMin="232" xMax="499" yMax="272">
      <contour>
        <pt x="40" y="272" on="1"/>
        <pt x="480" y="272" on="1"/>
        <pt x="491" y="272" on="0"/>
        <pt x="499" y="257" on="0"/>
        <pt x="499" y="252" on="1"/>
        <pt x="499" y="232" on="0"/>
        <pt x="480" y="232" on="1"/>
        <pt x="40" y="232" on="1"/>
        <pt x="29" y="232" on="0"/>
        <pt x="21" y="247" on="0"/>
        <pt x="21" y="252" on="1"/>
        <pt x="21" y="272" on="0"/>
      </contour>
    </TTGlyph>
    <TTGlyph name="i" xMin="64" yMin="-6" xMax="508" yMax="471">
      <contour>
        <pt x="307" y="431" on="1"/>
        <pt x="307" y="34" on="1"/>
        <pt x="484" y="34" on="1"/>
        <pt x="495" y="34" on="0"/>
        <pt x="503" y="19" on="0"/>
        <pt x="503" y="14" on="1"/>
        <pt x="503" y="-6" on="0"/>
        <pt x="484" y="-6" on="1"/>
        <pt x="86" y="-6" on="1"/>
        <pt x="74" y="-6" on="0"/>
        <pt x="66" y="9" on="0"/>
        <pt x="66" y="14" on="1"/>
        <pt x="66" y="34" on="0"/>
        <pt x="86" y="34" on="1"/>
        <pt x="267" y="34" on="1"/>
        <pt x="267" y="431" on="1"/>
        <pt x="83" y="431" on="1"/>
        <pt x="72" y="431" on="0"/>
        <pt x="64" y="446" on="0"/>
        <pt x="64" y="451" on="1"/>
        <pt x="64" y="471" on="0"/>
        <pt x="83" y="471" on="1"/>
        <pt x="489" y="471" on="1"/>
        <pt x="500" y="471" on="0"/>
        <pt x="508" y="456" on="0"/>
        <pt x="508" y="451" on="1"/>
        <pt x="508" y="431" on="0"/>
        <pt x="489" y="431" on="1"/>
      </contour>
    </TTGlyph>
    <TTGlyph name="iacute" xMin="64" yMin="-6" xMax="508" yMax="648">
      <component glyphName="i" x="0" y="0" flags="0x4"/>
      <component glyphName="acute" x="211" y="67" flags="0x4"/>
    </TTGlyph>
    <TTGlyph name="icircumflex" xMin="33" yMin="-6" xMax="477" yMax="642">
      <contour>
        <pt x="166" y="562" on="1"/>
        <pt x="239" y="635" on="1"/>
        <pt x="246" y="642" on="0"/>
        <pt x="254" y="642" on="1"/>
        <pt x="261" y="642" on="0"/>
        <pt x="268" y="635" on="1"/>
        <pt x="342" y="562" on="1"/>
        <pt x="348" y="556" on="0"/>
        <pt x="348" y="548" on="1"/>
        <pt x="348" y="540" on="0"/>
        <pt x="335" y="527" on="0"/>
        <pt x="326" y="527" on="1"/>
        <pt x="319" y="527" on="0"/>
        <pt x="313" y="533" on="1"/>
        <pt x="254" y="592" on="1"/>
        <pt x="194" y="533" on="1"/>
        <pt x="188" y="527" on="0"/>
        <pt x="180" y="527" on="1"/>
        <pt x="173" y="527" on="0"/>
        <pt x="159" y="539" on="0"/>
        <pt x="159" y="547" on="1"/>
        <pt x="159" y="555" on="0"/>
      </contour>
      <contour>
        <pt x="276" y="431" on="1"/>
        <pt x="276" y="34" on="1"/>
        <pt x="453" y="34" on="1"/>
        <pt x="464" y="34" on="0"/>
        <pt x="472" y="19" on="0"/>
        <pt x="472" y="14" on="1"/>
        <pt x="472" y="-6" on="0"/>
        <pt x="453" y="-6" on="1"/>
        <pt x="54" y="-6" on="1"/>
        <pt x="43" y="-6" on="0"/>
        <pt x="35" y="9" on="0"/>
        <pt x="35" y="14" on="1"/>
        <pt x="35" y="34" on="0"/>
        <pt x="54" y="34" on="1"/>
        <pt x="236" y="34" on="1"/>
        <pt x="236" y="431" on="1"/>
        <pt x="52" y="431" on="1"/>
        <pt x="41" y="431" on="0"/>
        <pt x="33" y="446" on="0"/>
        <pt x="33" y="451" on="1"/>
        <pt x="33" y="471" on="0"/>
        <pt x="52" y="471" on="1"/>
        <pt x="458" y="471" on="1"/>
        <pt x="469" y="471" on="0"/>
        <pt x="477" y="456" on="0"/>
        <pt x="477" y="451" on="1"/>
        <pt x="477" y="431" on="0"/>
        <pt x="458" y="431" on="1"/>
      </contour>
    </TTGlyph>
    <TTGlyph name="igrave" xMin="64" yMin="-6" xMax="508" yMax="648">
      <component glyphName="i" x="0" y="0" flags="0x4"/>
      <component glyphName="grave" x="218" y="67" flags="0x4"/>
    </TTGlyph>
    <TTGlyph name="j" xMin="56" yMin="-6" xMax="528" yMax="471">
      <contour>
        <pt x="96" y="254" on="1"/>
        <pt x="96" y="131" on="1"/>
        <pt x="192" y="34" on="1"/>
        <pt x="395" y="34" on="1"/>
        <pt x="488" y="129" on="1"/>
        <pt x="488" y="451" on="1"/>
        <pt x="488" y="463" on="0"/>
        <pt x="503" y="471" on="0"/>
        <pt x="508" y="471" on="1"/>
        <pt x="528" y="471" on="0"/>
        <pt x="528" y="451" on="1"/>
        <pt x="528" y="120" on="1"/>
        <pt x="528" y="112" on="0"/>
        <pt x="522" y="106" on="1"/>
        <pt x="418" y="0" on="1"/>
        <pt x="413" y="-6" on="0"/>
        <pt x="404" y="-6" on="1"/>
        <pt x="183" y="-6" on="1"/>
        <pt x="174" y="-6" on="0"/>
        <pt x="169" y="0" on="1"/>
        <pt x="62" y="108" on="1"/>
        <pt x="56" y="116" on="0"/>
        <pt x="56" y="122" on="1"/>
        <pt x="56" y="254" on="1"/>
        <pt x="56" y="266" on="0"/>
        <pt x="71" y="274" on="0"/>
        <pt x="76" y="274" on="1"/>
        <pt x="96" y="274" on="0"/>
      </contour>
    </TTGlyph>
    <TTGlyph name="k" xMin="53" yMin="-6" xMax="532" yMax="472">
      <contour>
        <pt x="292" y="206" on="1"/>
        <pt x="87" y="0" on="1"/>
        <pt x="81" y="-6" on="0"/>
        <pt x="73" y="-6" on="1"/>
        <pt x="65" y="-6" on="0"/>
        <pt x="53" y="4" on="0"/>
        <pt x="53" y="14" on="1"/>
        <pt x="53" y="451" on="1"/>
        <pt x="53" y="463" on="0"/>
        <pt x="68" y="471" on="0"/>
        <pt x="73" y="471" on="1"/>
        <pt x="93" y="471" on="0"/>
        <pt x="93" y="451" on="1"/>
        <pt x="93" y="63" on="1"/>
        <pt x="494" y="466" on="1"/>
        <pt x="500" y="472" on="0"/>
        <pt x="508" y="472" on="1"/>
        <pt x="516" y="472" on="0"/>
        <pt x="529" y="459" on="0"/>
        <pt x="529" y="450" on="1"/>
        <pt x="529" y="443" on="0"/>
        <pt x="523" y="437" on="1"/>
        <pt x="321" y="234" on="1"/>
        <pt x="526" y="29" on="1"/>
        <pt x="532" y="23" on="0"/>
        <pt x="532" y="16" on="1"/>
        <pt x="532" y="8" on="0"/>
        <pt x="518" y="-6" on="0"/>
        <pt x="510" y="-6" on="1"/>
        <pt x="503" y="-6" on="0"/>
        <pt x="497" y="0" on="1"/>
      </contour>
    </TTGlyph>
    <TTGlyph name="l" xMin="43" yMin="-6" xMax="517" yMax="471">
      <contour>
        <pt x="83" y="451" on="1"/>
        <pt x="83" y="34" on="1"/>
        <pt x="498" y="34" on="1"/>
        <pt x="509" y="34" on="0"/>
        <pt x="517" y="19" on="0"/>
        <pt x="517" y="14" on="1"/>
        <pt x="517" y="-6" on="0"/>
        <pt x="498" y="-6" on="1"/>
        <pt x="63" y="-6" on="1"/>
        <pt x="43" y="-6" on="0"/>
        <pt x="43" y="14" on="1"/>
        <pt x="43" y="451" on="1"/>
        <pt x="43" y="463" on="0"/>
        <pt x="58" y="471" on="0"/>
        <pt x="63" y="471" on="1"/>
        <pt x="83" y="471" on="0"/>
      </contour>
    </TTGlyph>
    <TTGlyph name="less" xMin="30" yMin="-3" xMax="336" yMax="572">
      <contour>
        <pt x="297" y="538" on="1"/>
        <pt x="70" y="310" on="1"/>
        <pt x="70" y="294" on="1"/>
        <pt x="330" y="32" on="1"/>
        <pt x="336" y="26" on="0"/>
        <pt x="336" y="18" on="1"/>
        <pt x="336" y="10" on="0"/>
        <pt x="323" y="-3" on="0"/>
        <pt x="314" y="-3" on="1"/>
        <pt x="308" y="-3" on="0"/>
        <pt x="302" y="3" on="1"/>
        <pt x="35" y="270" on="1"/>
        <pt x="30" y="276" on="0"/>
        <pt x="30" y="285" on="1"/>
        <pt x="30" y="318" on="1"/>
        <pt x="30" y="327" on="0"/>
        <pt x="35" y="333" on="1"/>
        <pt x="268" y="566" on="1"/>
        <pt x="274" y="572" on="0"/>
        <pt x="281" y="572" on="1"/>
        <pt x="302" y="572" on="0"/>
        <pt x="302" y="550" on="1"/>
        <pt x="302" y="543" on="0"/>
      </contour>
    </TTGlyph>
    <TTGlyph name="lozenge" xMin="27" yMin="18" xMax="362" yMax="565">
      <contour>
        <pt x="359" y="281" on="1"/>
        <pt x="212" y="28" on="1"/>
        <pt x="206" y="18" on="0"/>
        <pt x="194" y="18" on="1"/>
        <pt x="183" y="18" on="0"/>
        <pt x="177" y="28" on="1"/>
        <pt x="30" y="281" on="1"/>
        <pt x="27" y="287" on="0"/>
        <pt x="27" y="292" on="1"/>
        <pt x="27" y="296" on="0"/>
        <pt x="30" y="302" on="1"/>
        <pt x="177" y="554" on="1"/>
        <pt x="183" y="565" on="0"/>
        <pt x="195" y="565" on="1"/>
        <pt x="206" y="565" on="0"/>
        <pt x="212" y="554" on="1"/>
        <pt x="359" y="302" on="1"/>
        <pt x="362" y="296" on="0"/>
        <pt x="362" y="291" on="1"/>
        <pt x="362" y="287" on="0"/>
      </contour>
      <contour>
        <pt x="194" y="503" on="1"/>
        <pt x="71" y="291" on="1"/>
        <pt x="194" y="78" on="1"/>
        <pt x="318" y="291" on="1"/>
      </contour>
    </TTGlyph>
    <TTGlyph name="m" xMin="58" yMin="-5" xMax="798" yMax="472">
      <contour>
        <pt x="58" y="14" on="1"/>
        <pt x="58" y="451" on="1"/>
        <pt x="58" y="472" on="0"/>
        <pt x="78" y="472" on="1"/>
        <pt x="86" y="472" on="0"/>
        <pt x="92" y="466" on="1"/>
        <pt x="421" y="138" on="1"/>
        <pt x="435" y="138" on="1"/>
        <pt x="764" y="466" on="1"/>
        <pt x="770" y="472" on="0"/>
        <pt x="778" y="472" on="1"/>
        <pt x="798" y="472" on="0"/>
        <pt x="798" y="451" on="1"/>
        <pt x="798" y="14" on="1"/>
        <pt x="798" y="3" on="0"/>
        <pt x="783" y="-5" on="0"/>
        <pt x="778" y="-5" on="1"/>
        <pt x="758" y="-5" on="0"/>
        <pt x="758" y="14" on="1"/>
        <pt x="758" y="402" on="1"/>
        <pt x="458" y="103" on="1"/>
        <pt x="453" y="98" on="0"/>
        <pt x="444" y="98" on="1"/>
        <pt x="412" y="98" on="1"/>
        <pt x="403" y="98" on="0"/>
        <pt x="398" y="103" on="1"/>
        <pt x="98" y="402" on="1"/>
        <pt x="98" y="14" on="1"/>
        <pt x="98" y="3" on="0"/>
        <pt x="83" y="-5" on="0"/>
        <pt x="78" y="-5" on="1"/>
        <pt x="58" y="-5" on="0"/>
      </contour>
    </TTGlyph>
    <TTGlyph name="mu" xMin="51" yMin="-6" xMax="1184" yMax="472">
      <contour>
        <pt x="58" y="29" on="1"/>
        <pt x="494" y="466" on="1"/>
        <pt x="500" y="471" on="0"/>
        <pt x="509" y="471" on="1"/>
        <pt x="534" y="471" on="1"/>
        <pt x="544" y="471" on="0"/>
        <pt x="549" y="466" on="1"/>
        <pt x="985" y="29" on="1"/>
        <pt x="991" y="23" on="0"/>
        <pt x="991" y="16" on="1"/>
        <pt x="991" y="8" on="0"/>
        <pt x="977" y="-6" on="0"/>
        <pt x="969" y="-6" on="1"/>
        <pt x="962" y="-6" on="0"/>
        <pt x="956" y="0" on="1"/>
        <pt x="526" y="431" on="1"/>
        <pt x="518" y="431" on="1"/>
        <pt x="86" y="0" on="1"/>
        <pt x="80" y="-6" on="0"/>
        <pt x="72" y="-6" on="1"/>
        <pt x="65" y="-6" on="0"/>
        <pt x="51" y="6" on="0"/>
        <pt x="51" y="14" on="1"/>
        <pt x="51" y="22" on="0"/>
      </contour>
      <contour>
        <pt x="742" y="466" on="1"/>
        <pt x="1178" y="29" on="1"/>
        <pt x="1184" y="23" on="0"/>
        <pt x="1184" y="15" on="1"/>
        <pt x="1184" y="7" on="0"/>
        <pt x="1171" y="-6" on="0"/>
        <pt x="1162" y="-6" on="1"/>
        <pt x="1156" y="-6" on="0"/>
        <pt x="1150" y="0" on="1"/>
        <pt x="714" y="437" on="1"/>
        <pt x="708" y="443" on="0"/>
        <pt x="708" y="451" on="1"/>
        <pt x="708" y="459" on="0"/>
        <pt x="721" y="472" on="0"/>
        <pt x="730" y="472" on="1"/>
        <pt x="736" y="472" on="0"/>
      </contour>
    </TTGlyph>
    <TTGlyph name="n" xMin="62" yMin="-6" xMax="538" yMax="472">
      <contour>
        <pt x="62" y="14" on="1"/>
        <pt x="62" y="451" on="1"/>
        <pt x="62" y="472" on="0"/>
        <pt x="83" y="472" on="1"/>
        <pt x="91" y="472" on="0"/>
        <pt x="97" y="466" on="1"/>
        <pt x="498" y="63" on="1"/>
        <pt x="498" y="451" on="1"/>
        <pt x="498" y="463" on="0"/>
        <pt x="513" y="471" on="0"/>
        <pt x="518" y="471" on="1"/>
        <pt x="538" y="471" on="0"/>
        <pt x="538" y="451" on="1"/>
        <pt x="538" y="14" on="1"/>
        <pt x="538" y="-6" on="0"/>
        <pt x="518" y="-6" on="1"/>
        <pt x="510" y="-6" on="0"/>
        <pt x="504" y="0" on="1"/>
        <pt x="102" y="402" on="1"/>
        <pt x="102" y="14" on="1"/>
        <pt x="102" y="3" on="0"/>
        <pt x="87" y="-5" on="0"/>
        <pt x="82" y="-5" on="1"/>
        <pt x="62" y="-5" on="0"/>
      </contour>
    </TTGlyph>
    <TTGlyph name="nine" xMin="55" yMin="-6" xMax="664" yMax="606">
      <contour>
        <pt x="212" y="34" on="1"/>
        <pt x="467" y="34" on="1"/>
        <pt x="624" y="192" on="1"/>
        <pt x="624" y="442" on="1"/>
        <pt x="500" y="566" on="1"/>
        <pt x="219" y="566" on="1"/>
        <pt x="95" y="442" on="1"/>
        <pt x="95" y="329" on="1"/>
        <pt x="223" y="201" on="1"/>
        <pt x="527" y="201" on="1"/>
        <pt x="582" y="255" on="1"/>
        <pt x="588" y="261" on="0"/>
        <pt x="596" y="261" on="1"/>
        <pt x="604" y="261" on="0"/>
        <pt x="617" y="248" on="0"/>
        <pt x="617" y="239" on="1"/>
        <pt x="617" y="232" on="0"/>
        <pt x="611" y="226" on="1"/>
        <pt x="550" y="166" on="1"/>
        <pt x="545" y="161" on="0"/>
        <pt x="536" y="161" on="1"/>
        <pt x="214" y="161" on="1"/>
        <pt x="206" y="161" on="0"/>
        <pt x="200" y="166" on="1"/>
        <pt x="61" y="306" on="1"/>
        <pt x="55" y="311" on="0"/>
        <pt x="55" y="320" on="1"/>
        <pt x="55" y="451" on="1"/>
        <pt x="55" y="461" on="0"/>
        <pt x="61" y="466" on="1"/>
        <pt x="196" y="600" on="1"/>
        <pt x="204" y="606" on="0"/>
        <pt x="210" y="606" on="1"/>
        <pt x="509" y="606" on="1"/>
        <pt x="515" y="606" on="0"/>
        <pt x="523" y="600" on="1"/>
        <pt x="658" y="466" on="1"/>
        <pt x="664" y="461" on="0"/>
        <pt x="664" y="451" on="1"/>
        <pt x="664" y="183" on="1"/>
        <pt x="664" y="177" on="0"/>
        <pt x="658" y="169" on="1"/>
        <pt x="490" y="0" on="1"/>
        <pt x="485" y="-6" on="0"/>
        <pt x="476" y="-6" on="1"/>
        <pt x="212" y="-6" on="1"/>
        <pt x="201" y="-6" on="0"/>
        <pt x="193" y="9" on="0"/>
        <pt x="193" y="14" on="1"/>
        <pt x="193" y="34" on="0"/>
      </contour>
    </TTGlyph>
    <TTGlyph name="notequal" xMin="60" yMin="24" xMax="603" yMax="475">
      <contour>
        <pt x="418" y="370" on="1"/>
        <pt x="517" y="469" on="1"/>
        <pt x="523" y="475" on="0"/>
        <pt x="531" y="475" on="1"/>
        <pt x="539" y="475" on="0"/>
        <pt x="552" y="462" on="0"/>
        <pt x="552" y="453" on="1"/>
        <pt x="552" y="446" on="0"/>
        <pt x="546" y="440" on="1"/>
        <pt x="476" y="370" on="1"/>
        <pt x="583" y="370" on="1"/>
        <pt x="595" y="370" on="0"/>
        <pt x="603" y="355" on="0"/>
        <pt x="603" y="350" on="1"/>
        <pt x="603" y="330" on="0"/>
        <pt x="583" y="330" on="1"/>
        <pt x="436" y="330" on="1"/>
        <pt x="277" y="171" on="1"/>
        <pt x="583" y="171" on="1"/>
        <pt x="595" y="171" on="0"/>
        <pt x="603" y="156" on="0"/>
        <pt x="603" y="151" on="1"/>
        <pt x="603" y="131" on="0"/>
        <pt x="583" y="131" on="1"/>
        <pt x="237" y="131" on="1"/>
        <pt x="136" y="30" on="1"/>
        <pt x="130" y="24" on="0"/>
        <pt x="122" y="24" on="1"/>
        <pt x="114" y="24" on="0"/>
        <pt x="101" y="37" on="0"/>
        <pt x="101" y="46" on="1"/>
        <pt x="101" y="53" on="0"/>
        <pt x="107" y="59" on="1"/>
        <pt x="179" y="131" on="1"/>
        <pt x="79" y="131" on="1"/>
        <pt x="68" y="131" on="0"/>
        <pt x="60" y="146" on="0"/>
        <pt x="60" y="151" on="1"/>
        <pt x="60" y="171" on="0"/>
        <pt x="79" y="171" on="1"/>
        <pt x="219" y="171" on="1"/>
        <pt x="378" y="330" on="1"/>
        <pt x="79" y="330" on="1"/>
        <pt x="68" y="330" on="0"/>
        <pt x="60" y="345" on="0"/>
        <pt x="60" y="350" on="1"/>
        <pt x="60" y="370" on="0"/>
        <pt x="79" y="370" on="1"/>
      </contour>
    </TTGlyph>
    <TTGlyph name="ntilde" xMin="52" yMin="-6" xMax="528" yMax="628">
      <contour>
        <pt x="182" y="550" on="1"/>
        <pt x="255" y="624" on="1"/>
        <pt x="259" y="628" on="0"/>
        <pt x="265" y="628" on="1"/>
        <pt x="270" y="628" on="0"/>
        <pt x="274" y="624" on="1"/>
        <pt x="338" y="560" on="1"/>
        <pt x="403" y="624" on="1"/>
        <pt x="408" y="627" on="0"/>
        <pt x="412" y="627" on="1"/>
        <pt x="426" y="627" on="0"/>
        <pt x="426" y="614" on="1"/>
        <pt x="426" y="609" on="0"/>
        <pt x="422" y="605" on="1"/>
        <pt x="348" y="531" on="1"/>
        <pt x="345" y="528" on="0"/>
        <pt x="337" y="528" on="1"/>
        <pt x="332" y="528" on="0"/>
        <pt x="329" y="531" on="1"/>
        <pt x="265" y="595" on="1"/>
        <pt x="202" y="531" on="1"/>
        <pt x="198" y="527" on="0"/>
        <pt x="193" y="527" on="1"/>
        <pt x="179" y="527" on="0"/>
        <pt x="179" y="542" on="1"/>
        <pt x="179" y="547" on="0"/>
      </contour>
      <contour>
        <pt x="52" y="14" on="1"/>
        <pt x="52" y="451" on="1"/>
        <pt x="52" y="472" on="0"/>
        <pt x="72" y="472" on="1"/>
        <pt x="80" y="472" on="0"/>
        <pt x="86" y="466" on="1"/>
        <pt x="488" y="63" on="1"/>
        <pt x="488" y="451" on="1"/>
        <pt x="488" y="463" on="0"/>
        <pt x="503" y="471" on="0"/>
        <pt x="508" y="471" on="1"/>
        <pt x="528" y="471" on="0"/>
        <pt x="528" y="451" on="1"/>
        <pt x="528" y="14" on="1"/>
        <pt x="528" y="-6" on="0"/>
        <pt x="508" y="-6" on="1"/>
        <pt x="500" y="-6" on="0"/>
        <pt x="494" y="0" on="1"/>
        <pt x="92" y="402" on="1"/>
        <pt x="92" y="14" on="1"/>
        <pt x="92" y="3" on="0"/>
        <pt x="77" y="-5" on="0"/>
        <pt x="72" y="-5" on="1"/>
        <pt x="52" y="-5" on="0"/>
      </contour>
    </TTGlyph>
    <TTGlyph name="numbersign" xMin="29" yMin="26" xMax="703" yMax="562">
      <contour>
        <pt x="230" y="229" on="1"/>
        <pt x="230" y="357" on="1"/>
        <pt x="48" y="357" on="1"/>
        <pt x="37" y="357" on="0"/>
        <pt x="29" y="372" on="0"/>
        <pt x="29" y="377" on="1"/>
        <pt x="29" y="397" on="0"/>
        <pt x="48" y="397" on="1"/>
        <pt x="230" y="397" on="1"/>
        <pt x="230" y="542" on="1"/>
        <pt x="230" y="554" on="0"/>
        <pt x="245" y="562" on="0"/>
        <pt x="250" y="562" on="1"/>
        <pt x="270" y="562" on="0"/>
        <pt x="270" y="542" on="1"/>
        <pt x="270" y="397" on="1"/>
        <pt x="467" y="397" on="1"/>
        <pt x="467" y="542" on="1"/>
        <pt x="467" y="554" on="0"/>
        <pt x="482" y="562" on="0"/>
        <pt x="487" y="562" on="1"/>
        <pt x="507" y="562" on="0"/>
        <pt x="507" y="542" on="1"/>
        <pt x="507" y="397" on="1"/>
        <pt x="684" y="397" on="1"/>
        <pt x="695" y="397" on="0"/>
        <pt x="703" y="382" on="0"/>
        <pt x="703" y="377" on="1"/>
        <pt x="703" y="357" on="0"/>
        <pt x="684" y="357" on="1"/>
        <pt x="507" y="357" on="1"/>
        <pt x="507" y="229" on="1"/>
        <pt x="684" y="229" on="1"/>
        <pt x="695" y="229" on="0"/>
        <pt x="703" y="214" on="0"/>
        <pt x="703" y="209" on="1"/>
        <pt x="703" y="189" on="0"/>
        <pt x="684" y="189" on="1"/>
        <pt x="507" y="189" on="1"/>
        <pt x="507" y="46" on="1"/>
        <pt x="507" y="34" on="0"/>
        <pt x="492" y="26" on="0"/>
        <pt x="487" y="26" on="1"/>
        <pt x="467" y="26" on="0"/>
        <pt x="467" y="46" on="1"/>
        <pt x="467" y="189" on="1"/>
        <pt x="270" y="189" on="1"/>
        <pt x="270" y="46" on="1"/>
        <pt x="270" y="34" on="0"/>
        <pt x="255" y="26" on="0"/>
        <pt x="250" y="26" on="1"/>
        <pt x="230" y="26" on="0"/>
        <pt x="230" y="46" on="1"/>
        <pt x="230" y="189" on="1"/>
        <pt x="48" y="189" on="1"/>
        <pt x="37" y="189" on="0"/>
        <pt x="29" y="204" on="0"/>
        <pt x="29" y="209" on="1"/>
        <pt x="29" y="229" on="0"/>
        <pt x="48" y="229" on="1"/>
      </contour>
      <contour>
        <pt x="467" y="357" on="1"/>
        <pt x="270" y="357" on="1"/>
        <pt x="270" y="229" on="1"/>
        <pt x="467" y="229" on="1"/>
      </contour>
    </TTGlyph>
    <TTGlyph name="o" xMin="52" yMin="-6" xMax="798" yMax="471">
      <contour>
        <pt x="163" y="0" on="1"/>
        <pt x="58" y="106" on="1"/>
        <pt x="52" y="111" on="0"/>
        <pt x="52" y="120" on="1"/>
        <pt x="52" y="354" on="1"/>
        <pt x="52" y="362" on="0"/>
        <pt x="58" y="368" on="1"/>
        <pt x="155" y="466" on="1"/>
        <pt x="161" y="471" on="0"/>
        <pt x="170" y="471" on="1"/>
        <pt x="674" y="471" on="1"/>
        <pt x="682" y="471" on="0"/>
        <pt x="688" y="466" on="1"/>
        <pt x="792" y="362" on="1"/>
        <pt x="798" y="356" on="0"/>
        <pt x="798" y="347" on="1"/>
        <pt x="798" y="122" on="1"/>
        <pt x="798" y="114" on="0"/>
        <pt x="792" y="108" on="1"/>
        <pt x="684" y="0" on="1"/>
        <pt x="678" y="-6" on="0"/>
        <pt x="670" y="-6" on="1"/>
        <pt x="178" y="-6" on="1"/>
        <pt x="169" y="-6" on="0"/>
      </contour>
      <contour>
        <pt x="661" y="34" on="1"/>
        <pt x="758" y="131" on="1"/>
        <pt x="758" y="338" on="1"/>
        <pt x="665" y="431" on="1"/>
        <pt x="178" y="431" on="1"/>
        <pt x="92" y="345" on="1"/>
        <pt x="92" y="129" on="1"/>
        <pt x="186" y="34" on="1"/>
      </contour>
    </TTGlyph>
    <TTGlyph name="oacute" xMin="52" yMin="-6" xMax="798" yMax="648">
      <component glyphName="o" x="0" y="0" flags="0x4"/>
      <component glyphName="acute" x="339" y="67" flags="0x4"/>
    </TTGlyph>
    <TTGlyph name="ocircumflex" xMin="34" yMin="-6" xMax="779" yMax="642">
      <contour>
        <pt x="313" y="562" on="1"/>
        <pt x="386" y="635" on="1"/>
        <pt x="393" y="642" on="0"/>
        <pt x="401" y="642" on="1"/>
        <pt x="409" y="642" on="0"/>
        <pt x="415" y="635" on="1"/>
        <pt x="489" y="562" on="1"/>
        <pt x="495" y="556" on="0"/>
        <pt x="495" y="548" on="1"/>
        <pt x="495" y="540" on="0"/>
        <pt x="482" y="527" on="0"/>
        <pt x="473" y="527" on="1"/>
        <pt x="466" y="527" on="0"/>
        <pt x="460" y="533" on="1"/>
        <pt x="401" y="592" on="1"/>
        <pt x="342" y="533" on="1"/>
        <pt x="336" y="527" on="0"/>
        <pt x="328" y="527" on="1"/>
        <pt x="319" y="527" on="0"/>
        <pt x="307" y="539" on="0"/>
        <pt x="307" y="548" on="1"/>
        <pt x="307" y="556" on="0"/>
      </contour>
      <contour>
        <pt x="145" y="0" on="1"/>
        <pt x="39" y="106" on="1"/>
        <pt x="34" y="110" on="0"/>
        <pt x="34" y="120" on="1"/>
        <pt x="34" y="354" on="1"/>
        <pt x="34" y="363" on="0"/>
        <pt x="39" y="368" on="1"/>
        <pt x="137" y="466" on="1"/>
        <pt x="143" y="471" on="0"/>
        <pt x="151" y="471" on="1"/>
        <pt x="655" y="471" on="1"/>
        <pt x="664" y="471" on="0"/>
        <pt x="670" y="466" on="1"/>
        <pt x="774" y="362" on="1"/>
        <pt x="779" y="356" on="0"/>
        <pt x="779" y="347" on="1"/>
        <pt x="779" y="122" on="1"/>
        <pt x="779" y="114" on="0"/>
        <pt x="774" y="108" on="1"/>
        <pt x="666" y="0" on="1"/>
        <pt x="660" y="-6" on="0"/>
        <pt x="651" y="-6" on="1"/>
        <pt x="159" y="-6" on="1"/>
        <pt x="151" y="-6" on="0"/>
      </contour>
      <contour>
        <pt x="642" y="34" on="1"/>
        <pt x="739" y="131" on="1"/>
        <pt x="739" y="338" on="1"/>
        <pt x="646" y="431" on="1"/>
        <pt x="160" y="431" on="1"/>
        <pt x="74" y="345" on="1"/>
        <pt x="74" y="129" on="1"/>
        <pt x="168" y="34" on="1"/>
      </contour>
    </TTGlyph>
    <TTGlyph name="odieresis" xMin="52" yMin="-6" xMax="798" yMax="662">
      <component glyphName="o" x="0" y="0" flags="0x4"/>
      <component glyphName="dieresis" x="307" y="64" flags="0x4"/>
    </TTGlyph>
    <TTGlyph name="oe" xMin="49" yMin="-6" xMax="1117" yMax="471">
      <contour>
        <pt x="149" y="-6" on="1"/>
        <pt x="140" y="-6" on="0"/>
        <pt x="134" y="0" on="1"/>
        <pt x="54" y="81" on="1"/>
        <pt x="49" y="87" on="0"/>
        <pt x="49" y="95" on="1"/>
        <pt x="49" y="371" on="1"/>
        <pt x="49" y="381" on="0"/>
        <pt x="54" y="386" on="1"/>
        <pt x="135" y="466" on="1"/>
        <pt x="141" y="471" on="0"/>
        <pt x="150" y="471" on="1"/>
        <pt x="594" y="471" on="1"/>
        <pt x="1045" y="471" on="1"/>
        <pt x="1045" y="431" on="1"/>
        <pt x="612" y="431" on="1"/>
        <pt x="612" y="198" on="1"/>
        <pt x="934" y="198" on="1"/>
        <pt x="934" y="158" on="1"/>
        <pt x="612" y="158" on="1"/>
        <pt x="612" y="34" on="1"/>
        <pt x="1117" y="34" on="1"/>
        <pt x="1117" y="-6" on="1"/>
        <pt x="592" y="-6" on="1"/>
      </contour>
      <contour>
        <pt x="572" y="431" on="1"/>
        <pt x="158" y="431" on="1"/>
        <pt x="89" y="362" on="1"/>
        <pt x="89" y="104" on="1"/>
        <pt x="158" y="34" on="1"/>
        <pt x="572" y="34" on="1"/>
      </contour>
    </TTGlyph>
    <TTGlyph name="ograve" xMin="52" yMin="-6" xMax="798" yMax="648">
      <component glyphName="o" x="0" y="0" flags="0x4"/>
      <component glyphName="grave" x="339" y="67" flags="0x4"/>
    </TTGlyph>
    <TTGlyph name="one" xMin="35" yMin="-6" xMax="472" yMax="606">
      <contour>
        <pt x="234" y="34" on="1"/>
        <pt x="234" y="566" on="1"/>
        <pt x="119" y="566" on="1"/>
        <pt x="108" y="566" on="0"/>
        <pt x="100" y="581" on="0"/>
        <pt x="100" y="586" on="1"/>
        <pt x="100" y="606" on="0"/>
        <pt x="119" y="606" on="1"/>
        <pt x="254" y="606" on="1"/>
        <pt x="274" y="606" on="0"/>
        <pt x="274" y="586" on="1"/>
        <pt x="274" y="34" on="1"/>
        <pt x="453" y="34" on="1"/>
        <pt x="464" y="34" on="0"/>
        <pt x="472" y="19" on="0"/>
        <pt x="472" y="14" on="1"/>
        <pt x="472" y="-6" on="0"/>
        <pt x="453" y="-6" on="1"/>
        <pt x="54" y="-6" on="1"/>
        <pt x="43" y="-6" on="0"/>
        <pt x="35" y="9" on="0"/>
        <pt x="35" y="14" on="1"/>
        <pt x="35" y="34" on="0"/>
        <pt x="54" y="34" on="1"/>
      </contour>
    </TTGlyph>
    <TTGlyph name="ordfeminine" xMin="-3" yMin="314" xMax="390" yMax="601">
      <contour>
        <pt x="12" y="346" on="1"/>
        <pt x="374" y="346" on="1"/>
        <pt x="389" y="346" on="0"/>
        <pt x="389" y="330" on="1"/>
        <pt x="389" y="314" on="0"/>
        <pt x="374" y="314" on="1"/>
        <pt x="12" y="314" on="1"/>
        <pt x="-3" y="314" on="0"/>
        <pt x="-3" y="330" on="1"/>
        <pt x="-3" y="346" on="0"/>
      </contour>
      <contour>
        <pt x="74" y="495" on="1"/>
        <pt x="175" y="596" on="1"/>
        <pt x="176" y="596" on="0"/>
        <pt x="183" y="601" on="0"/>
        <pt x="186" y="601" on="1"/>
        <pt x="200" y="601" on="1"/>
        <pt x="205" y="601" on="0"/>
        <pt x="210" y="597" on="0"/>
        <pt x="211" y="596" on="1"/>
        <pt x="386" y="421" on="1"/>
        <pt x="390" y="417" on="0"/>
        <pt x="390" y="410" on="1"/>
        <pt x="390" y="394" on="0"/>
        <pt x="373" y="394" on="1"/>
        <pt x="367" y="394" on="0"/>
        <pt x="363" y="398" on="1"/>
        <pt x="298" y="463" on="1"/>
        <pt x="87" y="463" on="1"/>
        <pt x="23" y="398" on="1"/>
        <pt x="19" y="394" on="0"/>
        <pt x="14" y="394" on="1"/>
        <pt x="-3" y="394" on="0"/>
        <pt x="-3" y="411" on="1"/>
        <pt x="-3" y="417" on="0"/>
        <pt x="1" y="421" on="1"/>
        <pt x="43" y="463" on="1"/>
        <pt x="39" y="463" on="1"/>
        <pt x="24" y="463" on="0"/>
        <pt x="24" y="479" on="1"/>
        <pt x="24" y="495" on="0"/>
        <pt x="39" y="495" on="1"/>
      </contour>
      <contour>
        <pt x="266" y="495" on="1"/>
        <pt x="194" y="569" on="1"/>
        <pt x="119" y="495" on="1"/>
      </contour>
    </TTGlyph>
    <TTGlyph name="ordmasculine" xMin="-1" yMin="314" xMax="314" yMax="601">
      <contour>
        <pt x="46" y="398" on="1"/>
        <pt x="4" y="441" on="1"/>
        <pt x="-1" y="446" on="0"/>
        <pt x="-1" y="452" on="1"/>
        <pt x="-1" y="546" on="1"/>
        <pt x="-1" y="552" on="0"/>
        <pt x="4" y="557" on="1"/>
        <pt x="43" y="596" on="1"/>
        <pt x="48" y="601" on="0"/>
        <pt x="54" y="601" on="1"/>
        <pt x="256" y="601" on="1"/>
        <pt x="262" y="601" on="0"/>
        <pt x="267" y="596" on="1"/>
        <pt x="309" y="554" on="1"/>
        <pt x="314" y="549" on="0"/>
        <pt x="314" y="543" on="1"/>
        <pt x="314" y="453" on="1"/>
        <pt x="314" y="447" on="0"/>
        <pt x="309" y="442" on="1"/>
        <pt x="266" y="398" on="1"/>
        <pt x="261" y="394" on="0"/>
        <pt x="254" y="394" on="1"/>
        <pt x="58" y="394" on="1"/>
        <pt x="50" y="394" on="0"/>
      </contour>
      <contour>
        <pt x="15" y="346" on="1"/>
        <pt x="298" y="346" on="1"/>
        <pt x="313" y="346" on="0"/>
        <pt x="313" y="330" on="1"/>
        <pt x="313" y="314" on="0"/>
        <pt x="298" y="314" on="1"/>
        <pt x="15" y="314" on="1"/>
        <pt x="0" y="314" on="0"/>
        <pt x="0" y="330" on="1"/>
        <pt x="0" y="346" on="0"/>
      </contour>
      <contour>
        <pt x="248" y="426" on="1"/>
        <pt x="282" y="459" on="1"/>
        <pt x="282" y="537" on="1"/>
        <pt x="250" y="569" on="1"/>
        <pt x="61" y="569" on="1"/>
        <pt x="31" y="539" on="1"/>
        <pt x="31" y="458" on="1"/>
        <pt x="64" y="426" on="1"/>
      </contour>
    </TTGlyph>
    <TTGlyph name="oslash" xMin="-2" yMin="408" xMax="264" yMax="674">
      <contour>
        <pt x="218" y="642" on="1"/>
        <pt x="240" y="624" on="0"/>
        <pt x="264" y="569" on="0"/>
        <pt x="264" y="540" on="1"/>
        <pt x="264" y="491" on="0"/>
        <pt x="215" y="432" on="0"/>
        <pt x="160" y="408" on="0"/>
        <pt x="131" y="408" on="1"/>
        <pt x="82" y="408" on="0"/>
        <pt x="-2" y="478" on="0"/>
        <pt x="-2" y="541" on="1"/>
        <pt x="-2" y="589" on="0"/>
        <pt x="69" y="674" on="0"/>
        <pt x="132" y="674" on="1"/>
        <pt x="180" y="674" on="0"/>
      </contour>
      <contour>
        <pt x="70" y="470" on="1"/>
        <pt x="96" y="448" on="0"/>
        <pt x="132" y="448" on="1"/>
        <pt x="175" y="448" on="0"/>
        <pt x="224" y="505" on="0"/>
        <pt x="224" y="541" on="1"/>
        <pt x="224" y="585" on="0"/>
        <pt x="167" y="634" on="0"/>
        <pt x="131" y="634" on="1"/>
        <pt x="87" y="634" on="0"/>
        <pt x="38" y="576" on="0"/>
        <pt x="38" y="540" on="1"/>
        <pt x="38" y="497" on="0"/>
      </contour>
    </TTGlyph>
    <TTGlyph name="otilde" xMin="40" yMin="-6" xMax="786" yMax="628">
      <contour>
        <pt x="309" y="550" on="1"/>
        <pt x="382" y="624" on="1"/>
        <pt x="386" y="628" on="0"/>
        <pt x="392" y="628" on="1"/>
        <pt x="397" y="628" on="0"/>
        <pt x="401" y="624" on="1"/>
        <pt x="465" y="560" on="1"/>
        <pt x="530" y="624" on="1"/>
        <pt x="535" y="627" on="0"/>
        <pt x="539" y="627" on="1"/>
        <pt x="553" y="627" on="0"/>
        <pt x="553" y="614" on="1"/>
        <pt x="553" y="609" on="0"/>
        <pt x="549" y="605" on="1"/>
        <pt x="474" y="531" on="1"/>
        <pt x="471" y="528" on="0"/>
        <pt x="464" y="528" on="1"/>
        <pt x="460" y="528" on="0"/>
        <pt x="455" y="531" on="1"/>
        <pt x="391" y="595" on="1"/>
        <pt x="328" y="531" on="1"/>
        <pt x="324" y="527" on="0"/>
        <pt x="319" y="527" on="1"/>
        <pt x="306" y="527" on="0"/>
        <pt x="306" y="542" on="1"/>
        <pt x="306" y="547" on="0"/>
      </contour>
      <contour>
        <pt x="151" y="0" on="1"/>
        <pt x="46" y="106" on="1"/>
        <pt x="40" y="111" on="0"/>
        <pt x="40" y="120" on="1"/>
        <pt x="40" y="354" on="1"/>
        <pt x="40" y="362" on="0"/>
        <pt x="46" y="368" on="1"/>
        <pt x="143" y="466" on="1"/>
        <pt x="149" y="471" on="0"/>
        <pt x="158" y="471" on="1"/>
        <pt x="662" y="471" on="1"/>
        <pt x="670" y="471" on="0"/>
        <pt x="676" y="466" on="1"/>
        <pt x="780" y="362" on="1"/>
        <pt x="786" y="356" on="0"/>
        <pt x="786" y="347" on="1"/>
        <pt x="786" y="122" on="1"/>
        <pt x="786" y="114" on="0"/>
        <pt x="780" y="108" on="1"/>
        <pt x="672" y="0" on="1"/>
        <pt x="666" y="-6" on="0"/>
        <pt x="658" y="-6" on="1"/>
        <pt x="166" y="-6" on="1"/>
        <pt x="157" y="-6" on="0"/>
      </contour>
      <contour>
        <pt x="649" y="34" on="1"/>
        <pt x="746" y="131" on="1"/>
        <pt x="746" y="338" on="1"/>
        <pt x="653" y="431" on="1"/>
        <pt x="166" y="431" on="1"/>
        <pt x="80" y="345" on="1"/>
        <pt x="80" y="129" on="1"/>
        <pt x="174" y="34" on="1"/>
      </contour>
    </TTGlyph>
    <TTGlyph name="p" xMin="42" yMin="-5" xMax="718" yMax="471">
      <contour>
        <pt x="62" y="129" on="1"/>
        <pt x="50" y="129" on="0"/>
        <pt x="42" y="144" on="0"/>
        <pt x="42" y="149" on="1"/>
        <pt x="42" y="169" on="0"/>
        <pt x="62" y="169" on="1"/>
        <pt x="111" y="169" on="1"/>
        <pt x="111" y="414" on="1"/>
        <pt x="111" y="422" on="0"/>
        <pt x="118" y="428" on="1"/>
        <pt x="156" y="466" on="1"/>
        <pt x="162" y="471" on="0"/>
        <pt x="170" y="471" on="1"/>
        <pt x="630" y="471" on="1"/>
        <pt x="639" y="471" on="0"/>
        <pt x="645" y="466" on="1"/>
        <pt x="712" y="398" on="1"/>
        <pt x="718" y="393" on="0"/>
        <pt x="718" y="384" on="1"/>
        <pt x="718" y="218" on="1"/>
        <pt x="718" y="209" on="0"/>
        <pt x="712" y="204" on="1"/>
        <pt x="642" y="134" on="1"/>
        <pt x="636" y="129" on="0"/>
        <pt x="627" y="129" on="1"/>
        <pt x="151" y="129" on="1"/>
        <pt x="151" y="14" on="1"/>
        <pt x="151" y="3" on="0"/>
        <pt x="136" y="-5" on="0"/>
        <pt x="131" y="-5" on="1"/>
        <pt x="111" y="-5" on="0"/>
        <pt x="111" y="14" on="1"/>
        <pt x="111" y="129" on="1"/>
      </contour>
      <contour>
        <pt x="151" y="169" on="1"/>
        <pt x="618" y="169" on="1"/>
        <pt x="678" y="227" on="1"/>
        <pt x="678" y="375" on="1"/>
        <pt x="622" y="431" on="1"/>
        <pt x="178" y="431" on="1"/>
        <pt x="151" y="406" on="1"/>
      </contour>
    </TTGlyph>
    <TTGlyph name="paragraph" xMin="2" yMin="-5" xMax="523" yMax="606">
      <contour>
        <pt x="447" y="196" on="1"/>
        <pt x="447" y="14" on="1"/>
        <pt x="447" y="3" on="0"/>
        <pt x="432" y="-5" on="0"/>
        <pt x="427" y="-5" on="1"/>
        <pt x="407" y="-5" on="0"/>
        <pt x="407" y="14" on="1"/>
        <pt x="407" y="196" on="1"/>
        <pt x="351" y="196" on="1"/>
        <pt x="351" y="14" on="1"/>
        <pt x="351" y="3" on="0"/>
        <pt x="336" y="-5" on="0"/>
        <pt x="331" y="-5" on="1"/>
        <pt x="311" y="-5" on="0"/>
        <pt x="311" y="14" on="1"/>
        <pt x="311" y="196" on="1"/>
        <pt x="128" y="196" on="1"/>
        <pt x="119" y="196" on="0"/>
        <pt x="114" y="202" on="1"/>
        <pt x="8" y="307" on="1"/>
        <pt x="2" y="313" on="0"/>
        <pt x="2" y="322" on="1"/>
        <pt x="2" y="482" on="1"/>
        <pt x="2" y="492" on="0"/>
        <pt x="8" y="497" on="1"/>
        <pt x="112" y="600" on="1"/>
        <pt x="120" y="606" on="0"/>
        <pt x="126" y="606" on="1"/>
        <pt x="391" y="606" on="1"/>
        <pt x="400" y="606" on="0"/>
        <pt x="406" y="600" on="1"/>
        <pt x="442" y="564" on="1"/>
        <pt x="447" y="558" on="0"/>
        <pt x="447" y="550" on="1"/>
        <pt x="447" y="236" on="1"/>
        <pt x="504" y="236" on="1"/>
        <pt x="515" y="236" on="0"/>
        <pt x="523" y="221" on="0"/>
        <pt x="523" y="216" on="1"/>
        <pt x="523" y="196" on="0"/>
        <pt x="504" y="196" on="1"/>
      </contour>
      <contour>
        <pt x="311" y="566" on="1"/>
        <pt x="135" y="566" on="1"/>
        <pt x="42" y="474" on="1"/>
        <pt x="42" y="330" on="1"/>
        <pt x="137" y="236" on="1"/>
        <pt x="311" y="236" on="1"/>
      </contour>
      <contour>
        <pt x="407" y="541" on="1"/>
        <pt x="382" y="566" on="1"/>
        <pt x="351" y="566" on="1"/>
        <pt x="351" y="236" on="1"/>
        <pt x="407" y="236" on="1"/>
      </contour>
    </TTGlyph>
    <TTGlyph name="parenleft" xMin="33" yMin="-135" xMax="309" yMax="676">
      <contour>
        <pt x="286" y="636" on="1"/>
        <pt x="206" y="636" on="1"/>
        <pt x="73" y="503" on="1"/>
        <pt x="73" y="23" on="1"/>
        <pt x="190" y="-95" on="1"/>
        <pt x="290" y="-95" on="1"/>
        <pt x="301" y="-95" on="0"/>
        <pt x="309" y="-110" on="0"/>
        <pt x="309" y="-115" on="1"/>
        <pt x="309" y="-135" on="0"/>
        <pt x="290" y="-135" on="1"/>
        <pt x="182" y="-135" on="1"/>
        <pt x="172" y="-135" on="0"/>
        <pt x="167" y="-130" on="1"/>
        <pt x="38" y="0" on="1"/>
        <pt x="33" y="6" on="0"/>
        <pt x="33" y="14" on="1"/>
        <pt x="33" y="512" on="1"/>
        <pt x="33" y="521" on="0"/>
        <pt x="38" y="526" on="1"/>
        <pt x="182" y="670" on="1"/>
        <pt x="188" y="676" on="0"/>
        <pt x="197" y="676" on="1"/>
        <pt x="286" y="676" on="1"/>
        <pt x="298" y="676" on="0"/>
        <pt x="306" y="661" on="0"/>
        <pt x="306" y="656" on="1"/>
        <pt x="306" y="636" on="0"/>
      </contour>
    </TTGlyph>
    <TTGlyph name="parenright" xMin="23" yMin="-135" xMax="299" yMax="676">
      <contour>
        <pt x="46" y="676" on="1"/>
        <pt x="135" y="676" on="1"/>
        <pt x="144" y="676" on="0"/>
        <pt x="150" y="670" on="1"/>
        <pt x="294" y="526" on="1"/>
        <pt x="299" y="521" on="0"/>
        <pt x="299" y="512" on="1"/>
        <pt x="299" y="14" on="1"/>
        <pt x="299" y="6" on="0"/>
        <pt x="294" y="0" on="1"/>
        <pt x="165" y="-130" on="1"/>
        <pt x="160" y="-135" on="0"/>
        <pt x="150" y="-135" on="1"/>
        <pt x="42" y="-135" on="1"/>
        <pt x="31" y="-135" on="0"/>
        <pt x="23" y="-120" on="0"/>
        <pt x="23" y="-115" on="1"/>
        <pt x="23" y="-95" on="0"/>
        <pt x="42" y="-95" on="1"/>
        <pt x="142" y="-95" on="1"/>
        <pt x="259" y="23" on="1"/>
        <pt x="259" y="503" on="1"/>
        <pt x="126" y="636" on="1"/>
        <pt x="46" y="636" on="1"/>
        <pt x="34" y="636" on="0"/>
        <pt x="26" y="651" on="0"/>
        <pt x="26" y="656" on="1"/>
        <pt x="26" y="676" on="0"/>
      </contour>
    </TTGlyph>
    <TTGlyph name="percent" xMin="42" yMin="-6" xMax="852" yMax="671">
      <contour>
        <pt x="129" y="670" on="1"/>
        <pt x="364" y="670" on="1"/>
        <pt x="372" y="670" on="0"/>
        <pt x="378" y="665" on="1"/>
        <pt x="445" y="600" on="1"/>
        <pt x="451" y="595" on="0"/>
        <pt x="451" y="586" on="1"/>
        <pt x="451" y="485" on="1"/>
        <pt x="451" y="476" on="0"/>
        <pt x="446" y="470" on="1"/>
        <pt x="378" y="403" on="1"/>
        <pt x="374" y="398" on="0"/>
        <pt x="364" y="398" on="1"/>
        <pt x="129" y="398" on="1"/>
        <pt x="119" y="398" on="0"/>
        <pt x="114" y="403" on="1"/>
        <pt x="47" y="470" on="1"/>
        <pt x="42" y="475" on="0"/>
        <pt x="42" y="485" on="1"/>
        <pt x="42" y="586" on="1"/>
        <pt x="42" y="595" on="0"/>
        <pt x="48" y="600" on="1"/>
        <pt x="115" y="665" on="1"/>
        <pt x="121" y="670" on="0"/>
      </contour>
      <contour>
        <pt x="777" y="636" on="1"/>
        <pt x="143" y="0" on="1"/>
        <pt x="137" y="-6" on="0"/>
        <pt x="130" y="-6" on="1"/>
        <pt x="109" y="-6" on="0"/>
        <pt x="109" y="16" on="1"/>
        <pt x="109" y="24" on="0"/>
        <pt x="114" y="29" on="1"/>
        <pt x="748" y="665" on="1"/>
        <pt x="754" y="671" on="0"/>
        <pt x="761" y="671" on="1"/>
        <pt x="767" y="671" on="0"/>
        <pt x="782" y="660" on="0"/>
        <pt x="782" y="648" on="1"/>
        <pt x="782" y="641" on="0"/>
      </contour>
      <contour>
        <pt x="530" y="267" on="1"/>
        <pt x="765" y="267" on="1"/>
        <pt x="773" y="267" on="0"/>
        <pt x="778" y="262" on="1"/>
        <pt x="846" y="197" on="1"/>
        <pt x="852" y="191" on="0"/>
        <pt x="852" y="182" on="1"/>
        <pt x="852" y="82" on="1"/>
        <pt x="852" y="73" on="0"/>
        <pt x="846" y="67" on="1"/>
        <pt x="779" y="0" on="1"/>
        <pt x="773" y="-6" on="0"/>
        <pt x="765" y="-6" on="1"/>
        <pt x="530" y="-6" on="1"/>
        <pt x="521" y="-6" on="0"/>
        <pt x="515" y="0" on="1"/>
        <pt x="448" y="67" on="1"/>
        <pt x="442" y="73" on="0"/>
        <pt x="442" y="82" on="1"/>
        <pt x="442" y="182" on="1"/>
        <pt x="442" y="191" on="0"/>
        <pt x="449" y="197" on="1"/>
        <pt x="516" y="262" on="1"/>
        <pt x="522" y="267" on="0"/>
      </contour>
      <contour>
        <pt x="82" y="578" on="1"/>
        <pt x="82" y="494" on="1"/>
        <pt x="138" y="438" on="1"/>
        <pt x="355" y="438" on="1"/>
        <pt x="411" y="494" on="1"/>
        <pt x="411" y="578" on="1"/>
        <pt x="356" y="630" on="1"/>
        <pt x="137" y="630" on="1"/>
      </contour>
      <contour>
        <pt x="482" y="174" on="1"/>
        <pt x="482" y="90" on="1"/>
        <pt x="538" y="34" on="1"/>
        <pt x="756" y="34" on="1"/>
        <pt x="812" y="90" on="1"/>
        <pt x="812" y="174" on="1"/>
        <pt x="757" y="227" on="1"/>
        <pt x="538" y="227" on="1"/>
      </contour>
    </TTGlyph>
    <TTGlyph name="period" xMin="36" yMin="-5" xMax="76" yMax="107">
      <contour>
        <pt x="76" y="88" on="1"/>
        <pt x="76" y="14" on="1"/>
        <pt x="76" y="3" on="0"/>
        <pt x="61" y="-5" on="0"/>
        <pt x="56" y="-5" on="1"/>
        <pt x="36" y="-5" on="0"/>
        <pt x="36" y="14" on="1"/>
        <pt x="36" y="88" on="1"/>
        <pt x="36" y="99" on="0"/>
        <pt x="51" y="107" on="0"/>
        <pt x="56" y="107" on="1"/>
        <pt x="76" y="107" on="0"/>
      </contour>
    </TTGlyph>
    <TTGlyph name="perthousand" xMin="15" yMin="-6" xMax="1136" yMax="683">
      <contour>
        <pt x="112" y="683" on="1"/>
        <pt x="347" y="683" on="1"/>
        <pt x="355" y="683" on="0"/>
        <pt x="361" y="678" on="1"/>
        <pt x="428" y="613" on="1"/>
        <pt x="434" y="608" on="0"/>
        <pt x="434" y="598" on="1"/>
        <pt x="434" y="498" on="1"/>
        <pt x="434" y="488" on="0"/>
        <pt x="429" y="483" on="1"/>
        <pt x="362" y="416" on="1"/>
        <pt x="356" y="410" on="0"/>
        <pt x="347" y="410" on="1"/>
        <pt x="112" y="410" on="1"/>
        <pt x="103" y="410" on="0"/>
        <pt x="98" y="416" on="1"/>
        <pt x="30" y="483" on="1"/>
        <pt x="25" y="489" on="0"/>
        <pt x="25" y="498" on="1"/>
        <pt x="25" y="598" on="1"/>
        <pt x="25" y="608" on="0"/>
        <pt x="31" y="613" on="1"/>
        <pt x="98" y="678" on="1"/>
        <pt x="104" y="683" on="0"/>
      </contour>
      <contour>
        <pt x="683" y="636" on="1"/>
        <pt x="50" y="0" on="1"/>
        <pt x="44" y="-6" on="0"/>
        <pt x="36" y="-6" on="1"/>
        <pt x="27" y="-6" on="0"/>
        <pt x="15" y="6" on="0"/>
        <pt x="15" y="15" on="1"/>
        <pt x="15" y="23" on="0"/>
        <pt x="21" y="29" on="1"/>
        <pt x="654" y="665" on="1"/>
        <pt x="660" y="671" on="0"/>
        <pt x="668" y="671" on="1"/>
        <pt x="676" y="671" on="0"/>
        <pt x="689" y="658" on="0"/>
        <pt x="689" y="649" on="1"/>
        <pt x="689" y="642" on="0"/>
      </contour>
      <contour>
        <pt x="366" y="267" on="1"/>
        <pt x="601" y="267" on="1"/>
        <pt x="609" y="267" on="0"/>
        <pt x="614" y="262" on="1"/>
        <pt x="682" y="197" on="1"/>
        <pt x="688" y="191" on="0"/>
        <pt x="688" y="182" on="1"/>
        <pt x="688" y="82" on="1"/>
        <pt x="688" y="73" on="0"/>
        <pt x="682" y="67" on="1"/>
        <pt x="615" y="0" on="1"/>
        <pt x="609" y="-6" on="0"/>
        <pt x="601" y="-6" on="1"/>
        <pt x="366" y="-6" on="1"/>
        <pt x="357" y="-6" on="0"/>
        <pt x="351" y="0" on="1"/>
        <pt x="284" y="67" on="1"/>
        <pt x="278" y="73" on="0"/>
        <pt x="278" y="82" on="1"/>
        <pt x="278" y="182" on="1"/>
        <pt x="278" y="191" on="0"/>
        <pt x="285" y="197" on="1"/>
        <pt x="352" y="262" on="1"/>
        <pt x="358" y="267" on="0"/>
      </contour>
      <contour>
        <pt x="814" y="267" on="1"/>
        <pt x="1049" y="267" on="1"/>
        <pt x="1057" y="267" on="0"/>
        <pt x="1062" y="262" on="1"/>
        <pt x="1130" y="197" on="1"/>
        <pt x="1136" y="191" on="0"/>
        <pt x="1136" y="182" on="1"/>
        <pt x="1136" y="82" on="1"/>
        <pt x="1136" y="73" on="0"/>
        <pt x="1130" y="67" on="1"/>
        <pt x="1063" y="0" on="1"/>
        <pt x="1057" y="-6" on="0"/>
        <pt x="1049" y="-6" on="1"/>
        <pt x="814" y="-6" on="1"/>
        <pt x="805" y="-6" on="0"/>
        <pt x="799" y="0" on="1"/>
        <pt x="732" y="67" on="1"/>
        <pt x="726" y="73" on="0"/>
        <pt x="726" y="82" on="1"/>
        <pt x="726" y="182" on="1"/>
        <pt x="726" y="191" on="0"/>
        <pt x="733" y="197" on="1"/>
        <pt x="800" y="262" on="1"/>
        <pt x="806" y="267" on="0"/>
      </contour>
      <contour>
        <pt x="318" y="174" on="1"/>
        <pt x="318" y="90" on="1"/>
        <pt x="374" y="34" on="1"/>
        <pt x="592" y="34" on="1"/>
        <pt x="648" y="90" on="1"/>
        <pt x="648" y="174" on="1"/>
        <pt x="593" y="227" on="1"/>
        <pt x="374" y="227" on="1"/>
      </contour>
      <contour>
        <pt x="65" y="590" on="1"/>
        <pt x="65" y="506" on="1"/>
        <pt x="121" y="450" on="1"/>
        <pt x="338" y="450" on="1"/>
        <pt x="394" y="506" on="1"/>
        <pt x="394" y="590" on="1"/>
        <pt x="339" y="643" on="1"/>
        <pt x="120" y="643" on="1"/>
      </contour>
      <contour>
        <pt x="766" y="174" on="1"/>
        <pt x="766" y="90" on="1"/>
        <pt x="822" y="34" on="1"/>
        <pt x="1040" y="34" on="1"/>
        <pt x="1096" y="90" on="1"/>
        <pt x="1096" y="174" on="1"/>
        <pt x="1041" y="227" on="1"/>
        <pt x="822" y="227" on="1"/>
      </contour>
    </TTGlyph>
    <TTGlyph name="pi" xMin="18" yMin="-5" xMax="458" yMax="471">
      <contour>
        <pt x="111" y="431" on="1"/>
        <pt x="38" y="431" on="1"/>
        <pt x="26" y="431" on="0"/>
        <pt x="18" y="446" on="0"/>
        <pt x="18" y="451" on="1"/>
        <pt x="18" y="471" on="0"/>
        <pt x="38" y="471" on="1"/>
        <pt x="438" y="471" on="1"/>
        <pt x="450" y="471" on="0"/>
        <pt x="458" y="456" on="0"/>
        <pt x="458" y="451" on="1"/>
        <pt x="458" y="431" on="0"/>
        <pt x="438" y="431" on="1"/>
        <pt x="360" y="431" on="1"/>
        <pt x="360" y="14" on="1"/>
        <pt x="360" y="3" on="0"/>
        <pt x="345" y="-5" on="0"/>
        <pt x="340" y="-5" on="1"/>
        <pt x="320" y="-5" on="0"/>
        <pt x="320" y="14" on="1"/>
        <pt x="320" y="431" on="1"/>
        <pt x="151" y="431" on="1"/>
        <pt x="151" y="14" on="1"/>
        <pt x="151" y="3" on="0"/>
        <pt x="136" y="-5" on="0"/>
        <pt x="131" y="-5" on="1"/>
        <pt x="111" y="-5" on="0"/>
        <pt x="111" y="14" on="1"/>
      </contour>
    </TTGlyph>
    <TTGlyph name="plus" xMin="46" yMin="-5" xMax="488" yMax="471">
      <contour>
        <pt x="290" y="232" on="1"/>
        <pt x="290" y="14" on="1"/>
        <pt x="290" y="3" on="0"/>
        <pt x="275" y="-5" on="0"/>
        <pt x="270" y="-5" on="1"/>
        <pt x="250" y="-5" on="0"/>
        <pt x="250" y="14" on="1"/>
        <pt x="250" y="232" on="1"/>
        <pt x="66" y="232" on="1"/>
        <pt x="54" y="232" on="0"/>
        <pt x="46" y="247" on="0"/>
        <pt x="46" y="252" on="1"/>
        <pt x="46" y="272" on="0"/>
        <pt x="66" y="272" on="1"/>
        <pt x="250" y="272" on="1"/>
        <pt x="250" y="451" on="1"/>
        <pt x="250" y="463" on="0"/>
        <pt x="265" y="471" on="0"/>
        <pt x="270" y="471" on="1"/>
        <pt x="290" y="471" on="0"/>
        <pt x="290" y="451" on="1"/>
        <pt x="290" y="272" on="1"/>
        <pt x="469" y="272" on="1"/>
        <pt x="480" y="272" on="0"/>
        <pt x="488" y="257" on="0"/>
        <pt x="488" y="252" on="1"/>
        <pt x="488" y="232" on="0"/>
        <pt x="469" y="232" on="1"/>
      </contour>
    </TTGlyph>
    <TTGlyph name="plusminus" xMin="46" yMin="53" xMax="488" yMax="611">
      <contour>
        <pt x="469" y="53" on="1"/>
        <pt x="66" y="53" on="1"/>
        <pt x="54" y="53" on="0"/>
        <pt x="46" y="68" on="0"/>
        <pt x="46" y="73" on="1"/>
        <pt x="46" y="93" on="0"/>
        <pt x="66" y="93" on="1"/>
        <pt x="469" y="93" on="1"/>
        <pt x="480" y="93" on="0"/>
        <pt x="488" y="78" on="0"/>
        <pt x="488" y="73" on="1"/>
        <pt x="488" y="53" on="0"/>
      </contour>
      <contour>
        <pt x="290" y="373" on="1"/>
        <pt x="290" y="155" on="1"/>
        <pt x="290" y="144" on="0"/>
        <pt x="275" y="136" on="0"/>
        <pt x="270" y="136" on="1"/>
        <pt x="250" y="136" on="0"/>
        <pt x="250" y="155" on="1"/>
        <pt x="250" y="373" on="1"/>
        <pt x="66" y="373" on="1"/>
        <pt x="54" y="373" on="0"/>
        <pt x="46" y="388" on="0"/>
        <pt x="46" y="393" on="1"/>
        <pt x="46" y="413" on="0"/>
        <pt x="66" y="413" on="1"/>
        <pt x="250" y="413" on="1"/>
        <pt x="250" y="592" on="1"/>
        <pt x="250" y="603" on="0"/>
        <pt x="265" y="611" on="0"/>
        <pt x="270" y="611" on="1"/>
        <pt x="290" y="611" on="0"/>
        <pt x="290" y="592" on="1"/>
        <pt x="290" y="413" on="1"/>
        <pt x="469" y="413" on="1"/>
        <pt x="480" y="413" on="0"/>
        <pt x="488" y="398" on="0"/>
        <pt x="488" y="393" on="1"/>
        <pt x="488" y="373" on="0"/>
        <pt x="469" y="373" on="1"/>
      </contour>
    </TTGlyph>
</ttFont>
